<?xml version="1.0" standalone="no"?>
<!DOCTYPE svg PUBLIC "-//W3C//DTD SVG 1.1//EN" "http://www.w3.org/Graphics/SVG/1.1/DTD/svg11.dtd" >
<svg>
<metadata>
Created by FontForge 20110222 at Fri Jun  6 12:20:24 2014
 By Orthosie Webhosting
Copyright (c) 2011 by Kimberly Geswein. All rights reserved.
</metadata>
<defs>
<font id="AYearWithoutRain" horiz-adv-x="528" >
  <font-face 
    font-family="A Year Without Rain"
    font-weight="400"
    font-stretch="normal"
    units-per-em="1024"
    panose-1="0 0 0 0 0 0 0 0 0 0"
    ascent="819"
    descent="-205"
    x-height="528.5"
    cap-height="775"
    bbox="-145 -358 1182 1386.57"
    underline-thickness="0"
    underline-position="0"
    unicode-range="U+0020-2122"
  />
<missing-glyph horiz-adv-x="512" 
 />
    <glyph glyph-name=".notdef" horiz-adv-x="512" 
 />
    <glyph glyph-name=".null" horiz-adv-x="0" 
 />
    <glyph glyph-name="nonmarkingreturn" horiz-adv-x="512" 
 />
    <glyph glyph-name="space" unicode=" " horiz-adv-x="512" 
 />
    <glyph glyph-name="space" unicode="&#xa0;" horiz-adv-x="512" 
 />
    <glyph glyph-name="numbersign" unicode="#" horiz-adv-x="1000" 
d="M213 104q0 6 1 11t1 9.5t2 7.5q1 4 3.5 10.5t5.5 12.5t5.5 10.5t3.5 4.5h114q1 0 3.5 6.5t5.5 15.5t5.5 18.5t3.5 15.5q1 7 4 26t6 40t5.5 40t3.5 26q-17 16 -30 18t-33 2q-66 0 -129 -10t-128 -10h-57q-2 19 9 30t27 16.5t32.5 7t25.5 3.5q11 2 33 5t50 7t59 8t58.5 7.5
t49.5 6.5t33 4l38 170h38v-165q35 0 60.5 -2.5t48 -3t45.5 3t53 16.5q2 6 7.5 22t11.5 34l11.5 34.5l7.5 22.5q7 17 10 28.5t17 11.5q11 0 17.5 -5t12.5 -16q-2 -5 -4.5 -18.5t-5.5 -28.5t-5.5 -28.5t-3.5 -19.5q-1 -4 1 -18.5t2 -18.5h204l19 -19q-3 -10 -19 -17t-40 -12.5
t-52 -9.5t-54.5 -7t-48 -6t-31.5 -5q-2 -6 -4.5 -22.5t-5.5 -34.5t-5.5 -34t-3.5 -22q0 -4 0.5 -14.5t1 -22t1.5 -22t1 -14.5q45 0 88.5 9.5t88.5 9.5q0 -21 -12.5 -35.5t-31.5 -24.5t-42.5 -16.5t-45.5 -10t-40.5 -6t-27.5 -4.5q-1 -6 -4 -19t-8.5 -25.5t-14 -22
t-20.5 -9.5q-22 0 -30.5 3.5t-9.5 10t1.5 16.5t2.5 23q-19 0 -43 2t-49 2t-48.5 -3.5t-40.5 -15.5q-8 -5 -11 -18l-6 -26t-9 -23t-22 -10q-15 0 -21 10t-6.5 24.5t1 29t1.5 23.5h-138zM654 403q-76 0 -119.5 -9t-65 -34.5t-26.5 -71t-5 -119.5q2 0 12 0.5t12 0.5
q8 1 29.5 3.5t45.5 5.5t45.5 6t30.5 4q21 51 31 105t10 109z" />
    <glyph glyph-name="dollar" unicode="$" horiz-adv-x="679" 
d="M35 139q0 6 -0.5 23.5t2.5 36t10.5 32.5t23.5 14q0 -18 3.5 -54t13 -72.5t27 -63.5t45.5 -27q12 0 18 9t8 21t2 25v22q1 8 2 32.5t3 57.5t4.5 70.5t4.5 70.5t3 57.5t2 32.5v22q0 23 -12 44t-27 42.5t-27 45.5t-12 53q0 36 12 62.5t29.5 48.5t37 42.5t34 44t21.5 53
t0 70.5q2 0 9.5 1t9.5 1q24 0 32 -12t7.5 -30t-5 -38t-4.5 -35h71q0 2 -3 20.5t-3.5 39.5t5 38t22.5 17q9 0 17.5 -5t11.5 -16q2 -6 5 -22.5t6 -34.5t5.5 -34t2.5 -22q6 -2 16 -6.5t19.5 -10.5t16 -13.5t6.5 -16.5q0 -15 -6 -20.5t-15 -6t-19 1.5t-18 2v-364
q10 -9 34.5 -32.5t51.5 -50.5t51 -52t33 -35q20 -23 29 -45t9 -48q0 -47 -25.5 -75t-61 -46.5t-74.5 -33.5t-66 -35q-7 -5 -12 -22t-10.5 -35t-13.5 -32t-20 -14q-15 0 -15 13.5t2 30t-0.5 30t-23.5 13.5q-4 0 -19.5 -0.5t-32.5 -1t-30.5 -1l-13.5 -0.5q-5 -3 -9.5 -13
t-7.5 -22t-3.5 -23.5t2.5 -16.5h-38q5 35 -4 61t-26 48.5t-38.5 42t-40 41t-31.5 47t-13 58.5zM258 445q-13 -124 -14.5 -241.5t-1.5 -211.5h116l12 384zM452 294q-14 -76 -19 -152t-5 -153q20 0 50 12.5t57.5 32.5t47.5 43.5t20 46.5q0 24 -16.5 50t-40.5 49t-50 42t-44 29
zM281 526q0 -20 8.5 -30t20.5 -16.5t25 -13.5t23 -21q11 5 15 11.5t4 16.5q3 33 7 68.5t6 73t0.5 75.5t-9.5 76h-80q-2 -18 -5.5 -47t-6.5 -62.5t-5.5 -68t-2.5 -62.5zM187 644q0 -13 0.5 -23t2.5 -19.5t6 -20t11 -23.5q17 29 18 55t1 58v57q-22 -14 -30.5 -37t-8.5 -47z
" />
    <glyph glyph-name="ampersand" unicode="&#x26;" horiz-adv-x="500" 
d="M275 -111q2 10 9 14t16 5.5t17.5 1t14.5 -0.5h18.5t18.5 -1q-2 -6 -6 -16t-10 -19.5t-14 -16t-17 -6.5q-17 0 -27 12.5t-20 26.5zM103 249v18.5t0.5 23.5t1 21t0.5 11t3.5 10t7 18t6.5 18t2 10q-3 14 -21.5 24.5t-39.5 23t-37.5 29t-16.5 43.5q0 48 28 80.5t68.5 53
t86.5 31.5t83 17q5 0 12 -7t7 -12q0 -2 -2 -8t-5 -12t-6.5 -11t-5.5 -6q-27 7 -62.5 1.5t-68 -22t-55 -43t-22.5 -60.5q0 -17 13 -29.5t31 -20.5t37 -12t32 -4q39 0 76 10.5t76 10.5q4 0 18.5 -0.5t18.5 -0.5q3 -19 -11.5 -30t-38 -19.5t-51 -17t-51.5 -23t-40 -38
t-16 -61.5q0 -18 3 -35t10.5 -30.5t20 -22t32.5 -8.5q23 0 59 4t69.5 15t57.5 31t24 52q15 0 31 -8.5t16 -25.5q0 -29 -30.5 -51.5t-71.5 -38.5t-82 -24.5t-63 -8.5q-66 0 -100 37t-34 97zM180 842q0 14 9.5 21t22.5 10t26 3h21q0 -10 -1.5 -21.5t-6 -21t-12 -16t-20.5 -6.5
q-14 0 -26.5 6.5t-12.5 24.5z" />
    <glyph glyph-name="quotesingle" unicode="'" horiz-adv-x="160" 
d="M57 491q0 2 3 10.5t6.5 18t6.5 17.5t3 10q0 1 0.5 12t0.5 16q0 51 -18.5 102.5t-39.5 96.5q11 20 28 20q24 0 40.5 -27t27 -64t15.5 -75.5t5 -62.5q0 -12 -0.5 -28t-5 -30.5t-14.5 -25t-30 -10.5q-8 0 -18 4.5t-10 15.5z" />
    <glyph glyph-name="parenleft" unicode="(" horiz-adv-x="349" 
d="M57 315q0 31 9 87t25 122.5t39.5 135t53 124.5t64 91.5t73.5 35.5q12 0 23 -2.5t16 -17.5q-59 -65 -102.5 -125.5t-72 -126t-42 -139.5t-13.5 -165q0 -64 4.5 -128t20.5 -124t46.5 -114t82.5 -97q0 -5 -7 -12t-11 -7q-41 0 -72.5 27.5t-55 71t-39 97t-25 105t-13.5 94.5
t-4 67z" />
    <glyph glyph-name="parenright" unicode=")" horiz-adv-x="377" 
d="M61 -137q42 72 80 135t66.5 127t45.5 135t17 158q0 86 -21 156.5t-57 133.5t-84.5 123t-103.5 126l38 38q72 -56 126 -129.5t89 -156t52.5 -171t17.5 -175.5q0 -33 -7 -81t-20.5 -100.5t-33.5 -106.5t-45.5 -100.5t-56 -81.5t-66.5 -49q-3 -2 -9 -0.5t-12 4.5t-10.5 7
t-5.5 8z" />
    <glyph glyph-name="asterisk" unicode="*" horiz-adv-x="509" 
d="M227 510q-17 -6 -27 -19.5t-15 -30t-6.5 -33.5t-1.5 -30h-71q0 25 6 46.5t13.5 42t13.5 42t6 46.5q-8 0 -23.5 -4t-32 -6t-31 1.5t-20.5 19.5q-2 3 -3 8l-2 10t-1 11h81l-94 122v27q28 0 55.5 -16t52.5 -38t46 -46l35 -40q-12 17 -15 51t-1 70t6.5 66t9.5 39h47l-13 -167
q3 13 9 35t14.5 43.5t17.5 37.5t18 16q14 0 27 -6.5t13 -24.5q0 -1 -0.5 -4.5t-0.5 -4.5q-8 -13 -16 -32.5t-15.5 -40.5t-14 -41.5t-11.5 -36.5q5 0 19 -0.5t19 -0.5q22 0 42 4t40.5 8.5t41 8.5t43.5 4q0 -21 -12.5 -34.5t-32.5 -22.5t-44 -13.5t-46.5 -6.5t-41.5 -2.5
t-28 -1.5l76 -94q1 2 6.5 5.5t11.5 6.5t11.5 5t7.5 2q6 0 11 -10.5t8.5 -24t5.5 -26t2 -16.5q0 -29 -13.5 -30t-36 15.5t-51 45.5t-59.5 59q-1 0 2 -11t8 -26.5t11 -34t11 -35t8.5 -27.5t2.5 -12q-2 -3 -8 -5.5t-12.5 -4.5t-12.5 -4t-9 -4q-20 13 -29 34.5t-12 45t-1 47.5
t5 43z" />
    <glyph glyph-name="plus" unicode="+" horiz-adv-x="500" 
d="M217 425h-170q-2 0 -9 11t-10 17q0 1 -0.5 4.5t-0.5 5.5q0 8 4 18t16 10h170v200q30 0 45 -23t21 -53.5t7 -60.5t2 -44l178 -1v-38q-15 -4 -39 -9t-51 -9.5t-53 -9.5t-44 -9v-207l-66 19v179z" />
    <glyph glyph-name="comma" unicode="," horiz-adv-x="181" 
d="M18 -57q23 20 35.5 52.5t23 62.5t21.5 51t31 20q9 -5 11.5 -22t-0.5 -40t-11 -48.5t-20 -48t-28 -38t-34 -18.5q-12 0 -20.5 8.5t-8.5 20.5z" />
    <glyph glyph-name="hyphen" unicode="-" horiz-adv-x="604" 
d="M47 364q-2 1 -5.5 6.5t-6.5 11.5t-5 11.5t-2 8.5q0 9 5.5 13t13 5.5t14.5 1.5h11q67 -7 108.5 -10t69.5 -4t49.5 -1t48.5 -2t65 -8t100 -17q16 -3 29 -6t23 -9t15.5 -17t5.5 -29q-77 9 -140 15.5t-124.5 11t-127 8.5t-147.5 10z" />
    <glyph glyph-name="period" unicode="." horiz-adv-x="142" 
d="M30 82q7 0 21 0.5t28 -2.5t24.5 -10.5t10.5 -22.5q0 -7 -1.5 -15.5t-4.5 -16t-8.5 -12.5t-14.5 -5q-15 0 -25 9t-17 22t-10 27.5t-3 25.5z" />
    <glyph glyph-name="slash" unicode="/" horiz-adv-x="566" 
d="M8 28q0 2 0.5 5.5t0.5 4.5l487 842q15 -8 29 -19.5t12 -30.5l-471 -830q0 -1 -6.5 -2t-9.5 -1q-15 0 -28.5 7t-13.5 24z" />
    <glyph glyph-name="one" unicode="1" horiz-adv-x="415" 
d="M273 660q-27 -23 -59 -37.5t-66.5 -22t-70 -10t-68.5 -2.5v54q11 1 37.5 8.5t55.5 17.5t55 19t37 12q34 11 58 39t42.5 57t33.5 51.5t30 22.5q17 0 23.5 -12t4.5 -27l-151 -811q-1 -5 -15 -12t-22 -7q-5 0 -11.5 2t-12.5 5t-10 6.5t-4 5.5z" />
    <glyph glyph-name="two" unicode="2" horiz-adv-x="500" 
d="M47 -26q-8 0 -13.5 7.5t-9.5 18t-5 21t0 17.5q23 9 38.5 16t29.5 14.5t29.5 16.5t38.5 23q33 44 70.5 92.5t69.5 100.5t53 107.5t22 114.5q0 12 -13.5 38.5t-33.5 53t-43.5 47t-42.5 20.5q-17 0 -36 -12t-35.5 -27.5t-30 -31.5t-20.5 -24q-5 3 -13.5 9.5t-16 14t-11 16.5
t2.5 17q37 40 62 62.5t42.5 34t29.5 15t24 5.5q25 5 51 -4.5t50 -29t44.5 -47t35.5 -57.5t22.5 -61t5.5 -57q-8 -83 -34.5 -146t-59 -113t-65 -90.5t-52.5 -77.5q5 -8 28.5 -16.5t58 -14.5t77 -7.5t87.5 4.5l-5 -57q-24 -18 -65 -22t-87 2t-91 20.5t-76 34.5q-16 0 -30 -7.5
t-27 -16.5t-26.5 -16.5t-29.5 -7.5z" />
    <glyph glyph-name="three" unicode="3" horiz-adv-x="472" 
d="M42 113q0 12 8.5 20t20.5 8q18 0 28 -15t19 -32.5t21.5 -32.5t35.5 -15q43 -3 81.5 19.5t68 59t47 81.5t17 85.5t-21.5 72t-68 41.5q-26 0 -49 -10.5t-48 -10.5q-12 0 -20 8.5t-8 21.5q0 9 11.5 27.5t28.5 43t36.5 54t36.5 61t28.5 63.5t11.5 62q-7 22 -18.5 24
t-26.5 -7.5t-33 -26.5t-37 -32t-39.5 -24.5t-39.5 -3.5q0 33 19 62.5t47.5 52t62.5 36t64 13.5q39 -6 58.5 -30.5t24 -58t-2 -71.5t-20 -72t-30.5 -58.5t-32 -31.5q50 -9 81 -39t45.5 -73t13 -94.5t-16.5 -102.5t-42.5 -97t-65.5 -78t-85.5 -46.5t-102.5 -1.5
q-24 0 -44.5 13.5t-34.5 35t-22 47.5t-8 52z" />
    <glyph glyph-name="four" unicode="4" horiz-adv-x="547" 
d="M461 4q-6 -9 -21.5 -10.5t-28.5 7t-18 26.5t9 48v337q-104 15 -173 25t-111.5 16.5t-64 10.5t-29.5 6t-7.5 3t0.5 2q0 21 5.5 33t14.5 21t20.5 17t23.5 20q10 10 20 34t18.5 53.5t17 61t16.5 57.5t15.5 43t15.5 17q21 0 25.5 -15.5t4.5 -32.5q0 -32 -9 -64t-20 -63
t-20 -61.5t-9 -58.5q0 -11 15.5 -19.5t40 -14.5t54.5 -10t58 -6.5t51 -3.5t34 -1l17 299q-2 4 8.5 8.5t24 6t24 -1.5t9.5 -13q1 -23 1 -67.5t-0.5 -102t-2 -124t-3.5 -133t-5 -128t-6 -110t-7 -78.5t-8 -34z" />
    <glyph glyph-name="five" unicode="5" horiz-adv-x="565" 
d="M35 47q0 2 0.5 12t1 21.5t1 21t0.5 11.5q9 -14 22.5 -25t30 -18t34 -10.5t34.5 -3.5q55 0 97.5 22t71.5 58.5t44.5 83t15.5 95.5q0 16 -8.5 44t-24.5 55t-39 45t-52 13q-27 -5 -47 -19t-35 -33t-26.5 -40t-22 -38.5t-22 -29t-26.5 -11.5q-11 0 -19.5 9.5t-8.5 29.5
q2 29 4 70.5t3 87.5l2 92t3 85.5t5 67.5t8 38l352 49q16 3 30.5 -2t26 -15t18 -23.5t6.5 -28.5q-86 0 -174.5 -12.5t-170.5 -31.5q-11 -26 -15 -51.5t-5 -51t0.5 -51.5t0.5 -54q74 27 128.5 23.5t92 -29t58 -68t25.5 -93t-5 -104t-33.5 -100.5t-60 -83.5t-85 -52.5t-108 -7
t-128.5 52z" />
    <glyph glyph-name="six" unicode="6" horiz-adv-x="443" 
d="M18 160q0 89 26 183t65.5 186t86 178.5t87.5 160.5q3 9 11.5 14t18 7.5t19.5 2.5h17q0 -11 -2 -24t-9.5 -36.5t-22.5 -60.5t-41 -97t-65.5 -146t-95.5 -207q-8 -20 -15 -58.5t-6.5 -78t13.5 -71t46 -38.5q-5 18 -2.5 44.5t11 56t22.5 59t31.5 53t37.5 38.5t41 15
q23 0 44.5 -9t38 -24.5t27 -36.5t13.5 -45q6 -46 -19 -87.5t-65 -72.5t-87 -49.5t-86 -18.5q-31 0 -57 15t-44.5 38.5t-28.5 52.5t-10 56zM227 113q16 -22 36 -15.5t37.5 26t29 44.5t10.5 40q0 6 -1.5 15.5t-5 18.5t-9 16t-12.5 8q-20 0 -35.5 -19.5t-26.5 -45t-17 -51
t-6 -37.5z" />
    <glyph glyph-name="seven" unicode="7" horiz-adv-x="396" 
d="M187 43q25 67 44.5 157t32 187t17.5 192.5t2 175.5q-18 1 -49.5 2t-66.5 5t-69.5 11t-59.5 19q-13 7 -17 17t-1 19t12.5 15.5t23.5 6.5q18 0 34 -3.5t32.5 -7.5t33.5 -7.5t36 -3.5q25 0 44 1t37.5 5t38.5 12t47 22v-17t0.5 -25.5t0.5 -25.5v-17q0 -192 -23.5 -376.5
t-72.5 -368.5q-1 -4 -4 -10.5t-6 -12.5t-5.5 -10.5t-3.5 -4.5q-21 -5 -32.5 -3t-17 8.5t-7 16.5t-1.5 21z" />
    <glyph glyph-name="eight" unicode="8" horiz-adv-x="500" 
d="M27 179q0 95 36 169t97 143q-29 24 -47.5 42t-29 36.5t-15 41.5t-4.5 58q-4 70 16 132t53.5 107t75.5 70.5t81 23.5q44 0 76.5 -31.5t54.5 -76t32.5 -94t10.5 -85.5q0 -31 -10.5 -59t-25.5 -52t-31.5 -43t-28.5 -33q26 -34 41.5 -82t20 -102t-3.5 -109.5t-29.5 -103
t-57 -82.5t-85.5 -49q-49 -5 -90.5 4t-72 31t-47.5 58t-17 86zM303 473q-47 0 -87 -29.5t-68.5 -73.5t-42 -96t-7 -98t34.5 -79.5t84 -39.5q46 6 74.5 32t44 63.5t19 82.5t-1.5 89t-16.5 83t-25.5 65h-4h-3q-1 0 -1 1zM121 679q0 -23 4.5 -47t15.5 -43t29.5 -31t46.5 -12
q37 0 68.5 13t54.5 36t36 54t13 67q0 15 -6 47t-17 64t-27 56t-36 24q-40 0 -73.5 -22.5t-57.5 -56.5t-37.5 -74t-13.5 -75z" />
    <glyph glyph-name="nine" unicode="9" horiz-adv-x="500" 
d="M337 -6q0 76 7 151.5t15 151.5t13.5 152.5t4.5 154.5q-34 -19 -59.5 -34.5t-48.5 -26t-47 -16t-54 -5.5q-21 0 -47 7.5t-49 22.5t-38.5 37t-15.5 51q4 50 25.5 100t56 91.5t78.5 70t92 36t97.5 -10.5t94.5 -69q0 -99 -5.5 -208t-15 -219t-21.5 -215.5t-24 -196.5
q-3 -9 -10 -14t-15.5 -7.5t-17.5 -3t-16 -0.5zM94 660q6 -31 26 -48t47 -20.5t57.5 5.5t58 30t48 53t28.5 75q0 1 0.5 4.5t0.5 5.5q0 19 -10 35t-25 27.5t-33 18t-35 6.5q-29 0 -58.5 -19.5t-52.5 -48t-37.5 -62.5t-14.5 -62z" />
    <glyph glyph-name="colon" unicode=":" horiz-adv-x="160" 
d="M35 148q11 23 24 31.5t34 8.5q17 0 26.5 -7.5t9.5 -32.5q0 -39 -27 -39q-19 0 -38 11.5t-29 27.5zM34 478q0 18 15 33t33 15q15 0 22.5 -10t10 -24t2.5 -28v-21h-21.5t-27.5 2.5t-24 10t-10 22.5z" />
    <glyph glyph-name="semicolon" unicode=";" horiz-adv-x="160" 
d="M17 -138q15 34 21.5 74t14.5 70.5t23.5 43.5t47.5 -7q-5 -17 -8 -50t-7 -66t-11.5 -58t-21.5 -24q-6 0 -15.5 -0.5t-18.5 0t-16 4.5t-9 13zM57 302q-25 1 -31 13.5t0 27t20.5 26t29.5 10.5q17 0 27 -6.5t10 -32.5q0 -6 -8.5 -12.5t-19.5 -12.5q-12 -7 -28 -13z" />
    <glyph glyph-name="less" unicode="&#x3c;" horiz-adv-x="547" 
d="M462 155q-19 6 -57 7t-85 0.5t-97.5 -0.5t-93.5 4.5t-74 15t-38 30.5l4.5 4.5l10.5 10.5l12.5 12.5t10.5 9.5q12 10 37 31t56.5 47t66.5 55t66.5 55t56.5 46t37 30q20 16 41.5 20t45.5 4q0 -25 -18.5 -51.5t-47.5 -54t-65 -54.5t-71 -53t-64.5 -50t-46.5 -44h302
q2 2 7 5.5t11 6.5t11.5 5t8.5 2q9 0 13 -6.5t5.5 -14.5t1.5 -16v-12q0 -23 -10 -34t-37 -11z" />
    <glyph glyph-name="equal" unicode="=" horiz-adv-x="406" 
d="M358 190q15 -5 18 -16t3 -23q0 -15 -21.5 -23.5t-54.5 -13t-72.5 -6t-75.5 -1.5t-64 1t-38 1q-15 26 -5.5 41t34.5 22.5t61.5 10t75.5 2.5t75.5 0.5t63.5 4.5zM47 283q-15 7 -18 18.5t1.5 22.5t14.5 20.5t21 13.5q10 1 30.5 2.5t46.5 3t54.5 4t55 4t47 3t30.5 2.5h11
q17 0 23 -12.5t6 -26.5q0 -12 -5.5 -19t-14 -10.5t-19 -4.5t-20.5 -2t-30.5 -2.5t-47 -3t-55 -4t-54.5 -4t-46.5 -3t-30.5 -2.5z" />
    <glyph glyph-name="greater" unicode="&#x3e;" 
d="M96 114v14.5t2 5.5t6 5t12 12q15 20 41.5 43t56.5 47t60.5 47.5t55.5 44t40.5 37t15.5 26.5l-339 113q-20 7 -20 29q0 21 16 25.5t33 4.5q21 0 41 -6t39.5 -15t39.5 -19.5t40 -18.5q9 -3 28 -9t43 -13.5t51 -15.5t51 -15.5t43.5 -13.5t28.5 -8q27 -20 19.5 -45.5
t-36.5 -54t-72.5 -60.5t-89.5 -65.5t-87.5 -67.5t-66.5 -68q-23 0 -37.5 7.5t-14.5 33.5z" />
    <glyph glyph-name="question" unicode="?" horiz-adv-x="509" 
d="M151 75q1 19 11.5 27t23.5 6.5t24.5 -11.5t13.5 -28q3 -9 -6.5 -23.5t-22.5 -20.5t-26 3t-18 47zM143 426q87 55 143 117.5t81 117t19.5 93t-40.5 45.5t-100 -26t-159 -120h-49q15 44 44.5 80t67 62t79 41t80 18t71.5 -7t52.5 -34.5t22 -64t-18.5 -95.5
q-24 -61 -63 -107.5t-78.5 -79.5t-71.5 -52.5t-42 -25.5q-19 0 -26.5 7.5t-11.5 30.5z" />
    <glyph glyph-name="at" unicode="@" horiz-adv-x="830" 
d="M26 300q0 63 12 131t36.5 133.5t61.5 124.5t86.5 103.5t112.5 70.5t140 26q70 0 127 -23.5t97.5 -65.5t63 -99.5t22.5 -125.5q0 -26 -3.5 -58t-12 -65t-22 -64t-33.5 -55t-46.5 -38.5t-60.5 -14.5q-25 0 -50.5 5t-48 16.5t-40 30t-25.5 45.5q-26 -17 -41.5 -45.5
t-31.5 -56.5t-37.5 -48t-59.5 -20q-44 0 -70 29t-26 71q0 35 6 77t20 83.5t35.5 77.5t53.5 59q15 15 38 25t50.5 14.5t58 4t61.5 -5.5q-1 -10 -1.5 -34t-0.5 -51t0.5 -51.5t1.5 -33.5q1 -17 7.5 -39.5t18 -43t28.5 -35t40 -14.5q23 -4 48 9t43 49.5t25.5 100t-3.5 161.5
q0 39 -21.5 68t-53 47.5t-67 28t-64.5 9.5q-96 0 -173.5 -43t-131.5 -112t-83 -157t-29 -178q0 -61 10.5 -107.5t35 -78t66.5 -48t105 -16.5q75 0 135 21.5t108 54t85.5 70.5t66.5 70.5t50.5 54t39.5 21.5q0 -58 -23 -106.5t-61 -87t-87 -67.5t-102.5 -48.5t-107 -29
t-99.5 -9.5q-78 0 -131.5 15.5t-86.5 49.5t-47.5 87.5t-14.5 130.5zM396 567q-32 0 -55 -16.5t-39.5 -43t-27 -59t-16.5 -65t-8 -61.5t-2 -47q28 0 50.5 14.5t40.5 38t31.5 53t23.5 60t17.5 58.5t12.5 48q-5 11 -11.5 15.5t-16.5 4.5z" />
    <glyph glyph-name="A" unicode="A" horiz-adv-x="483" 
d="M340 340q-8 0 -26.5 -2.5t-39.5 -5.5t-40 -6.5t-26 -4.5q-1 0 -3 -3t-6.5 -13.5t-12.5 -31.5t-20 -58.5t-29.5 -94t-41.5 -137.5h-75q3 7 9 27t13.5 47t15.5 57.5t15 57.5t12.5 47t8.5 26t6 15l6 18t5 16t2 8t-6 4t-12.5 5.5t-12.5 5t-6 4.5q-1 1 -1.5 7t-0.5 10
q0 16 7 26t18 16.5t24.5 10t27.5 5.5q32 117 57.5 236.5t55.5 235.5q6 10 14 20.5t18.5 19.5t22 15t25.5 6q3 0 9 -1.5t6 -2.5l56 -491q4 3 14.5 6.5t22.5 6.5t23 5t16 1q3 -1 9 -5.5t12 -10.5t11 -12t5 -10q-8 -12 -22 -21t-29.5 -16t-32 -11.5t-29.5 -8.5
q18 -88 21.5 -184.5t3.5 -184.5q-29 0 -46 19.5t-26 50t-12 69.5t-4.5 78t-3.5 74.5t-8 59.5zM302 755q-20 -85 -39 -170.5t-36 -178.5v-10l113 19v8q-1 13 -4 38.5t-6.5 58t-7.5 68.5t-8 68.5t-7.5 59t-4.5 39.5z" />
    <glyph glyph-name="B" unicode="B" horiz-adv-x="632" 
d="M47 30v26.5t-0.5 43.5t-0.5 43.5v26.5q0 132 10.5 262.5t10.5 262.5q0 16 -3.5 24.5t-7 15t-7 12.5t-3.5 17q0 28 13.5 46t35 30t49 18t55 8.5t52.5 2.5h43q23 0 46 -3.5t42 -14t30.5 -29t11.5 -48.5t-7.5 -66t-18.5 -72t-24 -69t-25 -58q30 -19 59.5 -30t57 -21
t51.5 -20.5t41.5 -28.5t27.5 -45.5t10 -70.5q0 -67 -24 -121.5t-65.5 -93t-98 -59.5t-121.5 -21q-15 0 -50 1t-73.5 4.5t-72 10t-44.5 16.5zM350 755q-1 25 -16.5 38t-38.5 16t-50 -2.5t-50 -18t-38.5 -31t-15.5 -40.5q-7 -68 -11 -126t-6 -113.5t-2.5 -112t-0.5 -120.5
v-33.5t0.5 -51.5t0.5 -51v-34q4 33 22 37t43 -4t54 -20.5t55 -13.5q50 0 94 13t77 40t52 68.5t19 97.5q0 40 -21 64.5t-52 38t-68 17.5t-68 4q-35 0 -73.5 -8t-69.5 -8q-11 0 -13.5 0.5t-3.5 3.5t-2 10t-7 19q33 43 66.5 73t61 62t45 74.5t17.5 111.5z" />
    <glyph glyph-name="C" unicode="C" horiz-adv-x="531" 
d="M17 444q4 61 21 121.5t43 115t58.5 99.5t67.5 75.5t70 43t65.5 1.5t54.5 -48.5t38 -107.5q-2 0 -9.5 1t-16 2.5t-16 3.5t-9.5 3q-24 43 -49 56t-49.5 5t-47.5 -33.5t-43.5 -61t-37.5 -76.5t-29.5 -80.5t-20 -73.5t-8.5 -54q-1 -24 0.5 -58t7 -72.5t16 -77t28.5 -70.5
t44 -55t62 -29q34 0 62.5 18t54.5 39.5t52.5 39.5t57.5 18q4 0 11 -7.5t7 -11.5q-26 -30 -52 -61t-55.5 -56t-63 -41t-74.5 -16q-44 0 -78.5 22.5t-61.5 59.5t-46 84t-31 97t-17.5 98t-5.5 87z" />
    <glyph glyph-name="D" unicode="D" horiz-adv-x="642" 
d="M42 724q-4 6 -5 16.5t-0.5 22t1.5 22t1 17.5q0 17 13.5 25t34 10t44.5 -0.5t46 -6t38.5 -7t21.5 -3.5q78 0 145.5 -33.5t117 -90.5t78 -132.5t28.5 -159.5q-4 -52 -30 -107t-67.5 -105t-95 -91.5t-113.5 -67t-122 -31t-121 16.5zM132 75h19q36 0 79.5 13.5t87.5 37
t85 55.5t73 69t51.5 76.5t19.5 79.5q0 24 -8.5 62.5t-28 81t-52 83.5t-80 71t-112.5 44.5t-150 2.5z" />
    <glyph glyph-name="E" unicode="E" horiz-adv-x="539" 
d="M38 743q2 8 33.5 16t79 14.5t103.5 11.5t107 8.5t89.5 5.5t51.5 2q10 0 22 -1t21.5 -4.5t16 -11t6.5 -20.5q0 -20 -19 -30.5t-51 -15t-72.5 -4.5t-83.5 0.5t-85 0.5t-76.5 -4.5t-57.5 -14t-28 -28.5q3 -12 1.5 -32.5t-4 -44.5t-3.5 -50t3 -50q27 -2 62.5 -1.5t73.5 1.5
t75.5 2.5t67.5 2.5q0 -31 -9.5 -48t-47.5 -28q-14 -3 -45 -4t-66 -1t-66 -0.5t-45 -1.5q1 -42 2 -88.5t0 -90t-3.5 -80t-7.5 -59.5q22 2 52 1.5t64 -2t70 -2t68.5 0.5t60 5.5t45.5 14.5q39 0 39 -27q1 -5 -1.5 -12.5t-6.5 -15t-7.5 -13.5t-4.5 -7l-377 -38q-8 -1 -18.5 4.5
t-19.5 14.5t-15 19t-4 19z" />
    <glyph glyph-name="F" unicode="F" horiz-adv-x="418" 
d="M50 0l2.5 87.5t2.5 114t0.5 128t-2.5 129.5t-7 118t-14 94q-14 12 -16.5 24.5t2 24.5t14 23.5t19.5 22.5q40 -3 84.5 -0.5t89 7.5t87 9.5t78.5 4.5q14 0 25.5 -6t11.5 -23q0 -20 -23.5 -31t-59.5 -16.5t-77 -6.5t-77 -2t-59.5 -3t-23.5 -9l5 -272q29 -5 65.5 -4.5t73 6.5
t70.5 17.5t58 28.5q12 0 18.5 -15.5t6.5 -27.5q0 -18 -21.5 -31.5t-54 -24t-70.5 -17.5t-70.5 -12.5t-54 -10t-21.5 -8.5l4 -319h-66v0z" />
    <glyph glyph-name="G" unicode="G" horiz-adv-x="623" 
d="M496 49q-23 -15 -48 -23t-51 -11.5t-53 -4t-53 -0.5q-53 0 -101.5 18.5t-85.5 52t-58.5 80.5t-21.5 105q-8 48 0.5 109t30 123.5t55 120t77.5 100t96.5 62.5t112.5 8q28 -9 43 -22t17.5 -25.5t-8 -22t-34.5 -11.5q-3 -1 -17.5 -2.5t-36 -5t-47 -10.5t-49.5 -17.5
t-44 -26.5t-30 -38q-26 -26 -43.5 -63.5t-28.5 -79.5t-15.5 -85t-4.5 -79q0 -53 10 -96.5t34 -74t63 -47.5t97 -17q30 0 65 2.5t64 13t48.5 32.5t19.5 61v33t-3.5 33.5t-13.5 26t-31 10.5q-25 0 -49 -6.5t-47 -14t-47 -14t-49 -6.5q-22 0 -35 7.5t-11 31.5q20 6 60.5 18.5
t85.5 25.5t85.5 23t60.5 10q12 0 27.5 -1.5t19.5 -19.5q7 -42 12.5 -90t8.5 -97.5t2.5 -98t-4.5 -91.5q-22 -14 -35.5 -13t-21.5 14t-12 37t-6 56z" />
    <glyph glyph-name="H" unicode="H" horiz-adv-x="538" 
d="M386 104q0 25 1 61.5t2.5 75.5t2.5 76t1 63q-2 0 -7.5 0.5t-7.5 0.5q-7 -1 -34.5 -3.5t-59 -6t-59.5 -6t-35 -3.5h-19q-9 -2 -22 -5t-25 -6t-20.5 -5.5l-8.5 -2.5l8 -249q16 -5 18 -15t2 -22q0 -39 -37 -39q-5 0 -15 0.5t-19.5 3t-16.5 6.5t-7 10l30 739q2 0 9.5 1t9.5 1
q4 0 10.5 -0.5t12.5 -2.5t10 -6t4 -12v-321h227q22 0 36 12t22 30t12 37.5t5 34.5q1 8 2.5 24t3 36.5t4 43t4 43t3 36.5t2.5 24q2 0 9.5 1t9.5 1q39 0 39 -37q0 -79 -6.5 -169t-13 -182.5t-11 -183t-0.5 -169.5q-2 -2 -7 -5.5t-11 -6.5t-11.5 -5t-8.5 -2q-12 0 -19.5 14
t-11.5 32t-5.5 35t-1.5 23z" />
    <glyph glyph-name="I" unicode="I" horiz-adv-x="679" 
d="M99 72q0 5 11.5 6t28 0.5t36 -1t35.5 0.5t26.5 4.5t8.5 11.5q16 69 24 138.5t11.5 140.5t3.5 142.5t-1 144.5q-33 -9 -62 -16.5t-57.5 -13t-59 -8t-65.5 -1.5l-1 39q70 20 134.5 40.5t128.5 37t129.5 27t138.5 10.5q11 0 27 -8.5t21 -28.5q-14 -21 -38 -29.5t-51.5 -10.5
t-56 -2t-52 -3.5t-40.5 -14.5t-20 -36q-6 -71 -10.5 -138t-6.5 -133.5t-1.5 -134t3.5 -137.5q13 9 38 13.5t56 5t65 -1t65 -2.5h20t25.5 -2t21.5 -8t9 -18q0 -19 -21 -29q-15 -9 -57.5 -16.5t-97 -14.5t-114.5 -12t-111 -9t-86.5 -6.5t-40.5 -2.5q-30 3 -43.5 10.5t-15.5 17
t4.5 19t15 17t15.5 11t7 1.5z" />
    <glyph glyph-name="J" unicode="J" horiz-adv-x="449" 
d="M179 94q15 21 25 64t16.5 97t10 114.5t5 116.5t1 102t-0.5 72q-8 19 -35 28.5t-58.5 13t-61 3t-41.5 -0.5q0 13 1 25.5t5 22.5t13 16.5t24 6.5q14 -4 49.5 -7.5t82 -6t99 -4.5t101.5 -2.5t90 0.5t64 4q11 -5 15.5 -11.5t4.5 -16.5q0 -5 -2.5 -12t-6 -14t-8.5 -12.5
t-11 -6.5l-250 -7q-13 -46 -15 -114.5t-1.5 -144.5t-1.5 -150.5t-15 -133t-42.5 -92.5t-84.5 -28q-78 2 -116 20t-43.5 36.5t17 29t64.5 -2.5z" />
    <glyph glyph-name="K" unicode="K" horiz-adv-x="505" 
d="M67 -4q3 6 -5 -3t-18 -15.5t-18.5 0t-8.5 44.5q4 61 9 116t8.5 109.5t6 112t1.5 123t-6 143t-14 172.5q7 14 19.5 17.5t25 1.5t21.5 -8t9 -11l2 -380q26 5 53.5 26.5t55 53.5t54.5 72t50 81.5t42 83t32 76.5q10 0 16 -2t11 -5.5t11 -9.5t16 -13q-4 -41 -23 -88
t-45.5 -93.5t-59 -88.5t-65 -74.5t-62.5 -51.5t-51 -18q37 -33 84.5 -74t94 -86t87 -91.5t63.5 -88.5q0 -1 -0.5 -2t-0.5 -3v-3q-3 -2 -11.5 -5.5t-17.5 -6.5t-17 -5t-11 -2q-30 32 -66.5 74.5t-77 85.5t-82.5 81t-84 61l-28 -306v0z" />
    <glyph glyph-name="L" unicode="L" horiz-adv-x="384" 
d="M28 57q3 53 7.5 114.5t9 127.5t8.5 133.5t5.5 131.5t1.5 122.5t-4 107.5q-2 24 9 44t26 26.5t29.5 -4.5t20.5 -49q7 -45 3 -125.5t-12.5 -179t-18 -205.5t-14.5 -206l236 -13q15 1 24.5 -10.5t12 -26t-2.5 -28t-20 -17.5q-28 11 -66 12.5t-78 0t-77 -3.5t-63.5 0.5
t-37.5 13t1 34.5z" />
    <glyph glyph-name="M" unicode="M" horiz-adv-x="736" 
d="M574 65q8 68 14 130.5t10.5 124t6 125t0.5 134.5q-34 -68 -87 -110t-130 -42q-33 0 -70.5 6.5t-71 22t-59 41t-35.5 63.5l-48 -513q-2 -26 -10 -32.5t-25 -6.5q-14 0 -27 5.5t-13 22.5v11q1 23 5 73.5t9 114.5t10 134.5t10 134.5t8.5 114t5.5 74q-3 15 1 23t11.5 11.5
t17 4.5t17.5 1q4 0 14.5 -0.5t13.5 -1.5q21 -46 39.5 -90.5t44.5 -79t63.5 -55.5t97.5 -21q38 0 65.5 24t48 60t37 77.5t33.5 77.5t36 60t45 24q12 0 22 -2.5t15 -18.5q-14 -63 -18.5 -134t-5 -143t0.5 -143.5t-0.5 -134.5t-8.5 -116t-24 -89q-15 -16 -28 -20.5t-22.5 1
t-14.5 20.5t-4 38z" />
    <glyph glyph-name="N" unicode="N" horiz-adv-x="632" 
d="M38 0q1 156 -0.5 268.5t-2.5 190.5t-0.5 125.5t4.5 73t12.5 34t24.5 8.5q12 0 22 -2.5t15 -18.5q28 -54 64 -127.5t79 -151t90.5 -150.5t97.5 -125l66 592q13 45 23.5 68.5t18.5 31t14 2.5t10 -16.5t6.5 -26.5l4.5 -27q0 -10 -1 -21.5t-3.5 -36.5t-7.5 -68.5t-13.5 -117
t-21 -183t-30.5 -265.5q-2 -23 -21 -31.5t-36 -8.5q-28 0 -43 15.5t-33 42.5l-273 434v-490q0 -7 -6 -11t-13.5 -6t-15.5 -2.5t-12 -0.5q-2 0 -9.5 0.5t-9.5 0.5z" />
    <glyph glyph-name="O" unicode="O" horiz-adv-x="538" 
d="M26 241q0 33 7 83t21 105t36 110.5t52 99.5t68.5 71.5t86.5 27.5q41 0 72 -18.5t53.5 -48.5t38 -69t24.5 -80t13 -80.5t4 -70.5q0 -66 -23 -132.5t-65.5 -119.5t-102.5 -86.5t-133 -33.5q-44 0 -73 25.5t-46.5 63t-25 79t-7.5 74.5zM102 240q0 -31 3.5 -61t15 -53
t32.5 -37.5t56 -14.5q31 0 66 15t66 39.5t53.5 55t29.5 61.5q0 7 0.5 24.5t1 37t0.5 37v24.5q0 29 -1 62t-6 65.5t-15.5 62.5t-28.5 53t-45.5 36.5t-66.5 13.5q-22 0 -42.5 -25.5t-38 -65.5t-32.5 -89t-25.5 -96t-16.5 -86t-6 -59z" />
    <glyph glyph-name="P" unicode="P" horiz-adv-x="594" 
d="M66 604q-12 12 -24.5 30t-14.5 36q0 21 19 35t49 23.5t65.5 15t68 8.5t58 3.5t35.5 0.5q33 0 74 -6.5t77 -22.5t60.5 -43t24.5 -67q0 -46 -18 -82t-48 -64t-69 -48t-81 -33t-84.5 -21t-78.5 -11q-12 -35 -17.5 -82t-6 -95t1 -91.5t3.5 -70.5q-2 -3 -7 -6.5t-11 -6.5
t-11.5 -5t-8.5 -1q-6 1 -15.5 6t-18.5 11t-15.5 12t-6.5 9v566zM311 699q-12 0 -34 -0.5t-44 -4t-38 -11.5t-16 -23v-230q22 0 54.5 3.5t68 11.5t71 21t64 32t46 45.5t17.5 60.5q0 29 -23.5 47.5t-54.5 29t-63 14.5t-48 4z" />
    <glyph glyph-name="Q" unicode="Q" horiz-adv-x="604" 
d="M378 76q-29 0 -57 -10t-57 -10q-63 0 -107.5 22.5t-73.5 62t-42.5 92.5t-13.5 113q0 44 6.5 92.5t21 96.5t37.5 91.5t55.5 76.5t75 52.5t96.5 19.5q30 0 61.5 -23.5t62 -61.5t56.5 -86t44.5 -96t27.5 -92.5t4 -75.5q-4 -27 -19.5 -54t-32.5 -54t-30.5 -54t-13.5 -53
q0 -24 8 -43.5t13 -43.5q0 -29 -14 -35.5t-34 -6.5q-22 0 -29 12.5t-11 27.5t-9.5 27.5t-24.5 12.5zM102 358q-3 -44 3 -87t25.5 -75.5t54 -51t88.5 -14.5q8 0 23 -1t30 0t27.5 5.5t14.5 16.5q0 26 -12 49t-27 45.5t-27 45.5t-12 49q0 14 6.5 26t23.5 12q11 0 16.5 -4
t12.5 -16q4 -8 15 -29t23 -45t22.5 -45.5t14.5 -30.5q43 32 60 80t17 99q-1 28 -10 63.5t-25 71t-38.5 69t-49.5 58.5t-58.5 39t-65.5 10q-46 -36 -75.5 -72.5t-46.5 -78t-23.5 -88t-6.5 -101.5z" />
    <glyph glyph-name="R" unicode="R" horiz-adv-x="613" 
d="M105 483q0 16 -0.5 38t-2.5 44.5t-6 43t-11 33.5q-19 -9 -34 -7.5t-23.5 8t-9.5 17t10 19.5q19 30 57 53t85 36t98.5 15.5t98 -7t82.5 -33t53 -61.5q0 -38 -15 -71.5t-40.5 -63t-57.5 -54.5t-65.5 -46t-66.5 -38.5t-59 -31.5q0 -5 22.5 -20t57 -34.5t76 -41.5t80 -42
t68.5 -36t42 -22q40 -19 67 -26t35.5 -12t-4.5 -11.5t-54 -23.5q-57 0 -110.5 17.5t-104 43.5t-99 56.5t-95.5 57.5q-1 -19 1 -47t2 -59t-3 -61.5t-14 -55t-30.5 -39.5t-52.5 -15zM179 453q36 9 79 29t80.5 48.5t62.5 64.5t25 79q-17 28 -48 39.5t-66.5 11.5t-71 -8.5
t-61.5 -18.5v-245z" />
    <glyph glyph-name="S" unicode="S" horiz-adv-x="475" 
d="M36 212q0 20 3.5 38t12.5 31.5t24 21t39 7.5q0 -15 -3.5 -29t-7.5 -27.5t-7.5 -28t-3.5 -29.5q0 -29 13.5 -52t35.5 -38.5t49 -23.5t53 -8q60 16 85.5 39.5t27 53t-16.5 64t-45.5 73t-60 78.5t-60 81t-45.5 81.5t-16 78.5q0 43 30.5 71t74 44t91 22.5t81.5 6.5
q14 0 25.5 -6t11.5 -23t-17.5 -23.5t-44.5 -9.5t-57.5 -6t-57.5 -12t-44.5 -27.5t-17.5 -53.5q0 -10 4 -24.5t24 -49.5t62 -98.5t118 -169.5q24 -46 25 -92.5t-19.5 -84t-60.5 -62t-97 -25.5q-45 -5 -84.5 13t-68 49.5t-43.5 71.5t-12 78z" />
    <glyph glyph-name="T" unicode="T" horiz-adv-x="483" 
d="M170 26q3 83 8 163.5t8.5 161t5 162t-2.5 166.5q-5 1 -19.5 2.5t-33.5 3t-40 4t-38 7.5t-28.5 12t-11.5 18q0 23 17.5 36t37.5 13q51 0 100 -10.5t100 -10.5q50 0 86 1.5t68.5 3.5t67.5 3.5t83 1.5q0 -26 -6.5 -40.5t-19.5 -22t-31 -11t-42 -7.5q-15 -3 -41.5 -3t-56 0.5
t-56.5 0.5t-42 -2q-9 -34 -15.5 -83.5t-10.5 -107t-6.5 -120t-4 -122t-2.5 -112t-2 -91.5q-12 -21 -20.5 -37t-16 -21t-15.5 4t-20 37z" />
    <glyph glyph-name="U" unicode="U" 
d="M396 94q-80 -68 -138.5 -87.5t-99 -3t-65 63t-38.5 111.5t-19 142.5t-6 155.5t0 151.5t0 129.5q3 10 10.5 11t17 -1.5t19.5 -6.5t18 -5q6 -42 6 -103.5t-1 -131t0 -141t9.5 -131.5t26.5 -103t51.5 -57t84 8.5t124.5 92.5q-4 65 -6.5 144t0.5 162.5t13 165t31 150.5
q17 0 33 0.5t24 -19.5q-15 -62 -23.5 -109t-12 -89.5t-4 -87t-0.5 -101.5q0 -52 3.5 -103t8 -102t8.5 -102t4 -103q-19 0 -36 7.5t-28.5 21t-16 31.5t1.5 39z" />
    <glyph glyph-name="V" unicode="V" horiz-adv-x="613" 
d="M28 698q-5 17 4.5 28.5t22.5 11.5q21 0 40.5 -35t38 -89t36.5 -120.5t35 -129.5t34 -115.5t34 -78.5l246 566q6 16 14.5 18.5t22.5 2.5q2 0 9.5 -0.5t15 -2.5t12 -6t1.5 -12l-302 -717q-1 -2 -6 -5.5t-11 -6.5t-12 -5t-9 -2q-2 0 -9.5 7t-8.5 12l-208 679v0z" />
    <glyph glyph-name="W" unicode="W" horiz-adv-x="1057" 
d="M28 660q5 15 16 18t24 3q22 0 37 -33t26.5 -83.5t22 -112t23.5 -118t31.5 -101.5t45.5 -63l227 528q4 10 11 14t15 3t16 -6t14 -11q27 -61 60.5 -129.5t71 -137.5t77 -134t78.5 -120q22 10 35 57.5t27 126.5t33 188t52 243q2 12 9.5 15t16 1.5t17.5 -6.5t14 -10
q0 -73 -11.5 -154t-30 -164.5t-40.5 -165.5t-43 -157q-14 -26 -26.5 -46.5t-26 -28.5t-30 -0.5t-37.5 37.5l-277 468q-41 -120 -73 -207t-57 -147.5t-43.5 -98.5t-33 -60t-25.5 -32.5t-20 -16.5l-37 38q-29 56 -56 131t-51.5 157t-45 164t-36.5 151z" />
    <glyph glyph-name="X" unicode="X" horiz-adv-x="642" 
d="M120 47q10 38 27 65t36 55.5t38 64t33 89.5q-14 15 -37 40t-49 56.5t-52 66.5t-47.5 70t-35 67t-13.5 58h80q10 -38 34 -81t54 -85.5t61.5 -81.5t56.5 -69q20 19 42 52.5t45 73t47 80.5t48 74.5t48.5 54.5t48.5 21q17 0 23.5 -12.5t4.5 -26.5q-11 -18 -31.5 -48
t-45 -66.5t-51 -75.5t-50 -74.5t-41.5 -65.5t-26 -47q5 -17 19.5 -36.5t34 -39t41 -39.5t41 -39.5t33.5 -38t19 -34.5q-16 -21 -31 -28.5t-33 5.5l-162 174q-18 -14 -43 -51t-49.5 -76.5t-45 -70t-30.5 -30.5q-26 0 -34 13t-8 36z" />
    <glyph glyph-name="Y" unicode="Y" horiz-adv-x="604" 
d="M280 -33q-23 0 -36.5 18.5t-11.5 40.5q1 9 7.5 31t15 51t18 61t17.5 60t13 50t4 30q-45 58 -84.5 113.5t-75 112t-66 117t-57.5 128.5q3 10 9.5 14.5t14 5.5t16.5 0.5t17 -1.5q24 -52 51.5 -109t59.5 -112t70 -105.5t83 -88.5q42 104 72 175.5t50.5 118t32.5 71.5
t18.5 37t9 14t3.5 2q42 0 42 -41q0 -3 -1 -10t-1 -8l-283 -774q0 -1 -3 -1.5t-5 -0.5z" />
    <glyph glyph-name="Z" unicode="Z" horiz-adv-x="587" 
d="M38 41q8 10 27 37t40 57t39.5 56.5t25.5 37.5q11 18 33 52.5t48.5 76.5t53.5 88t49 87t35 72.5t11 46.5l-335 -14q-5 1 -11.5 9t-12.5 18t-10 18.5t-4 10.5q0 8 4 12t10 6t12 2h11q38 0 92 1.5t110 2t107.5 -1t83.5 -7.5q25 4 47.5 3t35.5 -8t13 -19.5t-21 -32.5
q-47 -55 -94.5 -124.5t-94 -145t-90.5 -154t-83 -150.5h245q6 12 12 16t17 4q13 0 28 -6.5t28 -17.5t21.5 -24.5t8.5 -27.5q0 -2 -0.5 -9.5t-1.5 -9.5q-16 -1 -50 -2.5t-76.5 -3t-90 -4t-90 -4t-77 -3t-50.5 -2.5h-11q-9 0 -16 6.5t-13 16t-10 19t-6 15.5z" />
    <glyph glyph-name="bracketleft" unicode="[" horiz-adv-x="613" 
d="M88 -126q-3 132 -20.5 261.5t-33.5 258.5t-22.5 258t12.5 259q43 10 94 18.5t103.5 14t102.5 8.5t90 3q0 -33 -18.5 -51.5t-47.5 -27.5t-65.5 -11t-73 -2t-68.5 -1t-53 -7q-3 -42 2 -111t14 -153.5t20.5 -178t21 -184.5t15 -173t3.5 -144q49 -3 98 0t98 7.5t99 8.5t101 3
q10 -3 16 -14t6.5 -23t-5 -23t-17.5 -15q-50 3 -97.5 0t-95 -7.5l-95 -9t-96.5 -4.5q-12 0 -25.5 -0.5t-26 2.5t-22 11.5t-14.5 26.5z" />
    <glyph glyph-name="backslash" unicode="\" horiz-adv-x="679" 
d="M518 151q-13 21 -41 64t-63 97t-74 113.5t-74.5 113t-63.5 96.5t-42 63q-16 24 -43.5 49.5t-53.5 53.5t-45.5 57t-19.5 61q36 0 68 -19t60 -47t51 -60t40 -57l415 -642q8 -13 13.5 -23.5t5.5 -24.5v-8q-2 -3 -7.5 -8.5l-11.5 -11.5t-11.5 -11t-7.5 -7q-40 25 -62.5 65.5
t-32.5 85.5z" />
    <glyph glyph-name="bracketright" unicode="]" horiz-adv-x="575" 
d="M116 -82q0 4 1 15t2 13q20 1 61.5 2.5t88 5.5t88.5 11t64 19v11t0.5 17t0.5 17.5v11.5q-2 40 -8 105t-13.5 140t-17 154.5t-17 147.5t-13.5 119t-8 70l-18 37q-13 1 -45 3.5t-68.5 5.5t-68.5 5.5t-45 4.5q-2 0 -20 1t-39 5.5t-38 14t-17 26.5q0 13 6.5 19.5t16 8.5t20 2
h18.5q43 0 91 -2.5t95.5 -5.5t91 -6.5t77.5 -5.5q27 -119 40.5 -239t23.5 -242t19.5 -245t29.5 -246v-9q-38 -6 -84 -12.5t-92.5 -12.5t-91.5 -9.5t-82 -3.5q-27 0 -38 11.5t-11 35.5z" />
    <glyph glyph-name="asciicircum" unicode="^" horiz-adv-x="566" 
d="M29 528q0 5 -0.5 9.5t0.5 9.5q22 40 51.5 88t57.5 98t50 99t30 92q9 21 29 21q1 0 3 -1.5t10.5 -9.5t26.5 -25.5t50 -49t81 -80t120 -119.5q14 -36 11.5 -53t-15.5 -20.5t-32.5 3.5t-38.5 21q-6 6 -21 21.5t-34 35t-40 42t-39.5 43t-33.5 36t-21 22.5l-170 -302
q-10 -8 -22.5 -13.5t-23.5 -5t-19.5 8.5t-9.5 29z" />
    <glyph glyph-name="a" unicode="a" horiz-adv-x="522" 
d="M26 263q-2 20 3 54.5t16 74t28 80.5t40 74.5t50.5 54t60.5 20.5q65 6 105.5 -25.5t66.5 -86.5l5 -323q0 -22 14 -37.5t34 -25.5t43.5 -14.5t42.5 -4.5l2 -73q-40 0 -65.5 6t-46 20t-39 36t-45.5 54q-12 -22 -29.5 -48t-40 -48t-48 -37t-53.5 -15q-47 0 -75.5 28.5
t-43.5 69.5t-20 86.5t-5 79.5zM99 255q0 -17 3 -47t11.5 -60t24 -52t41.5 -22q29 -3 49 15.5t36 54.5t31 87t33 114q17 82 7.5 129t-34 63.5t-58.5 4t-65 -50t-54 -97.5t-25 -139z" />
    <glyph glyph-name="b" unicode="b" horiz-adv-x="513" 
d="M28 849q5 15 16.5 18t23.5 3t18.5 -3t9.5 -9.5t4 -18t3 -28.5q1 -9 3.5 -29.5t5 -47.5t5.5 -56.5t5.5 -56t4 -47.5t1.5 -30q76 44 135 45.5t101 -26t67.5 -78.5t34.5 -111.5t1.5 -124t-31 -117t-63.5 -90.5t-96 -44q-6 0 -20.5 -1t-33 -2t-38.5 -1.5t-36.5 1.5t-28 6
t-12.5 12zM139 410q0 -41 4 -85t10 -87.5t13 -85t13 -77.5h14.5t22.5 -0.5t23 -0.5h15q44 1 74.5 31t47 75t18.5 98.5t-10.5 102t-39.5 85t-68 47.5q-28 0 -53 -5t-43.5 -16.5t-29.5 -31.5t-11 -50z" />
    <glyph glyph-name="c" unicode="c" horiz-adv-x="396" 
d="M27 348q0 23 2 53.5t8 63.5t16.5 65t27 57t39.5 40.5t55 15.5q30 0 56.5 -11t46 -31t31 -47t11.5 -58q-28 0 -44 11t-29 24.5t-25.5 24.5t-32.5 11q-24 0 -39.5 -12t-25 -31.5t-14.5 -44t-6.5 -49t-1.5 -46.5v-36q0 -22 2.5 -51t9.5 -59.5t18 -59.5t28 -52t40.5 -37
t54.5 -14q16 0 28 6.5t23.5 15t24 15t28.5 6.5q0 -24 -12.5 -46t-31.5 -38t-43 -25.5t-46 -9.5q-35 0 -63.5 19t-50.5 49t-38 68t-26.5 77t-15.5 74.5t-5 61.5z" />
    <glyph glyph-name="d" unicode="d" horiz-adv-x="462" 
d="M18 292q0 39 9.5 90t31 97.5t55.5 78.5t83 32q18 0 32.5 0.5t27 -2.5t24.5 -13t25 -31q5 36 7.5 69t5.5 65.5t7.5 65t13.5 67.5q7 0 18.5 1.5t22.5 0.5t20 -5t13 -14q-7 -16 -11 -56t-6 -95t-2 -119.5t1 -130t3.5 -127t5 -110t5.5 -78.5t5 -33q0 -17 -12.5 -22.5
t-26.5 -5.5q-23 0 -32 12t-4 46q-10 -13 -25.5 -26t-33.5 -24t-37 -18t-36 -7q-51 0 -87.5 30.5t-59 75.5t-33 95.5t-10.5 90.5zM93 298q0 -27 2.5 -65.5t14 -73.5t34.5 -59.5t64 -24.5q51 -3 81.5 27.5t43.5 79t10 105.5t-19 106.5t-43 82.5t-63 34q-38 0 -62 -23.5
t-38 -56.5t-19.5 -69.5t-5.5 -62.5z" />
    <glyph glyph-name="e" unicode="e" horiz-adv-x="489" 
d="M-21 456q0 17 12.5 24t26.5 7q2 0 9.5 -1t9.5 -1q17 -68 30.5 -95t24.5 -32t20 4t18 15q13 53 26 95.5t35.5 72t58 45.5t94.5 16q46 0 77.5 -21t31.5 -71q0 -55 -21.5 -93t-57 -64.5t-79.5 -43.5t-89 -30q0 -5 -0.5 -19t-0.5 -19q6 -71 28 -109.5t51.5 -55t63 -16.5
t62 6.5t47.5 13t20 2.5q5 -13 1 -28t-20.5 -28t-48.5 -21.5t-82 -9.5q-43 0 -73.5 13t-51 35.5t-33 52t-20.5 62.5t-14 66.5t-12 64.5q-29 -22 -52.5 -9.5t-41 41.5t-30 66t-20.5 65zM205 386q0 -8 3.5 -18t15.5 -10q24 0 51 11.5t49.5 29.5t37.5 41.5t15 47.5q0 25 -5 42.5
t-33 17.5q-35 0 -60 -13t-41.5 -35.5t-24.5 -52t-8 -61.5z" />
    <glyph glyph-name="f" unicode="f" horiz-adv-x="431" 
d="M155 367q-2 0 -23.5 -4.5t-47 -8t-46.5 -2t-21 14.5q0 3 2.5 12.5t6 19.5t7 18t5.5 8l113 9q4 37 11.5 80.5t20 87t32.5 83.5t49 70q15 17 29 18t26 -8.5t22 -26.5t17.5 -35t12.5 -35t6 -26q0 -12 -10 -16t-18 -4q-11 1 -18 8t-13.5 14.5t-14 13t-20.5 2.5
q-9 -27 -18 -55t-14.5 -56.5t-5.5 -56.5t8 -56q58 0 114.5 10.5t115.5 10.5q0 -21 -14.5 -35t-37.5 -22.5t-51 -13.5t-54.5 -8t-49 -5t-34.5 -6q-5 -41 -5 -81.5t2.5 -81t4.5 -81t2 -81.5q0 -14 -18.5 -23.5t-50.5 -1.5q-6 40 -6 84v89t-2.5 90t-13.5 87z" />
    <glyph glyph-name="g" unicode="g" horiz-adv-x="393" 
d="M151 -250q3 6 8.5 16.5t12.5 20.5t14 17.5t12 7.5q28 -38 48 -40.5t32.5 16.5t18.5 53.5t6 72.5t-5.5 72t-14.5 52q-15 -5 -26.5 -14l-23 -18t-23.5 -15t-29 -4q-50 0 -81.5 22.5t-49.5 58t-24.5 80t-6.5 88.5q0 16 3 49.5t10.5 74.5t20 84.5t31 79t44.5 58.5t61 23
q42 6 67 1t42 -16t31 -25.5t33 -29.5q2 -10 7 -61.5t9 -126.5t5 -164.5t-5 -175t-20 -158t-41 -114t-67.5 -42.5t-98.5 57zM93 234q0 -22 1.5 -49.5t9 -52t24.5 -41.5t49 -17q17 0 39 7.5t41 20t32 30t13 38.5v296q-44 56 -77 63.5t-56.5 -14.5t-38.5 -64.5t-23.5 -87
t-11.5 -81.5t-2 -48z" />
    <glyph glyph-name="h" unicode="h" horiz-adv-x="496" 
d="M378 38q1 16 1 56v85v85.5t-1 56.5q-9 75 -35.5 109t-65 39.5t-84.5 -11.5t-94 -44l2 -388q-6 -8 -14 -15.5t-17.5 -9.5t-19.5 2t-20 19l8 789q0 11 8 15t18 3t19 -6t12 -12l-4 -323q7 10 34 25.5t64 26t79.5 12t80.5 -16.5q35 -18 56.5 -53t33.5 -78.5t16.5 -91.5
t4.5 -93t-2.5 -83t-4.5 -61l38 -37q-4 -17 -20.5 -26.5t-35 -10.5t-35.5 8t-22 29z" />
    <glyph glyph-name="i" unicode="i" horiz-adv-x="151" 
d="M19 453q-1 10 5.5 14.5t16 5.5t19.5 0t16 -1q15 -52 26 -109.5t18 -116t10.5 -116t3.5 -111.5h-77zM73 764q21 0 30 -10t9 -29q0 -15 -10.5 -24t-24.5 -13.5t-28 -6t-21 -1.5q0 15 0.5 30t4.5 27t13 19.5t27 7.5z" />
    <glyph glyph-name="j" unicode="j" horiz-adv-x="190" 
d="M-47 -198q42 -6 69 -4t42.5 15.5t20 39.5t1.5 68q0 69 -9 136.5t-20 135t-20 134.5t-9 135q0 3 1 9.5t6 12.5t17 8.5t33 -1.5q25 -70 39.5 -145.5t22 -152.5t10 -154.5t4.5 -152.5q0 -36 -3 -64.5t-14 -47.5t-34.5 -29t-63.5 -10q-17 0 -33 2.5t-29 9.5t-21.5 20t-9.5 35
zM-21 742q12 24 24 31.5t32 7.5q28 -10 38.5 -24t8.5 -28t-13.5 -24t-27 -11.5t-32.5 9.5t-30 39z" />
    <glyph glyph-name="k" unicode="k" horiz-adv-x="496" 
d="M61 39q3 83 0 163.5t-7 160.5l-8 160t-4 162q-7 9 -4 26.5t11.5 30t22 14.5t27.5 -20q9 -85 16 -143.5t12 -97t8.5 -59t5.5 -30.5t2.5 -11.5t1.5 -1.5q22 24 35 38t24 25t23.5 24t34 35t54.5 56t86 89l21 -65l-250 -289q5 -20 25.5 -41t49.5 -40.5t63 -38t66.5 -33.5
t59.5 -27.5t42 -19.5q36 -1 48 -11t9 -22.5t-17.5 -23.5t-30.5 -14q-44 0 -96 18.5t-101.5 47.5t-92 66t-68.5 75q1 -6 5.5 -37.5t6.5 -70t-2 -74.5t-19 -51q-21 -21 -35 -10.5t-25 40.5z" />
    <glyph glyph-name="l" unicode="l" horiz-adv-x="189" 
d="M76 19q5 84 -0.5 167t-14 165.5t-16.5 165.5t-8 167q-2 19 -1 35q1 14 5.5 25t15.5 11q4 0 10 -2t12 -5t10.5 -6.5t4.5 -5.5q18 -164 28.5 -282t16 -199t6.5 -129.5t-0.5 -74.5t-4.5 -34.5t-6 -7.5q-2 0 -11 0.5t-19.5 2t-19 3.5t-8.5 4z" />
    <glyph glyph-name="m" unicode="m" horiz-adv-x="811" 
d="M365 466q-44 0 -83 -17t-68.5 -46.5t-46.5 -69t-17 -84.5q0 -25 -1 -53.5t-1 -58t2.5 -59t9.5 -56.5q-4 -12 -13 -21t-20 -12.5t-22.5 0t-20.5 15.5q-3 15 -6.5 51.5t-8.5 83.5t-9.5 99t-9 98.5t-8 83t-4.5 52.5q-1 5 -2 19.5t-2 30.5t-1.5 30.5t-0.5 19.5q39 18 54 11.5
t20.5 -28.5t8.5 -54.5t17 -66.5q22 16 44 38t45.5 42t49.5 33.5t57 13.5q23 6 40.5 0t31 -17.5t23 -26t17.5 -25.5q4 16 19.5 37.5t40 38t56 24t67.5 -4.5q15 0 30.5 -6t29 -16.5t23 -25t11.5 -30.5q2 -15 4.5 -52t5.5 -85t6 -102t5.5 -102.5t5 -85.5t3.5 -52q0 -4 -13 -4
t-29 1.5t-29.5 1.5t-13.5 -4q-12 44 -15 92t-1 95.5t5.5 92.5t3.5 82t-6 64.5t-23 40.5q-20 0 -49 -6.5t-55.5 -18.5t-45.5 -30t-19 -40q0 -41 4 -84t9 -84t9 -78t4 -65t-17.5 -35.5t-43.5 -7.5q-13 0 -22.5 26t-15.5 67t-10 90.5t-6 96.5t-2.5 85.5t-0.5 57.5z" />
    <glyph glyph-name="n" unicode="n" 
d="M28 528q-1 11 8 15.5t22 6t25.5 0t19.5 -2.5q3 -10 7 -26.5t7.5 -35t5 -37t-0.5 -33.5q19 16 43 36t51 37t56 29t58 12q33 0 56 -17t39 -43t24.5 -56t12.5 -55q1 -5 3.5 -24.5t6 -47t7.5 -60.5t8 -65t7.5 -59.5t5.5 -44.5v-11q0 -17 -12 -22.5t-26 -5.5q-12 0 -22.5 2
t-15.5 18q-1 12 -3.5 37t-6 56.5t-8 66.5t-8 66.5t-7 56.5t-5.5 37q-2 14 -7 31t-14 31.5t-22 24.5t-31 10q-29 0 -58 -20t-55 -46t-46.5 -51t-30.5 -36q0 -59 9 -118t11 -122q0 -10 -0.5 -19.5t-4 -18t-11.5 -14.5t-23 -10q-8 -2 -22 5t-15 14l-38 509v0z" />
    <glyph glyph-name="o" unicode="o" horiz-adv-x="415" 
d="M27 169q-4 25 -3.5 65.5t8 86.5t22 92t37.5 81.5t54.5 55t72.5 13.5q61 0 98.5 -18.5t58 -50.5t27.5 -75.5t7 -93.5q5 -33 2 -71.5t-13.5 -76t-28.5 -71t-44.5 -59t-60.5 -39t-76 -9.5q-82 0 -121.5 45.5t-39.5 124.5zM102 206q0 -26 1 -49.5t8.5 -42t24 -29.5t46.5 -11
q40 0 71.5 28t53.5 67.5t34 82.5t12 73q0 49 -11.5 83t-28.5 55t-37.5 30.5t-38.5 11.5q-23 0 -43.5 -19.5t-37 -49t-28.5 -65t-19 -68.5t-9 -59.5t2 -37.5z" />
    <glyph glyph-name="p" unicode="p" horiz-adv-x="414" 
d="M64 434q-5 -11 -11.5 -15t-16.5 -4q-17 0 -27 12t-20 26q22 22 44.5 34.5t41.5 19t33.5 8t22.5 1.5q50 0 96 -7t81.5 -27t57 -55.5t21.5 -91.5q-6 -72 -30.5 -131t-58 -103.5t-73 -74.5t-76.5 -44v-321q0 -5 -10.5 -12t-17.5 -7q-15 0 -25.5 7.5t-17.5 18.5t-10.5 24
t-3.5 25v717zM159 95q34 9 62 34.5t48 59t31.5 70t11.5 68.5q0 34 -15 57.5t-40 37.5t-57 20.5t-66 6.5z" />
    <glyph glyph-name="q" unicode="q" horiz-adv-x="462" 
d="M340 -283q5 91 0.5 180t-19.5 178q-26 -34 -60.5 -50t-75.5 -16q-48 0 -77.5 13.5t-45.5 39t-21 61.5t-5 80q0 54 19.5 109.5t54.5 101.5t84 75t108 29q34 4 56.5 -26t36 -82.5t20 -121.5t8 -142.5t0 -146.5t-3.5 -133t-4 -101t0 -52q1 -20 -9 -27.5t-23.5 -5.5t-26 12
t-16.5 25zM104 207q-5 -68 10.5 -101.5t42 -41t58.5 7.5t60 42.5t47 63.5t19 72q10 91 -9 138.5t-77 47.5q-26 0 -53 -26.5t-49 -63.5t-35.5 -76t-13.5 -63z" />
    <glyph glyph-name="r" unicode="r" horiz-adv-x="380" 
d="M47 19q2 51 3.5 106.5t0.5 112.5t-4.5 113t-10.5 108q0 17 12.5 23.5t26.5 6.5q10 0 17 -4.5t12.5 -10.5t11 -13t14.5 -12q15 17 39.5 27.5t53 15t58.5 4t55.5 -6t43.5 -15.5t24 -23q-12 -27 -24.5 -33.5t-28.5 -4.5t-38 6.5t-54 -1.5q-38 -10 -63.5 -35.5t-40.5 -60.5
t-23 -76.5t-11 -83t-4.5 -79t-3.5 -64.5q-7 0 -17 -3.5t-20 -6t-18 -1.5t-11 11z" />
    <glyph glyph-name="s" unicode="s" horiz-adv-x="340" 
d="M19 132q19 34 29 41.5t15.5 0.5t9 -25t11.5 -35.5t22.5 -30.5t40.5 -10q18 5 32.5 17.5t14.5 25.5q0 32 -15.5 63.5t-34.5 63t-34.5 62.5t-15.5 63q0 23 9.5 57.5t27 66t41.5 54t53 22.5q45 -9 76 -23t46 -29.5t13 -31t-23 -27.5q-37 12 -67.5 18.5t-53 -1t-35 -32
t-12.5 -75.5q0 -33 17.5 -64.5t38 -62.5t38 -63t17.5 -65q0 -27 -15.5 -48t-40 -35.5t-54.5 -22t-58 -7.5q-22 0 -40.5 13t-31.5 32.5t-18.5 43t-2.5 44.5z" />
    <glyph glyph-name="t" unicode="t" horiz-adv-x="547" 
d="M19 377q0 2 -1 9.5t-1 9.5q0 24 12.5 31.5t34.5 7.5t45.5 -6t42.5 -5.5t29.5 14t7.5 53.5q1 9 1 28v43v51v51t-0.5 43.5t-0.5 28.5q3 9 11.5 14.5t18.5 7.5t20 2.5t16 0.5v-343q30 0 58.5 5.5t56.5 12.5t55.5 12.5t56.5 5.5q16 0 31.5 -4t15.5 -25q0 -18 -17 -31.5
t-43 -22.5t-58 -14.5t-62.5 -8.5t-56 -4t-37.5 -1v-324q-2 -11 -13.5 -15.5t-26 -2t-28 11.5t-17.5 25q0 108 -2 168t-5 89.5t-6.5 36.5t-5.5 8q-8 3 -26.5 8.5t-39.5 11.5t-40 11t-26 6z" />
    <glyph glyph-name="u" unicode="u" horiz-adv-x="500" 
d="M217 0q-48 17 -82 54.5t-56.5 86.5t-34.5 106t-14.5 112t2 104t15.5 84q2 0 9.5 1t9.5 1q12 0 22 -2.5t15 -18.5q-4 -51 -5 -92.5t3 -80.5t13.5 -79t26.5 -87q15 -49 35 -69t43 -18t46.5 22t45 50.5t39 67.5t28.5 73.5t14 68t-6 50.5q0 2 -3 10.5t-6 18t-6 18t-3 10.5
q0 11 10 15t18 4q40 -17 54 -60t7.5 -98.5t-30 -115.5t-56.5 -111.5t-73.5 -86t-80.5 -38.5z" />
    <glyph glyph-name="v" unicode="v" horiz-adv-x="509" 
d="M27 475q6 0 16 -1t20.5 -3.5t19 -7t11.5 -10.5l147 -313l155 351q2 3 7 9t11 12t11.5 10.5t8.5 5.5q13 3 20.5 0.5t12 -8.5t6 -13.5t1.5 -14.5q0 -1 -1 -5t-6.5 -18.5t-17 -44t-32.5 -81.5t-54 -131t-80 -193q-2 -5 -9 -12t-10 -7q-24 0 -50.5 31t-53 79.5t-50.5 106
t-42.5 110t-29.5 93.5t-11 55z" />
    <glyph glyph-name="w" unicode="w" horiz-adv-x="830" 
d="M28 509l19 38q17 -1 29.5 -11.5t21.5 -25.5t15 -31t9 -26q4 -11 11.5 -34.5t17 -53.5t20 -62.5t19.5 -62.5t16.5 -54t10.5 -35q6 12 18 37t27 56.5t31.5 66.5t31.5 66.5t26.5 57t16.5 37.5q7 17 9 34t6.5 30.5t15.5 22t35 8.5q15 0 23.5 -11t13 -26t6.5 -31.5t4 -26.5
q3 -16 10.5 -56.5t16.5 -85.5t17.5 -85t11.5 -56q56 83 100 163t70 176q3 0 14 0.5t15 0.5q20 0 34.5 -2.5t31.5 -17.5l-246 -434q-6 -11 -11.5 -15t-16.5 -4q-21 0 -35 21.5t-23.5 53.5t-16 70t-13 71.5t-15 57.5t-20.5 28l-19 -18l-150 -321q-2 -5 -9.5 -12t-9.5 -7
q-14 0 -26.5 7t-20.5 18t-11 24.5t1 25.5z" />
    <glyph glyph-name="x" unicode="x" horiz-adv-x="481" 
d="M94 -1q-12 0 -18 6t-8.5 14.5t-2.5 18.5t1 19q9 18 25.5 47.5t34 60.5t33 57.5t21.5 40.5q0 30 -18.5 60.5t-42 61t-45 61.5t-28.5 63q0 14 6 26.5t23 12.5q20 0 35 -14t27.5 -35t23.5 -46t23.5 -46t27 -35t34.5 -14q19 0 34 12.5t27.5 31.5t24 41t22.5 41t23.5 31.5
t27.5 12.5q22 0 31.5 -9.5t9.5 -24t-6.5 -31t-15.5 -29.5q-6 -9 -22 -30.5t-34 -45.5t-34 -45.5t-23 -29.5q0 -36 17 -63.5t38 -54t39.5 -55t21.5 -65.5q-16 -25 -28 -28t-24 8t-25 32.5t-29 45.5t-36.5 47.5t-48.5 38.5q-12 -14 -29.5 -43.5t-37.5 -60t-40 -55.5t-35 -31z
" />
    <glyph glyph-name="y" unicode="y" horiz-adv-x="574" 
d="M197 -245q18 69 42 134.5t53 138.5q-27 59 -61.5 113t-72 113t-76.5 127.5t-75 157.5q0 16 4 31.5t25 15.5q11 0 16.5 -4.5t11.5 -15.5l265 -415l169 396q5 11 12 15.5t17 4.5q13 -1 20 -9t9.5 -20t2 -24.5t-3.5 -22.5l-283 -736q-2 -5 -9 -12t-10 -7t-11.5 2t-17.5 5
t-16.5 6.5t-10.5 5.5z" />
    <glyph glyph-name="z" unicode="z" horiz-adv-x="538" 
d="M75 -1q-26 0 -40.5 16t-6.5 42l358 434h-226q-23 0 -32 11.5t-9.5 25.5t6.5 25.5t16 12.5h321q31 -5 38 -22t-0.5 -37t-24 -40.5t-32.5 -32.5q-92 -83 -167 -172t-147 -193q30 0 69 4.5t80 10t81 10.5t72 5h24.5t20.5 -3.5t14 -11.5t5 -24q0 -10 -5 -20t-13.5 -18
t-19 -13t-21.5 -5q-44 11 -91 9.5t-93.5 -7t-91.5 -9.5t-85 2z" />
    <glyph glyph-name="braceleft" unicode="{" horiz-adv-x="418" 
d="M322 -185q-67 2 -107 27t-57.5 63.5t-16 88t16.5 101t41.5 101.5t58.5 91q-3 9 -14 13.5t-22.5 9t-21 10.5t-9 19t14.5 34.5t48 56.5q-91 12 -138 48t-59.5 85t3 103.5t49 103.5t80 85t94.5 48q5 -11 13 -19t16 -15t15.5 -13t12.5 -13q-42 -13 -78.5 -32.5t-63 -49
t-41 -71.5t-12.5 -100q0 -29 16 -47t39.5 -29t51.5 -18t51.5 -12.5t39.5 -12.5t16 -19l-9.5 -10t-20.5 -24.5t-20 -31t-8 -30t16 -21t52 -3.5q-35 -53 -61.5 -90.5t-44.5 -74.5t-27.5 -80.5t-9.5 -109.5q3 -36 17.5 -55t33 -29t36 -14t27.5 -10t7 -18t-25 -36z" />
    <glyph glyph-name="bar" unicode="|" horiz-adv-x="225" 
d="M82 -12q-6 94 -8.5 167t-3 131.5t0.5 105t1.5 88.5t1 83t-1 87.5t-5 102.5t-10.5 127q1 24 9.5 41t19.5 20.5t22 -10.5t19 -51q12 -90 16.5 -160t5 -132t-2 -123t-4.5 -133t-1.5 -161t6.5 -208h-16t-19.5 2.5t-18 7.5t-11.5 15z" />
    <glyph glyph-name="braceright" unicode="}" horiz-adv-x="524" 
d="M159 -181q-28 25 -33 38.5t4.5 20.5t28 12t37 14.5t32.5 26.5t14 49q0 65 -9 110.5t-26 84.5t-41 78t-54 92q31 -4 44 3.5t14 21t-6.5 29.5t-17 30.5t-18 24.5l-8.5 10q0 12 13.5 18.5t34.5 12.5t44.5 12.5t44.5 18t34.5 29.5t13.5 46q0 52 -19.5 82t-49 51t-65 41
t-68.5 54l48 66q40 -32 82.5 -75.5t75 -91.5t51 -95.5t11.5 -87.5t-44.5 -67.5t-115.5 -35.5q29 -35 41 -56.5t12.5 -34t-7.5 -18.5t-18 -10.5t-19 -9t-12 -13.5q27 -41 50.5 -91.5t37.5 -103t16 -103t-12.5 -90.5t-48.5 -65.5t-92 -27.5z" />
    <glyph glyph-name="asciitilde" unicode="~" horiz-adv-x="492" 
d="M19 615q8 22 16 50.5t19 54t28 43.5t43 18q6 3 21.5 4t41 -9t61.5 -35t83 -72q31 4 39.5 22t9 40.5t0 45.5t12.5 38l15 -2.5t18.5 -4t17.5 -7t11 -11.5q2 -35 -0.5 -73.5t-14 -70t-35 -50.5t-64.5 -14q-42 21 -67.5 40.5t-44.5 34.5t-38 24t-47 9q-27 -11 -37.5 -23.5
t-13 -24.5t-1 -22t-1.5 -16q-4 0 -14.5 0.5t-22 2t-21.5 3.5t-14 5z" />
    <glyph glyph-name="Euro" unicode="&#x20ac;" horiz-adv-x="670" 
d="M175 221q-8 1 -23 -3.5t-31.5 -9t-32 -6.5t-24.5 4.5t-8.5 23.5t15.5 50q2 4 13.5 10t26 11t27.5 9t18 5l4 125q-5 0 -18.5 2.5t-28.5 5.5t-28.5 6t-18.5 5q-4 2 -11 9t-8 10q-2 5 -3 13l-2 16l-2 18h139q6 38 13.5 83.5t19.5 92.5t30 91t46.5 78.5t68.5 55t95 20.5
q27 0 47.5 -14.5t36 -37.5t26 -52.5t16.5 -58.5t9 -56t3 -46q-32 0 -49.5 14t-26.5 35t-12.5 45.5t-8 45.5t-14 35t-29.5 14q-33 0 -60 -17t-48 -44.5t-36.5 -62t-26 -70t-17 -68t-8.5 -55.5q24 -6 47 -1t45 14t44 17.5t45 8.5q12 0 20 -9t8 -21q0 -14 -15.5 -25.5
t-38.5 -21t-50.5 -17.5t-50.5 -14.5t-38.5 -12.5t-15.5 -12l-4 -101q12 0 40 5.5t56.5 8t51 -2.5t23.5 -26q0 -10 -4.5 -16.5t-15.5 -11.5q-8 -3 -29 -11.5t-45 -17.5t-46 -17t-31 -11q0 -33 2 -68t14 -64t37 -48.5t71 -22.5q42 0 76 20t61 51t47.5 68t35.5 70q1 0 4 0.5
t5 0.5q12 0 21 -8t9 -20q0 -47 -25.5 -90t-64.5 -76t-86 -52.5t-90 -19.5q-62 0 -97 18t-54 49t-26.5 71t-14.5 84z" />
    <glyph glyph-name="sterling" unicode="&#xa3;" horiz-adv-x="954" 
d="M209 332q0 26 -8 40t-21.5 20.5t-30.5 9t-36 5t-38.5 8.5t-36.5 20q7 21 29.5 29t49.5 9t54 -1.5t44 -2.5q0 10 -0.5 30.5t-1.5 47t-2 56t-2 56t-1.5 47.5t0.5 31q2 30 14 60.5t32.5 55t47 40t57.5 15.5q35 -9 69 -32t62 -55t46 -70t21 -77q-24 0 -42 11.5t-32.5 29.5
t-27 38t-25 38t-27.5 29.5t-34 11.5q-17 0 -32.5 -9t-27.5 -23t-19 -30.5t-7 -32.5v-264h232q0 -25 -13 -40t-33.5 -23t-46 -10.5t-51.5 -2.5t-49 1.5t-39 1.5l-29 -211q78 2 135 -10.5t99 -30.5t72 -37t55.5 -31t48.5 -12.5t51.5 19.5t65 64.5t87.5 122.5q0 1 3.5 1.5
t4.5 0.5q12 0 21 -5.5t16 -14.5t10.5 -19.5t3.5 -20.5q0 -4 -0.5 -10.5t-1.5 -7.5l-189 -189q-55 -21 -107.5 -12.5t-104.5 30t-104.5 47t-108.5 39.5q-26 9 -42 -3.5t-24 -33.5t-9.5 -43.5t0.5 -32.5q-2 0 -9.5 -1t-9.5 -1q-5 0 -11.5 0.5t-12.5 2.5t-10 6t-4 12z" />
    <glyph glyph-name="zero" unicode="0" horiz-adv-x="538" 
d="M26 241q0 33 7 83t21 105t36 110.5t52 99.5t68.5 71.5t86.5 27.5q41 0 72 -18.5t53.5 -48.5t38 -69t24.5 -80t13 -80.5t4 -70.5q1 -84 -22 -154t-65.5 -119.5t-103 -75.5t-133.5 -23q-44 0 -73 25.5t-46.5 63t-25 79t-7.5 74.5zM102 240q0 -31 3.5 -61t15 -53t32.5 -37.5
t56 -14.5q51 4 97 31.5t79 69t49.5 92t9.5 100.5q-8 58 -14 105t-20.5 83.5t-42 63.5t-78.5 45q-22 0 -44 -26t-43 -66t-39 -89.5t-31.5 -96.5t-21.5 -86.5t-8 -59.5z" />
    <glyph glyph-name="quotedbl" unicode="&#x22;" horiz-adv-x="237" 
d="M17 940q0 10 3.5 15.5t16.5 12.5q3 -2 10 -9t9 -10q19 -45 29.5 -80.5t15 -71t5 -75.5t0.5 -94h-31q-1 30 -10.5 71.5t-20 85t-19 84.5t-8.5 71zM125 962q-6 39 1 47.5t17 2t18.5 -20.5t6.5 -21l2.5 -25t5.5 -62.5t7.5 -81.5t7.5 -81.5t5.5 -63l2.5 -25.5
q0 -11 -2.5 -15.5t-16.5 -11.5l-19 19z" />
    <glyph glyph-name="grave" unicode="`" horiz-adv-x="319" 
d="M91 923l207 -151q1 0 1.5 -3.5t0.5 -5.5q0 -17 -14.5 -29t-24.5 -19q-15 12 -39.5 32.5t-52 41t-54 37t-43.5 21.5z" />
    <glyph glyph-name="underscore" unicode="_" horiz-adv-x="943" 
d="M38 75q111 -3 220.5 0.5t217.5 8t216.5 9t218.5 4.5q0 -30 -12.5 -45.5t-32.5 -22t-44 -8t-48 -2.5q-7 -1 -27.5 -2t-47.5 -3t-57.5 -4.5t-57.5 -4.5t-47.5 -3.5t-26.5 -1.5h-9h-10q-24 1 -56 2.5t-67 3t-72 3t-71 3.5q-81 4 -168 7l-38 38z" />
    <glyph glyph-name="exclam" unicode="!" horiz-adv-x="212" 
d="M90 75q7 -6 14 -17t10.5 -22t2.5 -21t-8 -14t-22.5 -0.5t-40.5 18.5q0 9 5 17.5t12 16t14.5 13.5t12.5 9zM90 949q7 22 17.5 31t20 8.5t17 -7t10.5 -15.5q-5 -89 -4 -185.5t0.5 -195.5t-5 -198t-20.5 -193q-2 -18 -9.5 -27t-16.5 -9.5t-16.5 7.5t-9.5 24q1 88 3.5 174
t5 177.5t4.5 191.5t3 217z" />
    <glyph glyph-name="quotesinglbase" unicode="&#x201a;" horiz-adv-x="160" 
d="M60 -22q0 2 3 10.5t6.5 18t6.5 17.5t3 10q0 1 0.5 12t0.5 16q0 51 -18.5 102.5t-39.5 96.5q11 20 28 20q24 0 40.5 -27t27 -64t15.5 -75.5t5 -62.5q0 -12 -0.5 -28t-5 -30.5t-14.5 -25t-30 -10.5q-8 0 -18 4.5t-10 15.5z" />
    <glyph glyph-name="quotedblright" unicode="&#x201d;" horiz-adv-x="237" 
d="M17 940q0 10 3.5 15.5t16.5 12.5q3 -2 10 -9t9 -10q19 -45 29.5 -80.5t15 -71t5 -75.5t0.5 -94h-31q-1 30 -10.5 71.5t-20 85t-19 84.5t-8.5 71zM125 962q-6 39 1 47.5t17 2t18.5 -20.5t6.5 -21l2.5 -25t5.5 -62.5t7.5 -81.5t7.5 -81.5t5.5 -63l2.5 -25.5
q0 -11 -2.5 -15.5t-16.5 -11.5l-19 19z" />
    <glyph glyph-name="quotedblleft" unicode="&#x201c;" horiz-adv-x="237" 
d="M17 940q0 10 3.5 15.5t16.5 12.5q3 -2 10 -9t9 -10q19 -45 29.5 -80.5t15 -71t5 -75.5t0.5 -94h-31q-1 30 -10.5 71.5t-20 85t-19 84.5t-8.5 71zM125 962q-6 39 1 47.5t17 2t18.5 -20.5t6.5 -21l2.5 -25t5.5 -62.5t7.5 -81.5t7.5 -81.5t5.5 -63l2.5 -25.5
q0 -11 -2.5 -15.5t-16.5 -11.5l-19 19z" />
    <glyph glyph-name="quoteleft" unicode="&#x2018;" horiz-adv-x="160" 
d="M57 491q0 2 3 10.5t6.5 18t6.5 17.5t3 10q0 1 0.5 12t0.5 16q0 51 -18.5 102.5t-39.5 96.5q11 20 28 20q24 0 40.5 -27t27 -64t15.5 -75.5t5 -62.5q0 -12 -0.5 -28t-5 -30.5t-14.5 -25t-30 -10.5q-8 0 -18 4.5t-10 15.5z" />
    <glyph glyph-name="quoteright" unicode="&#x2019;" horiz-adv-x="160" 
d="M57 491q0 2 3 10.5t6.5 18t6.5 17.5t3 10q0 1 0.5 12t0.5 16q0 51 -18.5 102.5t-39.5 96.5q11 20 28 20q24 0 40.5 -27t27 -64t15.5 -75.5t5 -62.5q0 -12 -0.5 -28t-5 -30.5t-14.5 -25t-30 -10.5q-8 0 -18 4.5t-10 15.5z" />
    <glyph glyph-name="endash" unicode="&#x2013;" horiz-adv-x="384" 
d="M47 364q-2 1 -1 9t3 17t4.5 17t2.5 11q64 1 95 1.5t45 0.5t18 -1t13 -1.5t30.5 -1.5t70.5 -1q16 -3 24.5 -6.5t12.5 -10.5t5 -19t1 -30q-51 6 -79.5 8.5t-46.5 3t-30.5 -0.5t-31.5 -1t-50.5 0.5t-85.5 4.5z" />
    <glyph glyph-name="emdash" unicode="&#x2014;" horiz-adv-x="712" 
d="M47 364q-2 1 -5.5 6.5t-6.5 11.5t-5 11.5t-2 8.5q0 9 5.5 13t13 5.5t14.5 1.5h11q67 -8 114.5 -9t85 0.5t69.5 4t67.5 2.5t80 -4t106.5 -15q16 -3 29 -6t23 -9t15.5 -17t5.5 -29q-77 9 -152.5 12t-152.5 3.5t-155.5 1.5t-160.5 7z" />
    <glyph glyph-name="circumflex" unicode="&#x2c6;" horiz-adv-x="566" 
d="M67 748q0 5 -0.5 9.5t0.5 9.5q22 40 45.5 71.5t44 61.5t36.5 62.5t24 75.5q9 21 29 21q1 0 -3.5 5.5t-5.5 7.5t5.5 -3t28.5 -26.5t64.5 -63t113.5 -112.5q14 -36 11.5 -53t-15.5 -20.5t-32.5 3.5t-38.5 21q-10 9 -23.5 23t-27.5 29.5t-27.5 30t-22.5 24.5l-131 -196
q-10 -8 -22.5 -13.5t-23.5 -5t-19.5 8.5t-9.5 29z" />
    <glyph glyph-name="acute" unicode="&#xb4;" horiz-adv-x="319" 
d="M294 843q-19 -5 -48 -21.5t-59.5 -37t-58.5 -41t-44 -32.5q-5 3 -12.5 8t-14.5 11t-11.5 13.5t-4.5 15.5q0 2 0.5 5.5t1.5 3.5l230 151z" />
    <glyph glyph-name="tilde" unicode="&#x2dc;" horiz-adv-x="492" 
d="M19 615q8 22 16 50.5t19 54t28 43.5t43 18q6 3 21.5 4t41 -9t61.5 -35t83 -72q31 4 39.5 22t9 40.5t0 45.5t12.5 38l15 -2.5t18.5 -4t17.5 -7t11 -11.5q2 -35 -0.5 -73.5t-14 -70t-35 -50.5t-64.5 -14q-42 21 -67.5 40.5t-44.5 34.5t-38 24t-47 9q-27 -11 -37.5 -23.5
t-13 -24.5t-1 -22t-1.5 -16q-4 0 -14.5 0.5t-22 2t-21.5 3.5t-14 5z" />
    <glyph glyph-name="quotedblbase" unicode="&#x201e;" horiz-adv-x="237" 
d="M19 250q0 10 3.5 15.5t16.5 12.5q3 -2 10 -9t9 -10q19 -45 29.5 -80.5t15 -71t5 -75.5t0.5 -94h-31q-1 30 -10.5 71.5t-20 85t-19 84.5t-8.5 71zM127 272q-6 39 1 47.5t17 2t18.5 -20.5t6.5 -21l2.5 -25t5.5 -62.5t7.5 -81.5t7.5 -81.5t5.5 -63l2.5 -25.5
q0 -11 -2.5 -15.5t-16.5 -11.5l-19 19z" />
    <glyph glyph-name="florin" unicode="&#x192;" horiz-adv-x="431" 
d="M155 367q-2 0 -23.5 -4.5t-47 -8t-46.5 -2t-21 14.5q0 3 2.5 12.5t6 19.5t7 18t5.5 8l113 9q4 37 11.5 80.5t20 87t32.5 83.5t49 70q15 17 29 18t26 -8.5t22 -26.5t17.5 -35t12.5 -35t6 -26q0 -12 -10 -16t-18 -4q-11 1 -18 8t-13.5 14.5t-14 13t-20.5 2.5
q-9 -27 -18 -55t-14.5 -56.5t-5.5 -56.5t8 -56q58 0 114.5 10.5t115.5 10.5q0 -21 -14.5 -35t-37.5 -22.5t-51 -13.5t-54.5 -8t-49 -5t-34.5 -6q-3 -27 -4 -70.5t-0.5 -95t2 -107t3 -106.5t2.5 -94.5t1 -70.5q5 -13 -7 -18.5t-33 -6.5t-47 1.5t-48.5 7t-38 9t-15.5 7.5
q-1 14 5.5 29t6.5 32q0 10 16.5 3.5t36.5 -16t36.5 -15.5t16.5 5v80t-1 97t-2.5 102t-3.5 96t-5.5 79.5t-7.5 51.5z" />
    <glyph glyph-name="dagger" unicode="&#x2020;" horiz-adv-x="512" 
d="M-13 709q-2 1 -5.5 6.5t-6.5 11.5t-5 11.5t-2 8.5q0 9 5.5 13t13 5.5t14.5 1.5h11q41 -5 72 -8t55 -4.5t42.5 -2t33.5 -0.5q-9 121 -18.5 242.5t-20.5 250.5v12q0 17 13 22.5t27 5.5q24 0 28 -12.5t7 -46.5q12 -119 24 -237.5t23 -239.5q26 -3 62 -8t93 -16q16 -3 29 -6
t23 -9t15.5 -17t5.5 -29q-64 8 -118 13t-105 10q14 -175 23 -347.5t9 -345.5h-16t-19.5 2.5t-18 7.5t-11.5 15q-14 183 -26.5 348.5t-24.5 325.5q-52 4 -108 7.5t-124 8.5z" />
    <glyph glyph-name="ellipsis" unicode="&#x2026;" horiz-adv-x="426" 
d="M30 82q7 0 21 0.5t28 -2.5t24.5 -10.5t10.5 -22.5q0 -7 -1.5 -15.5t-4.5 -16t-8.5 -12.5t-14.5 -5q-15 0 -25 9t-17 22t-10 27.5t-3 25.5zM172 82q7 0 21 0.5t28 -2.5t24.5 -10.5t10.5 -22.5q0 -7 -1.5 -15.5t-4.5 -16t-8.5 -12.5t-14.5 -5q-15 0 -25 9t-17 22t-10 27.5
t-3 25.5zM314 82q7 0 21 0.5t28 -2.5t24.5 -10.5t10.5 -22.5q0 -7 -1.5 -15.5t-4.5 -16t-8.5 -12.5t-14.5 -5q-15 0 -25 9t-17 22t-10 27.5t-3 25.5z" />
    <glyph glyph-name="daggerdbl" unicode="&#x2021;" horiz-adv-x="512" 
d="M418 695q15 -5 18 -16t3 -23q0 -10 -10.5 -17.5t-28.5 -12.5t-41.5 -8t-49.5 -4q12 -156 19 -310.5t7 -309.5h-16t-19.5 2.5t-18 7.5t-11.5 15q-13 161 -23.5 306t-21.5 287q-39 0 -70 1t-42 1q-12 21 -8 34.5t20 22t40.5 12t54.5 5.5l-4 54t-4 53q-35 -2 -64 -4t-41 -3
q-15 7 -18 18.5t1.5 22.5t14.5 20.5t21 13.5q10 1 32 2.5t48 3.5q-8 92 -15 185t-15 191v12q0 17 13 22.5t27 5.5q24 0 28 -12.5t7 -46.5q9 -88 18 -175.5t17 -176.5q35 2 63 4.5t41 3.5h11q17 0 23 -12.5t6 -26.5q0 -12 -5.5 -19t-14 -10.5t-19 -4.5t-20.5 -2t-31 -2.5
t-47 -3.5q3 -28 5.5 -55.5t4.5 -55.5q32 0 62 0.5t53 4.5z" />
    <glyph glyph-name="caron" unicode="&#x2c7;" horiz-adv-x="566" 
d="M50 965q1 12 9 16.5t18 4.5t21.5 -3.5t20.5 -7.5l157 -172q9 6 33.5 22.5t53 35.5t53.5 35t34 21q18 8 36 12.5t29.5 2t14 -12t-10.5 -30.5q-65 -40 -110 -68t-75 -46t-46.5 -27.5t-24.5 -14t-10 -5.5l-2 -1q-18 0 -27 12q-7 24 -27.5 52t-46 56.5t-53 56t-47.5 50.5
q-1 3 -0.5 5.5t0.5 5.5z" />
    <glyph glyph-name="dotlessi" unicode="&#x131;" horiz-adv-x="151" 
d="M19 453q-1 10 5.5 14.5t16 5.5t19.5 0t16 -1q15 -52 26 -109.5t18 -116t10.5 -116t3.5 -111.5h-77l-38 434v0z" />
    <glyph glyph-name="hungarumlaut" unicode="&#x2dd;" horiz-adv-x="435" 
d="M262 903q-19 -5 -48 -21.5t-59.5 -37t-58.5 -41t-44 -32.5q-5 3 -12.5 8t-14.5 11t-11.5 13.5t-4.5 15.5q0 2 0.5 5.5t1.5 3.5l230 151zM410 843q-19 -5 -48 -21.5t-59.5 -37t-58.5 -41t-44 -32.5q-5 3 -12.5 8t-14.5 11t-11.5 13.5t-4.5 15.5q0 2 0.5 5.5t1.5 3.5
l230 151z" />
    <glyph glyph-name="breve" unicode="&#x2d8;" horiz-adv-x="604" 
d="M142 930q1 12 9 16.5t18 4.5t21.5 -3.5t20.5 -7.5q45 -39 77.5 -57t55.5 -21.5t38.5 3.5t25.5 17.5t16.5 21t12.5 13.5q18 8 36 12.5t29.5 2t14 -12t-10.5 -30.5q-55 -51 -94.5 -73.5t-69 -25.5t-53 10t-45.5 33.5t-46 44t-56 41.5q-1 3 -0.5 5.5t0.5 5.5z" />
    <glyph glyph-name="dotaccent" unicode="&#x2d9;" horiz-adv-x="142" 
d="M35 854q7 0 21 0.5t28 -2.5t24.5 -10.5t10.5 -22.5q0 -7 -1.5 -15.5t-4.5 -16t-8.5 -12.5t-14.5 -5q-15 0 -25 9t-17 22t-10 27.5t-3 25.5z" />
    <glyph glyph-name="ring" unicode="&#x2da;" horiz-adv-x="332" 
d="M35 717q0 34 22 55.5t55 34.5q20 8 48 -3t54 -30.5t45.5 -43.5t22.5 -43q4 -26 -8.5 -47t-33 -36t-45 -23t-45.5 -8q-38 0 -60.5 15.5t-34.5 37.5t-16 47t-4 44zM125 751q-32 -36 -34.5 -57t9.5 -33t31 -18.5t30 -13.5q9 0 19.5 1t19.5 4.5t15.5 11.5t9.5 22
q3 18 -6 33.5t-25 26.5t-34.5 17t-34.5 6z" />
    <glyph glyph-name="ogonek" unicode="&#x2db;" horiz-adv-x="462" 
d="M423 -95q0 -24 -14 -36t-35.5 -16.5t-46 -4.5h-43.5q-38 0 -60.5 15.5t-34.5 37.5t-16 47t-4 44q0 34 22 55.5t55 34.5q11 4 16.5 -0.5t8 -13.5t1.5 -19.5t-3 -18.5t-5 -10t-5 6q-25 -30 -29 -52t5 -37.5t27.5 -24t38.5 -12t38 -2t27 7.5z" />
    <glyph glyph-name="fraction" unicode="&#x2044;" horiz-adv-x="566" 
d="M8 28q0 2 0.5 5.5t0.5 4.5l487 842q12 -6 27 -18t15 -22q0 -2 -0.5 -5.5t-0.5 -4.5l-471 -830q0 -1 -6.5 -2t-9.5 -1q-15 0 -28.5 7t-13.5 24z" />
    <glyph glyph-name="Lslash" unicode="&#x141;" horiz-adv-x="315" 
d="M-22 295q-13 1 -18 9t-3.5 17t9.5 17t21 11q27 7 34 9.5t6.5 3l-1 1t12.5 3t46 9.5t100 22q8 1 20.5 2t24 1t20 -1.5t9.5 -6.5t-7.5 -15t-31.5 -25q-48 -14 -76.5 -22.5t-45.5 -13.5t-26.5 -7.5t-20 -4t-27 -3.5t-46.5 -6zM24 75q4 53 8 114.5t8.5 127.5t8.5 133.5
t5.5 131.5t1.5 122.5t-4 107.5q-2 24 9 44t26 26.5t29.5 -4.5t20.5 -49q7 -45 3 -125.5t-12.5 -179t-18 -205.5t-14.5 -206l236 -13q15 1 24.5 -10.5t12 -26t-2.5 -28t-20 -17.5q-28 11 -66 12.5t-78 0t-77 -3.5t-63.5 0.5t-37.5 13t1 34.5z" />
    <glyph glyph-name="lslash" unicode="&#x142;" horiz-adv-x="189" 
d="M-22 295q-13 1 -18 9t-3.5 17t9.5 17t21 11q27 7 34 9.5t6.5 3l-1 1t12.5 3t46 9.5t100 22q8 1 20.5 2t24 1t20 -1.5t9.5 -6.5t-7.5 -15t-31.5 -25q-48 -14 -76.5 -22.5t-45.5 -13.5t-26.5 -7.5t-20 -4t-27 -3.5t-46.5 -6zM76 19q5 84 -0.5 167t-14 165.5t-16.5 165.5
t-8 167q-2 19 -1 35q1 14 5.5 25t15.5 11q4 0 10 -2t12 -5t10.5 -6.5t4.5 -5.5q18 -164 28.5 -282t16 -199t6.5 -129.5t-0.5 -74.5t-4.5 -34.5t-6 -7.5q-2 0 -11 0.5t-19.5 2t-19 3.5t-8.5 4z" />
    <glyph glyph-name="Zcaron" unicode="&#x17d;" horiz-adv-x="587" 
d="M38 41q8 10 27 37t40 57t39.5 56.5t25.5 37.5q11 18 33 52.5t48.5 76.5t53.5 88t49 87t35 72.5t11 46.5l-335 -14q-5 1 -11.5 9t-12.5 18t-10 18.5t-4 10.5q0 8 4 12t10 6t12 2h11q38 0 92 1.5t110 2t107.5 -1t83.5 -7.5q25 4 47.5 3t35.5 -8t13 -19.5t-21 -32.5
q-47 -55 -94.5 -124.5t-94 -145t-90.5 -154t-83 -150.5h245q6 12 12 16t17 4q13 0 28 -6.5t28 -17.5t21.5 -24.5t8.5 -27.5q0 -2 -0.5 -9.5t-1.5 -9.5q-16 -1 -50 -2.5t-76.5 -3t-90 -4t-90 -4t-77 -3t-50.5 -2.5h-11q-9 0 -16 6.5t-13 16t-10 19t-6 15.5zM44 965
q1 12 9 16.5t18 4.5t21.5 -3.5t20.5 -7.5l157 -172q9 6 33.5 22.5t53 35.5t53.5 35t34 21q18 8 36 12.5t29.5 2t14 -12t-10.5 -30.5q-65 -40 -110 -68t-75 -46t-46.5 -27.5t-24.5 -14t-10 -5.5l-2 -1q-18 0 -27 12q-7 24 -27.5 52t-46 56.5t-53 56t-47.5 50.5q-1 3 -0.5 5.5
t0.5 5.5z" />
    <glyph glyph-name="zcaron" unicode="&#x17e;" horiz-adv-x="538" 
d="M75 -1q-26 0 -40.5 16t-6.5 42l358 434h-226q-23 0 -32 11.5t-9.5 25.5t6.5 25.5t16 12.5h321q31 -5 38 -22t-0.5 -37t-24 -40.5t-32.5 -32.5q-92 -83 -167 -172t-147 -193q30 0 69 4.5t80 10t81 10.5t72 5h24.5t20.5 -3.5t14 -11.5t5 -24q0 -10 -5 -20t-13.5 -18
t-19 -13t-21.5 -5q-44 11 -91 9.5t-93.5 -7t-91.5 -9.5t-85 2zM19 965q1 12 9 16.5t18 4.5t21.5 -3.5t20.5 -7.5l157 -172q9 6 33.5 22.5t53 35.5t53.5 35t34 21q18 8 36 12.5t29.5 2t14 -12t-10.5 -30.5q-65 -40 -110 -68t-75 -46t-46.5 -27.5t-24.5 -14t-10 -5.5l-2 -1
q-18 0 -27 12q-7 24 -27.5 52t-46 56.5t-53 56t-47.5 50.5q-1 3 -0.5 5.5t0.5 5.5z" />
    <glyph glyph-name="guilsinglleft" unicode="&#x2039;" horiz-adv-x="547" 
d="M462 155q-19 6 -57 7t-85 0.5t-97.5 -0.5t-93.5 4.5t-74 15t-38 30.5l4.5 4.5l10.5 10.5l12.5 12.5t10.5 9.5q12 10 37 31t56.5 47t66.5 55t66.5 55t56.5 46t37 30q20 16 41.5 20t45.5 4q0 -25 -18.5 -51.5t-47.5 -54t-65 -54.5t-71 -53t-64.5 -50t-46.5 -44h302
q2 2 7 5.5t11 6.5t11.5 5t8.5 2q9 0 13 -6.5t5.5 -14.5t1.5 -16v-12q0 -23 -10 -34t-37 -11z" />
    <glyph glyph-name="OE" unicode="&#x152;" horiz-adv-x="948" 
d="M23 229q0 33 7 83t21 105t36 110.5t52 99.5t68.5 71.5t86.5 27.5q41 0 72 -18.5t53.5 -48.5t38 -69t24.5 -80t13 -80.5t4 -70.5q0 -66 -23 -132.5t-65.5 -119.5t-102.5 -86.5t-133 -33.5q-44 0 -73 25.5t-46.5 63t-25 79t-7.5 74.5zM99 228q0 -31 3.5 -61t15 -53
t32.5 -37.5t56 -14.5q31 0 66 15t66 39.5t53.5 55t29.5 61.5q0 7 0.5 24.5t1 37t0.5 37v24.5q0 29 -1 62t-6 65.5t-15.5 62.5t-28.5 53t-45.5 36.5t-66.5 13.5q-22 0 -42.5 -25.5t-38 -65.5t-32.5 -89t-25.5 -96t-16.5 -86t-6 -59zM447 743q2 8 33.5 16t79 14.5t103.5 11.5
t107 8.5t89.5 5.5t51.5 2q10 0 22 -1t21.5 -4.5t16 -11t6.5 -20.5q0 -20 -19 -30.5t-51 -15t-72.5 -4.5t-83.5 0.5t-85 0.5t-76.5 -4.5t-57.5 -14t-28 -28.5q3 -12 1.5 -32.5t-4 -44.5t-3.5 -50t3 -50q27 -2 62.5 -1.5t73.5 1.5t75.5 2.5t67.5 2.5q0 -31 -9.5 -48t-47.5 -28
q-14 -3 -45 -4t-66 -1t-66 -0.5t-45 -1.5q1 -42 2 -88.5t0 -90t-3.5 -80t-7.5 -59.5q22 2 52 1.5t64 -2t70 -2t68.5 0.5t60 5.5t45.5 14.5q39 0 39 -27q1 -5 -1.5 -12.5t-6.5 -15t-7.5 -13.5t-4.5 -7l-377 -38q-8 -1 -18.5 4.5t-19.5 14.5t-15 19t-4 19z" />
    <glyph glyph-name="bullet" unicode="&#x2022;" horiz-adv-x="220" 
d="M45 333q7 17 25.5 25.5t37 5.5t33 -17.5t14.5 -44.5q0 -7 -3 -19.5t-8 -24.5t-12 -20.5t-16 -8.5q-22 1 -37.5 13t-24.5 28.5t-11.5 34t2.5 28.5z" />
    <glyph glyph-name="periodcentered" unicode="&#xb7;" horiz-adv-x="164" 
d="M45 333q7 17 22.5 26t31.5 7t27.5 -16t11.5 -44q0 -7 -1.5 -16t-5 -16.5t-9 -13t-14.5 -5.5q-22 1 -36.5 9t-22 20t-8.5 25t4 24z" />
    <glyph glyph-name="trademark" unicode="&#x2122;" horiz-adv-x="1219" 
d="M170 26q3 83 8 163.5t8.5 161t5 162t-2.5 166.5q-5 1 -19.5 2.5t-33.5 3t-40 4t-38 7.5t-28.5 12t-11.5 18q0 23 17.5 36t37.5 13q51 0 100 -10.5t100 -10.5q50 0 86 1.5t68.5 3.5t67.5 3.5t83 1.5q0 -26 -6.5 -40.5t-19.5 -22t-31 -11t-42 -7.5q-15 -3 -41.5 -3t-56 0.5
t-56.5 0.5t-42 -2q-9 -34 -15.5 -83.5t-10.5 -107t-6.5 -120t-4 -122t-2.5 -112t-2 -91.5q-12 -21 -20.5 -37t-16 -21t-15.5 4t-20 37zM1057 65q8 68 14 130.5t10.5 124t6 125t0.5 134.5q-34 -68 -87 -110t-130 -42q-33 0 -70.5 6.5t-71 22t-59 41t-35.5 63.5l-48 -513
q-2 -26 -10 -32.5t-25 -6.5q-14 0 -27 5.5t-13 22.5v11q1 23 5 73.5t9 114.5t10 134.5t10 134.5t8.5 114t5.5 74q-3 15 1 23t11.5 11.5t17 4.5t17.5 1q4 0 14.5 -0.5t13.5 -1.5q21 -46 39.5 -90.5t44.5 -79t63.5 -55.5t97.5 -21q38 0 65.5 24t48 60t37 77.5t33.5 77.5t36 60
t45 24q12 0 22 -2.5t15 -18.5q-14 -63 -18.5 -134t-5 -143t0.5 -143.5t-0.5 -134.5t-8.5 -116t-24 -89q-15 -16 -28 -20.5t-22.5 1t-14.5 20.5t-4 38z" />
    <glyph glyph-name="scaron" unicode="&#x161;" horiz-adv-x="340" 
d="M19 132q19 34 29 41.5t15.5 0.5t9 -25t11.5 -35.5t22.5 -30.5t40.5 -10q18 5 32.5 17.5t14.5 25.5q0 32 -15.5 63.5t-34.5 63t-34.5 62.5t-15.5 63q0 23 9.5 57.5t27 66t41.5 54t53 22.5q45 -9 76 -23t46 -29.5t13 -31t-23 -27.5q-37 12 -67.5 18.5t-53 -1t-35 -32
t-12.5 -75.5q0 -33 17.5 -64.5t38 -62.5t38 -63t17.5 -65q0 -27 -15.5 -48t-40 -35.5t-54.5 -22t-58 -7.5q-22 0 -40.5 13t-31.5 32.5t-18.5 43t-2.5 44.5zM1 888q1 12 9 16.5t18 4.5t21.5 -3.5t20.5 -7.5l157 -172q9 6 33.5 22.5t53 35.5t53.5 35t34 21q18 8 36 12.5
t29.5 2t14 -12t-10.5 -30.5q-65 -40 -110 -68t-75 -46t-46.5 -27.5t-24.5 -14t-10 -5.5l-2 -1q-18 0 -27 12q-7 24 -27.5 52t-46 56.5t-53 56t-47.5 50.5q-1 3 -0.5 5.5t0.5 5.5z" />
    <glyph glyph-name="guilsinglright" unicode="&#x203a;" 
d="M96 114v14.5t2 5.5t6 5t12 12q15 20 41.5 43t56.5 47t60.5 47.5t55.5 44t40.5 37t15.5 26.5l-339 113q-20 7 -20 29q0 21 16 25.5t33 4.5q21 0 41 -6t39.5 -15t39.5 -19.5t40 -18.5q9 -3 28 -9t43 -13.5t51 -15.5t51 -15.5t43.5 -13.5t28.5 -8q27 -20 19.5 -45.5
t-36.5 -54t-72.5 -60.5t-89.5 -65.5t-87.5 -67.5t-66.5 -68q-23 0 -37.5 7.5t-14.5 33.5z" />
    <glyph glyph-name="oe" unicode="&#x153;" horiz-adv-x="904" 
d="M79 195q-5 25 -4 65.5t8.5 86.5t22 92t37.5 81.5t54.5 55t72.5 13.5q74 0 114.5 -27t57.5 -73q11 24 25.5 42.5t35 31t48.5 19.5t66 7q46 0 77.5 -21t31.5 -71q0 -55 -21.5 -93t-57 -64.5t-79.5 -43.5t-89 -30q0 -5 -0.5 -19t-0.5 -19q6 -71 28 -109.5t51.5 -55t63 -16.5
t62 6.5t47.5 13t20 2.5q5 -13 1 -28t-20.5 -28t-48.5 -21.5t-82 -9.5q-42 0 -71.5 12.5t-50 33.5t-33.5 49t-21 60q-28 -52 -73.5 -84.5t-110.5 -27.5q-82 0 -121.5 45.5t-39.5 124.5zM154 232q0 -26 1 -49.5t8.5 -42t24 -29.5t46.5 -11q32 0 58.5 18.5t47.5 47t35 62.5
t22 66l6 66q0 2 0.5 3.5t0.5 3.5q-2 45 -13.5 75.5t-28.5 49.5t-36.5 28t-36.5 11q-23 0 -43.5 -19.5t-37 -49t-28.5 -65t-19 -68.5t-9 -59.5t2 -37.5zM478 369q0 -8 3.5 -18t15.5 -10q24 0 51 11.5t49.5 29.5t37.5 41.5t15 47.5q0 25 -5 42.5t-33 17.5q-35 0 -60 -13
t-41.5 -35.5t-24.5 -52t-8 -61.5z" />
    <glyph glyph-name="dieresis" unicode="&#xa8;" horiz-adv-x="406" 
d="M108 768q7 0 21 0.5t28 -2.5t24.5 -10.5t10.5 -22.5q0 -7 -1.5 -15.5t-4.5 -16t-8.5 -12.5t-14.5 -5q-15 0 -25 9t-17 22t-10 27.5t-3 25.5zM250 768q7 0 21 0.5t28 -2.5t24.5 -10.5t10.5 -22.5q0 -7 -1.5 -15.5t-4.5 -16t-8.5 -12.5t-14.5 -5q-15 0 -25 9t-17 22
t-10 27.5t-3 25.5z" />
    <glyph glyph-name="Scaron" unicode="&#x160;" horiz-adv-x="475" 
d="M36 212q0 20 3.5 38t12.5 31.5t24 21t39 7.5q0 -15 -3.5 -29t-7.5 -27.5t-7.5 -28t-3.5 -29.5q0 -29 13.5 -52t35.5 -38.5t49 -23.5t53 -8q60 16 85.5 39.5t27 53t-16.5 64t-45.5 73t-60 78.5t-60 81t-45.5 81.5t-16 78.5q0 43 30.5 71t74 44t91 22.5t81.5 6.5
q14 0 25.5 -6t11.5 -23t-17.5 -23.5t-44.5 -9.5t-57.5 -6t-57.5 -12t-44.5 -27.5t-17.5 -53.5q0 -10 4 -24.5t24 -49.5t62 -98.5t118 -169.5q24 -46 25 -92.5t-19.5 -84t-60.5 -62t-97 -25.5q-45 -5 -84.5 13t-68 49.5t-43.5 71.5t-12 78zM23 1043q1 12 9 16.5t18 4.5
t21.5 -3.5t20.5 -7.5l157 -172q9 6 33.5 22.5t53 35.5t53.5 35t34 21q18 8 36 12.5t29.5 2t14 -12t-10.5 -30.5q-65 -40 -110 -68t-75 -46t-46.5 -27.5t-24.5 -14t-10 -5.5l-2 -1q-18 0 -27 12q-7 24 -27.5 52t-46 56.5t-53 56t-47.5 50.5q-1 3 -0.5 5.5t0.5 5.5z" />
    <glyph glyph-name="Ydieresis" unicode="&#x178;" horiz-adv-x="604" 
d="M280 -33q-23 0 -36.5 18.5t-11.5 40.5q1 9 7.5 31t15 51t18 61t17.5 60t13 50t4 30q-45 58 -84.5 113.5t-75 112t-66 117t-57.5 128.5q3 10 9.5 14.5t14 5.5t16.5 0.5t17 -1.5q24 -52 51.5 -109t59.5 -112t70 -105.5t83 -88.5q42 104 72 175.5t50.5 118t32.5 71.5
t18.5 37t9 14t3.5 2q42 0 42 -41q0 -3 -1 -10t-1 -8l-283 -774q0 -1 -3 -1.5t-5 -0.5zM189 932q7 0 21 0.5t28 -2.5t24.5 -10.5t10.5 -22.5q0 -7 -1.5 -15.5t-4.5 -16t-8.5 -12.5t-14.5 -5q-15 0 -25 9t-17 22t-10 27.5t-3 25.5zM331 932q7 0 21 0.5t28 -2.5t24.5 -10.5
t10.5 -22.5q0 -7 -1.5 -15.5t-4.5 -16t-8.5 -12.5t-14.5 -5q-15 0 -25 9t-17 22t-10 27.5t-3 25.5z" />
    <glyph glyph-name="exclamdown" unicode="&#xa1;" horiz-adv-x="212" 
d="M93.8994 737.935q7.45898 4.72559 14.918 13.3887q7.45898 8.66211 11.1885 17.3252t2.66406 16.5381q-1.06641 7.87598 -8.52441 11.0264q-7.45898 3.14941 -23.9756 0.393555q-16.5156 -2.75684 -43.1543 -14.5693q0 -7.08789 5.32715 -13.7822
q5.32812 -6.69434 12.7871 -12.6006t15.4502 -10.6318q7.99219 -4.72559 13.3193 -7.08789zM93.8994 49.6279q7.45898 -17.3262 18.6475 -24.4141t21.3105 -6.69434q10.123 0.394531 18.1152 5.51367q7.99121 5.11816 11.1875 12.2061q-5.32715 70.0908 -4.26172 146.089
q1.06543 75.9971 0.532227 153.963q-0.532227 77.9658 -5.32715 155.933q-4.79492 77.9658 -21.8438 151.994q-2.13086 14.1758 -10.123 21.2637q-7.99121 7.08789 -17.582 7.48145q-9.58984 0.393555 -17.5811 -5.90625q-7.99121 -6.30078 -10.123 -18.9014
q1.06543 -69.3027 3.72949 -137.031q2.66406 -67.7275 5.32812 -139.787t4.79492 -150.813t3.19629 -170.896z" />
    <glyph glyph-name="cent" unicode="&#xa2;" horiz-adv-x="388" 
d="M220 -99q-2 16 -3 25t-2.5 16t-2.5 14.5t-2 21.5h-5q-35 0 -62 20.5t-47 53t-33 73.5t-21 82t-11.5 78t-3.5 63q0 31 4 76.5t17 89.5t36.5 79t61.5 46q-2 16 -2 27t-0.5 21.5t-1 23.5t-1.5 34v12q0 17 13 22.5t27 5.5q24 0 28 -12.5t7 -46.5q2 -19 2.5 -30t1 -19.5
t1 -17.5t2.5 -24q43 -15 70 -52t27 -87q-17 0 -30 4.5t-22.5 11.5t-17.5 15t-15 16q9 -65 17 -118.5t14.5 -106t11 -109t7.5 -126.5q18 9 34.5 22t39.5 13q42 -21 23 -50t-94 -58q0 -25 0.5 -52t0.5 -57q-2 -27 -11 -41t-20 -14t-21.5 13.5t-16.5 41.5zM102 348
q0 -28 4.5 -66t15.5 -75.5t30 -69.5t49 -48q-6 71 -12 128.5t-12 111.5t-12 108.5t-12 119.5q-21 -13 -32 -40.5t-15 -59t-4 -61.5v-48z" />
    <glyph glyph-name="yen" unicode="&#xa5;" horiz-adv-x="600" 
d="M473 190q15 -5 18 -16t3 -23q0 -10 -10.5 -17.5t-28.5 -12.5t-42 -8t-50 -4l-1 -142q0 -1 -3 -1.5t-5 -0.5q-12 0 -24 1.5t-21.5 5t-15 10.5t-4.5 18q2 8 1.5 37.5t-1.5 69.5q-42 0 -76 1t-45 1q-13 22 -8 36t22.5 22.5t44.5 12t59 4.5q-1 28 -1.5 55t-2.5 53
q-39 -3 -72.5 -5.5t-47.5 -3.5q-15 7 -18 18.5t1.5 22.5t14.5 20.5t21 13.5q11 1 38 3t59 4q-1 14 -1.5 25t-0.5 16q-45 58 -81 103t-67.5 89.5t-58.5 94.5t-54 118q3 10 9.5 14.5t14 5.5t16.5 0.5t17 -1.5q24 -52 50.5 -93t57.5 -79t67.5 -76.5t80.5 -85.5q42 104 73 169.5
t52 103t34 52t20.5 17.5t10.5 -1t4 -4q42 0 42 -41q0 -1 -14.5 -29.5t-36.5 -70t-47.5 -90.5t-47.5 -90.5t-36.5 -69.5l-14.5 -28l-1 -43q26 2 47 3.5t32 2.5h11q17 0 23 -12.5t6 -26.5q0 -12 -5.5 -19t-14 -10.5t-19 -4.5t-20.5 -2q-8 -1 -24.5 -2t-36.5 -3l-1 -112
q31 0 59.5 0.5t49.5 4.5z" />
    <glyph glyph-name="section" unicode="&#xa7;" horiz-adv-x="853" 
 />
    <glyph glyph-name="questiondown" unicode="&#xbf;" horiz-adv-x="509" 
d="M369.188 608.946q-0.938477 -15.2139 -10.7998 -21.6201q-9.86133 -6.40527 -22.0703 -5.2041t-23.0088 9.20801q-10.8008 8.00684 -12.6787 22.4199q-2.81738 7.20703 6.10449 18.8174t21.1309 16.415q12.209 4.80371 24.418 -2.40234q12.209 -7.20703 16.9043 -37.6338
zM376.702 327.894q-81.7061 -44.04 -134.299 -94.085q-52.5918 -50.0449 -76.0703 -93.6846q-23.4795 -43.6387 -18.3135 -74.4668q5.16504 -30.8271 38.0352 -36.4326t93.915 20.8184t149.324 96.0869h46.0186q-14.0869 -35.2314 -41.792 -64.0576t-62.9229 -49.6445
q-35.2188 -20.8193 -74.1934 -32.8301t-75.1318 -14.4131q-36.1572 -2.40137 -67.1484 5.60547q-30.9922 8.00684 -49.3057 27.625q-18.3135 19.6172 -20.6611 51.2461q-2.34766 31.6279 17.374 76.4688q22.54 48.8438 59.167 86.0771q36.626 37.2334 73.7227 63.6572
t67.1494 42.0381t39.4443 20.418q17.8438 0 24.8867 -6.00488q7.04395 -6.00586 10.8008 -24.4219z" />
    <glyph glyph-name="Agrave" unicode="&#xc0;" horiz-adv-x="483" 
d="M340 340q-8 0 -26.5 -2.5t-39.5 -5.5t-40 -6.5t-26 -4.5q-1 0 -3 -3t-6.5 -13.5t-12.5 -31.5t-20 -58.5t-29.5 -94t-41.5 -137.5h-75q3 7 9 27t13.5 47t15.5 57.5t15 57.5t12.5 47t8.5 26t6 15l6 18t5 16t2 8t-6 4t-12.5 5.5t-12.5 5t-6 4.5q-1 1 -1.5 7t-0.5 10
q0 16 7 26t18 16.5t24.5 10t27.5 5.5q32 117 57.5 236.5t55.5 235.5q6 10 14 20.5t18.5 19.5t22 15t25.5 6q3 0 9 -1.5t6 -2.5l56 -491q4 3 14.5 6.5t22.5 6.5t23 5t16 1q3 -1 9 -5.5t12 -10.5t11 -12t5 -10q-8 -12 -22 -21t-29.5 -16t-32 -11.5t-29.5 -8.5
q18 -88 21.5 -184.5t3.5 -184.5q-29 0 -46 19.5t-26 50t-12 69.5t-4.5 78t-3.5 74.5t-8 59.5zM302 755q-20 -85 -39 -170.5t-36 -178.5v-10l113 19v8q-1 13 -4 38.5t-6.5 58t-7.5 68.5t-8 68.5t-7.5 59t-4.5 39.5zM203 1191l207 -151q1 0 1.5 -3.5t0.5 -5.5q0 -17 -14.5 -29
t-24.5 -19q-15 12 -39.5 32.5t-52 41t-54 37t-43.5 21.5z" />
    <glyph glyph-name="Aacute" unicode="&#xc1;" horiz-adv-x="483" 
d="M340 340q-8 0 -26.5 -2.5t-39.5 -5.5t-40 -6.5t-26 -4.5q-1 0 -3 -3t-6.5 -13.5t-12.5 -31.5t-20 -58.5t-29.5 -94t-41.5 -137.5h-75q3 7 9 27t13.5 47t15.5 57.5t15 57.5t12.5 47t8.5 26t6 15l6 18t5 16t2 8t-6 4t-12.5 5.5t-12.5 5t-6 4.5q-1 1 -1.5 7t-0.5 10
q0 16 7 26t18 16.5t24.5 10t27.5 5.5q32 117 57.5 236.5t55.5 235.5q6 10 14 20.5t18.5 19.5t22 15t25.5 6q3 0 9 -1.5t6 -2.5l56 -491q4 3 14.5 6.5t22.5 6.5t23 5t16 1q3 -1 9 -5.5t12 -10.5t11 -12t5 -10q-8 -12 -22 -21t-29.5 -16t-32 -11.5t-29.5 -8.5
q18 -88 21.5 -184.5t3.5 -184.5q-29 0 -46 19.5t-26 50t-12 69.5t-4.5 78t-3.5 74.5t-8 59.5zM302 755q-20 -85 -39 -170.5t-36 -178.5v-10l113 19v8q-1 13 -4 38.5t-6.5 58t-7.5 68.5t-8 68.5t-7.5 59t-4.5 39.5zM437 1072q-19 -5 -48 -21.5t-59.5 -37t-58.5 -41t-44 -32.5
q-5 3 -12.5 8t-14.5 11t-11.5 13.5t-4.5 15.5q0 2 0.5 5.5t1.5 3.5l230 151z" />
    <glyph glyph-name="Acircumflex" unicode="&#xc2;" horiz-adv-x="483" 
d="M340 340q-8 0 -26.5 -2.5t-39.5 -5.5t-40 -6.5t-26 -4.5q-1 0 -3 -3t-6.5 -13.5t-12.5 -31.5t-20 -58.5t-29.5 -94t-41.5 -137.5h-75q3 7 9 27t13.5 47t15.5 57.5t15 57.5t12.5 47t8.5 26t6 15l6 18t5 16t2 8t-6 4t-12.5 5.5t-12.5 5t-6 4.5q-1 1 -1.5 7t-0.5 10
q0 16 7 26t18 16.5t24.5 10t27.5 5.5q32 117 57.5 236.5t55.5 235.5q6 10 14 20.5t18.5 19.5t22 15t25.5 6q3 0 9 -1.5t6 -2.5l56 -491q4 3 14.5 6.5t22.5 6.5t23 5t16 1q3 -1 9 -5.5t12 -10.5t11 -12t5 -10q-8 -12 -22 -21t-29.5 -16t-32 -11.5t-29.5 -8.5
q18 -88 21.5 -184.5t3.5 -184.5q-29 0 -46 19.5t-26 50t-12 69.5t-4.5 78t-3.5 74.5t-8 59.5zM302 755q-20 -85 -39 -170.5t-36 -178.5v-10l113 19v8q-1 13 -4 38.5t-6.5 58t-7.5 68.5t-8 68.5t-7.5 59t-4.5 39.5zM112 1062q0 5 -0.5 9.5t0.5 9.5q22 40 45.5 71.5t44 61.5
t36.5 62.5t24 75.5q9 21 29 21q1 0 -3.5 5.5t-5.5 7.5t5.5 -3t28.5 -26.5t64.5 -63t113.5 -112.5q14 -36 11.5 -53t-15.5 -20.5t-32.5 3.5t-38.5 21q-10 9 -23.5 23t-27.5 29.5t-27.5 30t-22.5 24.5l-131 -196q-10 -8 -22.5 -13.5t-23.5 -5t-19.5 8.5t-9.5 29z" />
    <glyph glyph-name="Atilde" unicode="&#xc3;" horiz-adv-x="483" 
d="M340 340q-8 0 -26.5 -2.5t-39.5 -5.5t-40 -6.5t-26 -4.5q-1 0 -3 -3t-6.5 -13.5t-12.5 -31.5t-20 -58.5t-29.5 -94t-41.5 -137.5h-75q3 7 9 27t13.5 47t15.5 57.5t15 57.5t12.5 47t8.5 26t6 15l6 18t5 16t2 8t-6 4t-12.5 5.5t-12.5 5t-6 4.5q-1 1 -1.5 7t-0.5 10
q0 16 7 26t18 16.5t24.5 10t27.5 5.5q32 117 57.5 236.5t55.5 235.5q6 10 14 20.5t18.5 19.5t22 15t25.5 6q3 0 9 -1.5t6 -2.5l56 -491q4 3 14.5 6.5t22.5 6.5t23 5t16 1q3 -1 9 -5.5t12 -10.5t11 -12t5 -10q-8 -12 -22 -21t-29.5 -16t-32 -11.5t-29.5 -8.5
q18 -88 21.5 -184.5t3.5 -184.5q-29 0 -46 19.5t-26 50t-12 69.5t-4.5 78t-3.5 74.5t-8 59.5zM302 755q-20 -85 -39 -170.5t-36 -178.5v-10l113 19v8q-1 13 -4 38.5t-6.5 58t-7.5 68.5t-8 68.5t-7.5 59t-4.5 39.5zM81 982q8 22 16 50.5t19 54t28 43.5t43 18q6 3 21.5 4
t41 -9t61.5 -35t83 -72q31 4 39.5 22t9 40.5t0 45.5t12.5 38l15 -2.5t18.5 -4t17.5 -7t11 -11.5q2 -35 -0.5 -73.5t-14 -70t-35 -50.5t-64.5 -14q-42 21 -67.5 40.5t-44.5 34.5t-38 24t-47 9q-27 -11 -37.5 -23.5t-13 -24.5t-1 -22t-1.5 -16q-4 0 -14.5 0.5t-22 2t-21.5 3.5
t-14 5z" />
    <glyph glyph-name="Adieresis" unicode="&#xc4;" horiz-adv-x="483" 
d="M340 340q-8 0 -26.5 -2.5t-39.5 -5.5t-40 -6.5t-26 -4.5q-1 0 -3 -3t-6.5 -13.5t-12.5 -31.5t-20 -58.5t-29.5 -94t-41.5 -137.5h-75q3 7 9 27t13.5 47t15.5 57.5t15 57.5t12.5 47t8.5 26t6 15l6 18t5 16t2 8t-6 4t-12.5 5.5t-12.5 5t-6 4.5q-1 1 -1.5 7t-0.5 10
q0 16 7 26t18 16.5t24.5 10t27.5 5.5q32 117 57.5 236.5t55.5 235.5q6 10 14 20.5t18.5 19.5t22 15t25.5 6q3 0 9 -1.5t6 -2.5l56 -491q4 3 14.5 6.5t22.5 6.5t23 5t16 1q3 -1 9 -5.5t12 -10.5t11 -12t5 -10q-8 -12 -22 -21t-29.5 -16t-32 -11.5t-29.5 -8.5
q18 -88 21.5 -184.5t3.5 -184.5q-29 0 -46 19.5t-26 50t-12 69.5t-4.5 78t-3.5 74.5t-8 59.5zM302 755q-20 -85 -39 -170.5t-36 -178.5v-10l113 19v8q-1 13 -4 38.5t-6.5 58t-7.5 68.5t-8 68.5t-7.5 59t-4.5 39.5zM227 1126q7 0 21 0.5t28 -2.5t24.5 -10.5t10.5 -22.5
q0 -7 -1.5 -15.5t-4.5 -16t-8.5 -12.5t-14.5 -5q-15 0 -25 9t-17 22t-10 27.5t-3 25.5zM369 1126q7 0 21 0.5t28 -2.5t24.5 -10.5t10.5 -22.5q0 -7 -1.5 -15.5t-4.5 -16t-8.5 -12.5t-14.5 -5q-15 0 -25 9t-17 22t-10 27.5t-3 25.5z" />
    <glyph glyph-name="Aring" unicode="&#xc5;" horiz-adv-x="483" 
d="M340 340q-8 0 -26.5 -2.5t-39.5 -5.5t-40 -6.5t-26 -4.5q-1 0 -3 -3t-6.5 -13.5t-12.5 -31.5t-20 -58.5t-29.5 -94t-41.5 -137.5h-75q3 7 9 27t13.5 47t15.5 57.5t15 57.5t12.5 47t8.5 26t6 15l6 18t5 16t2 8t-6 4t-12.5 5.5t-12.5 5t-6 4.5q-1 1 -1.5 7t-0.5 10
q0 16 7 26t18 16.5t24.5 10t27.5 5.5q32 117 57.5 236.5t55.5 235.5q6 10 14 20.5t18.5 19.5t22 15t25.5 6q3 0 9 -1.5t6 -2.5l56 -491q4 3 14.5 6.5t22.5 6.5t23 5t16 1q3 -1 9 -5.5t12 -10.5t11 -12t5 -10q-8 -12 -22 -21t-29.5 -16t-32 -11.5t-29.5 -8.5
q18 -88 21.5 -184.5t3.5 -184.5q-29 0 -46 19.5t-26 50t-12 69.5t-4.5 78t-3.5 74.5t-8 59.5zM302 755q-20 -85 -39 -170.5t-36 -178.5v-10l113 19v8q-1 13 -4 38.5t-6.5 58t-7.5 68.5t-8 68.5t-7.5 59t-4.5 39.5zM186 1050q0 34 22 55.5t55 34.5q20 8 48 -3t54 -30.5
t45.5 -43.5t22.5 -43q4 -26 -8.5 -47t-33 -36t-45 -23t-45.5 -8q-38 0 -60.5 15.5t-34.5 37.5t-16 47t-4 44zM276 1084q-32 -36 -34.5 -57t9.5 -33t31 -18.5t30 -13.5q9 0 19.5 1t19.5 4.5t15.5 11.5t9.5 22q3 18 -6 33.5t-25 26.5t-34.5 17t-34.5 6z" />
    <glyph glyph-name="AE" unicode="&#xc6;" horiz-adv-x="889" 
d="M340 340q-8 0 -26.5 -2.5t-39.5 -5.5t-40 -6.5t-26 -4.5q-1 0 -3 -3t-6.5 -13.5t-12.5 -31.5t-20 -58.5t-29.5 -94t-41.5 -137.5h-75q3 7 9 27t13.5 47t15.5 57.5t15 57.5t12.5 47t8.5 26t6 15l6 18t5 16t2 8t-6 4t-12.5 5.5t-12.5 5t-6 4.5q-1 1 -1.5 7t-0.5 10
q0 16 7 26t18 16.5t24.5 10t27.5 5.5q32 117 57.5 236.5t55.5 235.5q6 10 14 20.5t18.5 19.5t22 15t25.5 6q3 0 9 -1.5t6 -2.5l56 -491q4 3 14.5 6.5t22.5 6.5t23 5t16 1q3 -1 9 -5.5t12 -10.5t11 -12t5 -10q-8 -12 -22 -21t-29.5 -16t-32 -11.5t-29.5 -8.5
q18 -88 21.5 -184.5t3.5 -184.5q-29 0 -46 19.5t-26 50t-12 69.5t-4.5 78t-3.5 74.5t-8 59.5zM302 755q-20 -85 -39 -170.5t-36 -178.5v-10l113 19v8q-1 13 -4 38.5t-6.5 58t-7.5 68.5t-8 68.5t-7.5 59t-4.5 39.5zM383 743q2 8 33.5 16t79 14.5t103.5 11.5t107 8.5t89.5 5.5
t51.5 2q10 0 22 -1t21.5 -4.5t16 -11t6.5 -20.5q0 -20 -19 -30.5t-51 -15t-72.5 -4.5t-83.5 0.5t-85 0.5t-76.5 -4.5t-57.5 -14t-28 -28.5q3 -12 1.5 -32.5t-4 -44.5t-3.5 -50t3 -50q27 -2 62.5 -1.5t73.5 1.5t75.5 2.5t67.5 2.5q0 -31 -9.5 -48t-47.5 -28q-14 -3 -45 -4
t-66 -1t-66 -0.5t-45 -1.5q1 -42 2 -88.5t0 -90t-3.5 -80t-7.5 -59.5q22 2 52 1.5t64 -2t70 -2t68.5 0.5t60 5.5t45.5 14.5q39 0 39 -27q1 -5 -1.5 -12.5t-6.5 -15t-7.5 -13.5t-4.5 -7l-377 -38q-8 -1 -18.5 4.5t-19.5 14.5t-15 19t-4 19z" />
    <glyph glyph-name="cedilla" unicode="&#xb8;" horiz-adv-x="340" 
d="M63 -149q19 24 28.5 29.5t14.5 0.5t9 -18t11.5 -25.5t21.5 -21.5t40 -7q18 4 32.5 13t14.5 18q0 23 -19 38.5t-41.5 29.5t-41 29t-18.5 38q0 54 9 77t21 26t25 -10t21 -30.5t8.5 -36t-11.5 -26.5q0 -24 20.5 -39.5t45 -29.5t45 -29.5t20.5 -39.5q0 -19 -15 -34t-39 -25
t-53.5 -15.5t-57.5 -5.5q-22 0 -40 9t-30.5 23t-18 30.5t-2.5 31.5z" />
    <glyph glyph-name="Ccedilla" unicode="&#xc7;" horiz-adv-x="531" 
d="M17 444q4 61 21 121.5t43 115t58.5 99.5t67.5 75.5t70 43t65.5 1.5t54.5 -48.5t38 -107.5q-2 0 -9.5 1t-16 2.5t-16 3.5t-9.5 3q-24 43 -49 56t-49.5 5t-47.5 -33.5t-43.5 -61t-37.5 -76.5t-29.5 -80.5t-20 -73.5t-8.5 -54q-1 -24 0.5 -58t7 -72.5t16 -77t28.5 -70.5
t44 -55t62 -29q34 0 62.5 18t54.5 39.5t52.5 39.5t57.5 18q4 0 11 -7.5t7 -11.5q-26 -30 -52 -61t-55.5 -56t-63 -41t-74.5 -16q-44 0 -78.5 22.5t-61.5 59.5t-46 84t-31 97t-17.5 98t-5.5 87zM142 -149q19 24 28.5 29.5t14.5 0.5t9 -18t11.5 -25.5t21.5 -21.5t40 -7
q18 4 32.5 13t14.5 18q0 23 -19 38.5t-41.5 29.5t-41 29t-18.5 38q0 54 9 77t21 26t25 -10t21 -30.5t8.5 -36t-11.5 -26.5q0 -24 20.5 -39.5t45 -29.5t45 -29.5t20.5 -39.5q0 -19 -15 -34t-39 -25t-53.5 -15.5t-57.5 -5.5q-22 0 -40 9t-30.5 23t-18 30.5t-2.5 31.5z" />
    <glyph glyph-name="Egrave" unicode="&#xc8;" horiz-adv-x="539" 
d="M38 743q2 8 33.5 16t79 14.5t103.5 11.5t107 8.5t89.5 5.5t51.5 2q10 0 22 -1t21.5 -4.5t16 -11t6.5 -20.5q0 -20 -19 -30.5t-51 -15t-72.5 -4.5t-83.5 0.5t-85 0.5t-76.5 -4.5t-57.5 -14t-28 -28.5q3 -12 1.5 -32.5t-4 -44.5t-3.5 -50t3 -50q27 -2 62.5 -1.5t73.5 1.5
t75.5 2.5t67.5 2.5q0 -31 -9.5 -48t-47.5 -28q-14 -3 -45 -4t-66 -1t-66 -0.5t-45 -1.5q1 -42 2 -88.5t0 -90t-3.5 -80t-7.5 -59.5q22 2 52 1.5t64 -2t70 -2t68.5 0.5t60 5.5t45.5 14.5q39 0 39 -27q1 -5 -1.5 -12.5t-6.5 -15t-7.5 -13.5t-4.5 -7l-377 -38q-8 -1 -18.5 4.5
t-19.5 14.5t-15 19t-4 19zM195 1087l207 -151q1 0 1.5 -3.5t0.5 -5.5q0 -17 -14.5 -29t-24.5 -19q-15 12 -39.5 32.5t-52 41t-54 37t-43.5 21.5z" />
    <glyph glyph-name="Eacute" unicode="&#xc9;" horiz-adv-x="539" 
d="M38 743q2 8 33.5 16t79 14.5t103.5 11.5t107 8.5t89.5 5.5t51.5 2q10 0 22 -1t21.5 -4.5t16 -11t6.5 -20.5q0 -20 -19 -30.5t-51 -15t-72.5 -4.5t-83.5 0.5t-85 0.5t-76.5 -4.5t-57.5 -14t-28 -28.5q3 -12 1.5 -32.5t-4 -44.5t-3.5 -50t3 -50q27 -2 62.5 -1.5t73.5 1.5
t75.5 2.5t67.5 2.5q0 -31 -9.5 -48t-47.5 -28q-14 -3 -45 -4t-66 -1t-66 -0.5t-45 -1.5q1 -42 2 -88.5t0 -90t-3.5 -80t-7.5 -59.5q22 2 52 1.5t64 -2t70 -2t68.5 0.5t60 5.5t45.5 14.5q39 0 39 -27q1 -5 -1.5 -12.5t-6.5 -15t-7.5 -13.5t-4.5 -7l-377 -38q-8 -1 -18.5 4.5
t-19.5 14.5t-15 19t-4 19zM443 982q-19 -5 -48 -21.5t-59.5 -37t-58.5 -41t-44 -32.5q-5 3 -12.5 8t-14.5 11t-11.5 13.5t-4.5 15.5q0 2 0.5 5.5t1.5 3.5l230 151z" />
    <glyph glyph-name="Ecircumflex" unicode="&#xca;" horiz-adv-x="539" 
d="M38 743q2 8 33.5 16t79 14.5t103.5 11.5t107 8.5t89.5 5.5t51.5 2q10 0 22 -1t21.5 -4.5t16 -11t6.5 -20.5q0 -20 -19 -30.5t-51 -15t-72.5 -4.5t-83.5 0.5t-85 0.5t-76.5 -4.5t-57.5 -14t-28 -28.5q3 -12 1.5 -32.5t-4 -44.5t-3.5 -50t3 -50q27 -2 62.5 -1.5t73.5 1.5
t75.5 2.5t67.5 2.5q0 -31 -9.5 -48t-47.5 -28q-14 -3 -45 -4t-66 -1t-66 -0.5t-45 -1.5q1 -42 2 -88.5t0 -90t-3.5 -80t-7.5 -59.5q22 2 52 1.5t64 -2t70 -2t68.5 0.5t60 5.5t45.5 14.5q39 0 39 -27q1 -5 -1.5 -12.5t-6.5 -15t-7.5 -13.5t-4.5 -7l-377 -38q-8 -1 -18.5 4.5
t-19.5 14.5t-15 19t-4 19zM92 1003q0 5 -0.5 9.5t0.5 9.5q22 40 45.5 71.5t44 61.5t36.5 62.5t24 75.5q9 21 29 21q1 0 -3.5 5.5t-5.5 7.5t5.5 -3t28.5 -26.5t64.5 -63t113.5 -112.5q14 -36 11.5 -53t-15.5 -20.5t-32.5 3.5t-38.5 21q-10 9 -23.5 23t-27.5 29.5t-27.5 30
t-22.5 24.5l-131 -196q-10 -8 -22.5 -13.5t-23.5 -5t-19.5 8.5t-9.5 29z" />
    <glyph glyph-name="Edieresis" unicode="&#xcb;" horiz-adv-x="539" 
d="M34 781q2 8 33.5 16t79 14.5t103.5 11.5t107 8.5t89.5 5.5t51.5 2q10 0 22 -1t21.5 -4.5t16 -11t6.5 -20.5q0 -20 -19 -30.5t-51 -15t-72.5 -4.5t-83.5 0.5t-85 0.5t-76.5 -4.5t-57.5 -14t-28 -28.5q3 -12 1.5 -32.5t-4 -44.5t-3.5 -50t3 -50q27 -2 62.5 -1.5t73.5 1.5
t75.5 2.5t67.5 2.5q0 -31 -9.5 -48t-47.5 -28q-14 -3 -45 -4t-66 -1t-66 -0.5t-45 -1.5q1 -42 2 -88.5t0 -90t-3.5 -80t-7.5 -59.5q22 2 52 1.5t64 -2t70 -2t68.5 0.5t60 5.5t45.5 14.5q39 0 39 -27q1 -5 -1.5 -12.5t-6.5 -15t-7.5 -13.5t-4.5 -7l-377 -38q-8 -1 -18.5 4.5
t-19.5 14.5t-15 19t-4 19zM156.133 928.188q6.81348 0 20.4424 -0.644531q13.6279 -0.644531 27.2568 3.22266q13.6279 3.86621 23.8486 13.5322q10.2217 9.66602 10.2217 28.998q0 9.02246 -1.45996 19.9766q-1.45996 10.9551 -4.38086 20.6211
q-2.91992 9.66699 -8.27441 16.1104q-5.35352 6.44434 -14.1152 6.44434q-14.6016 0 -24.3359 -11.5996q-9.73438 -11.5986 -16.5488 -28.3535q-6.81348 -16.7549 -9.73438 -35.4424q-2.91992 -18.6885 -2.91992 -32.8652zM294.362 928.188q6.81445 0 20.4424 -0.644531
q13.6289 -0.644531 27.2568 3.22266q13.6279 3.86621 23.8496 13.5322q10.2207 9.66602 10.2207 28.998q0 9.02246 -1.45996 19.9766q-1.45996 10.9551 -4.38086 20.6211q-2.91992 9.66699 -8.27344 16.1104q-5.35449 6.44434 -14.1152 6.44434
q-14.6016 0 -24.3359 -11.5996q-9.73535 -11.5986 -16.5488 -28.3535q-6.81445 -16.7549 -9.73438 -35.4424q-2.9209 -18.6885 -2.9209 -32.8652z" />
    <glyph glyph-name="Igrave" unicode="&#xcc;" horiz-adv-x="679" 
d="M99 72q0 5 11.5 6t28 0.5t36 -1t35.5 0.5t26.5 4.5t8.5 11.5q16 69 24 138.5t11.5 140.5t3.5 142.5t-1 144.5q-33 -9 -62 -16.5t-57.5 -13t-59 -8t-65.5 -1.5l-1 39q70 20 134.5 40.5t128.5 37t129.5 27t138.5 10.5q11 0 27 -8.5t21 -28.5q-14 -21 -38 -29.5t-51.5 -10.5
t-56 -2t-52 -3.5t-40.5 -14.5t-20 -36q-6 -71 -10.5 -138t-6.5 -133.5t-1.5 -134t3.5 -137.5q13 9 38 13.5t56 5t65 -1t65 -2.5h20t25.5 -2t21.5 -8t9 -18q0 -19 -21 -29q-15 -9 -57.5 -16.5t-97 -14.5t-114.5 -12t-111 -9t-86.5 -6.5t-40.5 -2.5q-30 3 -43.5 10.5t-15.5 17
t4.5 19t15 17t15.5 11t7 1.5zM248 1061l207 -151q1 0 1.5 -3.5t0.5 -5.5q0 -17 -14.5 -29t-24.5 -19q-15 12 -39.5 32.5t-52 41t-54 37t-43.5 21.5z" />
    <glyph glyph-name="Iacute" unicode="&#xcd;" horiz-adv-x="679" 
d="M99 72q0 5 11.5 6t28 0.5t36 -1t35.5 0.5t26.5 4.5t8.5 11.5q16 69 24 138.5t11.5 140.5t3.5 142.5t-1 144.5q-33 -9 -62 -16.5t-57.5 -13t-59 -8t-65.5 -1.5l-1 39q70 20 134.5 40.5t128.5 37t129.5 27t138.5 10.5q11 0 27 -8.5t21 -28.5q-14 -21 -38 -29.5t-51.5 -10.5
t-56 -2t-52 -3.5t-40.5 -14.5t-20 -36q-6 -71 -10.5 -138t-6.5 -133.5t-1.5 -134t3.5 -137.5q13 9 38 13.5t56 5t65 -1t65 -2.5h20t25.5 -2t21.5 -8t9 -18q0 -19 -21 -29q-15 -9 -57.5 -16.5t-97 -14.5t-114.5 -12t-111 -9t-86.5 -6.5t-40.5 -2.5q-30 3 -43.5 10.5t-15.5 17
t4.5 19t15 17t15.5 11t7 1.5zM510 999q-19 -5 -48 -21.5t-59.5 -37t-58.5 -41t-44 -32.5q-5 3 -12.5 8t-14.5 11t-11.5 13.5t-4.5 15.5q0 2 0.5 5.5t1.5 3.5l230 151z" />
    <glyph glyph-name="Icircumflex" unicode="&#xce;" horiz-adv-x="679" 
d="M99 72q0 5 11.5 6t28 0.5t36 -1t35.5 0.5t26.5 4.5t8.5 11.5q16 69 24 138.5t11.5 140.5t3.5 142.5t-1 144.5q-33 -9 -62 -16.5t-57.5 -13t-59 -8t-65.5 -1.5l-1 39q70 20 134.5 40.5t128.5 37t129.5 27t138.5 10.5q11 0 27 -8.5t21 -28.5q-14 -21 -38 -29.5t-51.5 -10.5
t-56 -2t-52 -3.5t-40.5 -14.5t-20 -36q-6 -71 -10.5 -138t-6.5 -133.5t-1.5 -134t3.5 -137.5q13 9 38 13.5t56 5t65 -1t65 -2.5h20t25.5 -2t21.5 -8t9 -18q0 -19 -21 -29q-15 -9 -57.5 -16.5t-97 -14.5t-114.5 -12t-111 -9t-86.5 -6.5t-40.5 -2.5q-30 3 -43.5 10.5t-15.5 17
t4.5 19t15 17t15.5 11t7 1.5zM107 882q0 5 -0.5 9.5t0.5 9.5q22 40 45.5 71.5t44 61.5t36.5 62.5t24 75.5q9 21 29 21q1 0 -3.5 5.5t-5.5 7.5t5.5 -3t28.5 -26.5t64.5 -63t113.5 -112.5q14 -36 11.5 -53t-15.5 -20.5t-32.5 3.5t-38.5 21q-10 9 -23.5 23t-27.5 29.5t-27.5 30
t-22.5 24.5l-131 -196q-10 -8 -22.5 -13.5t-23.5 -5t-19.5 8.5t-9.5 29z" />
    <glyph glyph-name="Ntilde" unicode="&#xd1;" horiz-adv-x="632" 
d="M38 0q1 156 -0.5 268.5t-2.5 190.5t-0.5 125.5t4.5 73t12.5 34t24.5 8.5q12 0 22 -2.5t15 -18.5q28 -54 64 -127.5t79 -151t90.5 -150.5t97.5 -125l66 592q13 45 23.5 68.5t18.5 31t14 2.5t10 -16.5t6.5 -26.5l4.5 -27q0 -10 -1 -21.5t-3.5 -36.5t-7.5 -68.5t-13.5 -117
t-21 -183t-30.5 -265.5q-2 -23 -21 -31.5t-36 -8.5q-28 0 -43 15.5t-33 42.5l-273 434v-490q0 -7 -6 -11t-13.5 -6t-15.5 -2.5t-12 -0.5q-2 0 -9.5 0.5t-9.5 0.5zM69 843q8 22 16 50.5t19 54t28 43.5t43 18q6 3 21.5 4t41 -9t61.5 -35t83 -72q31 4 39.5 22t9 40.5t0 45.5
t12.5 38l15 -2.5t18.5 -4t17.5 -7t11 -11.5q2 -35 -0.5 -73.5t-14 -70t-35 -50.5t-64.5 -14q-42 21 -67.5 40.5t-44.5 34.5t-38 24t-47 9q-27 -11 -37.5 -23.5t-13 -24.5t-1 -22t-1.5 -16q-4 0 -14.5 0.5t-22 2t-21.5 3.5t-14 5z" />
    <glyph glyph-name="Idieresis" unicode="&#xcf;" horiz-adv-x="679" 
d="M99 72q0 5 11.5 6t28 0.5t36 -1t35.5 0.5t26.5 4.5t8.5 11.5q16 69 24 138.5t11.5 140.5t3.5 142.5t-1 144.5q-33 -9 -62 -16.5t-57.5 -13t-59 -8t-65.5 -1.5l-1 39q70 20 134.5 40.5t128.5 37t129.5 27t138.5 10.5q11 0 27 -8.5t21 -28.5q-14 -21 -38 -29.5t-51.5 -10.5
t-56 -2t-52 -3.5t-40.5 -14.5t-20 -36q-6 -71 -10.5 -138t-6.5 -133.5t-1.5 -134t3.5 -137.5q13 9 38 13.5t56 5t65 -1t65 -2.5h20t25.5 -2t21.5 -8t9 -18q0 -19 -21 -29q-15 -9 -57.5 -16.5t-97 -14.5t-114.5 -12t-111 -9t-86.5 -6.5t-40.5 -2.5q-30 3 -43.5 10.5t-15.5 17
t4.5 19t15 17t15.5 11t7 1.5zM196 997q7 0 21 0.5t28 -2.5t24.5 -10.5t10.5 -22.5q0 -7 -1.5 -15.5t-4.5 -16t-8.5 -12.5t-14.5 -5q-15 0 -25 9t-17 22t-10 27.5t-3 25.5zM338 997q7 0 21 0.5t28 -2.5t24.5 -10.5t10.5 -22.5q0 -7 -1.5 -15.5t-4.5 -16t-8.5 -12.5t-14.5 -5
q-15 0 -25 9t-17 22t-10 27.5t-3 25.5z" />
    <glyph glyph-name="Eth" unicode="&#xd0;" horiz-adv-x="642" 
d="M-124 408q-2 1 -5.5 6.5t-6.5 11.5t-5 11.5t-2 8.5q0 9 5.5 13t13 5.5t14.5 1.5h11q52 -6 86.5 -8.5t60.5 -4.5l-6 271q-4 6 -5 16.5t-0.5 22t1.5 22t1 17.5q0 17 13.5 25t34 10t44.5 -0.5t46 -6t38.5 -7t21.5 -3.5q78 0 145.5 -33.5t117 -90.5t78 -132.5t28.5 -159.5
q-4 -52 -30 -107t-67.5 -105t-95 -91.5t-113.5 -67t-122 -31t-121 16.5l-8 377q-39 3 -81.5 5.5t-91.5 6.5zM123 451q18 0 36.5 -1t43 -4t58 -8t81.5 -14q16 -3 29 -6t23 -9t15.5 -17t5.5 -29q-85 11 -153.5 17t-137.5 11l8 -316h19q36 0 79.5 13.5t87.5 37t85 55.5t73 69
t51.5 76.5t19.5 79.5q0 24 -8.5 62.5t-28 81t-52 83.5t-80 71t-112.5 44.5t-150 2.5z" />
    <glyph glyph-name="Ograve" unicode="&#xd2;" horiz-adv-x="538" 
d="M26 241q0 33 7 83t21 105t36 110.5t52 99.5t68.5 71.5t86.5 27.5q41 0 72 -18.5t53.5 -48.5t38 -69t24.5 -80t13 -80.5t4 -70.5q0 -66 -23 -132.5t-65.5 -119.5t-102.5 -86.5t-133 -33.5q-44 0 -73 25.5t-46.5 63t-25 79t-7.5 74.5zM102 240q0 -31 3.5 -61t15 -53
t32.5 -37.5t56 -14.5q31 0 66 15t66 39.5t53.5 55t29.5 61.5q0 7 0.5 24.5t1 37t0.5 37v24.5q0 29 -1 62t-6 65.5t-15.5 62.5t-28.5 53t-45.5 36.5t-66.5 13.5q-22 0 -42.5 -25.5t-38 -65.5t-32.5 -89t-25.5 -96t-16.5 -86t-6 -59zM217 1014l207 -151q1 0 1.5 -3.5t0.5 -5.5
q0 -17 -14.5 -29t-24.5 -19q-15 12 -39.5 32.5t-52 41t-54 37t-43.5 21.5z" />
    <glyph glyph-name="Oacute" unicode="&#xd3;" horiz-adv-x="538" 
d="M26 241q0 33 7 83t21 105t36 110.5t52 99.5t68.5 71.5t86.5 27.5q41 0 72 -18.5t53.5 -48.5t38 -69t24.5 -80t13 -80.5t4 -70.5q0 -66 -23 -132.5t-65.5 -119.5t-102.5 -86.5t-133 -33.5q-44 0 -73 25.5t-46.5 63t-25 79t-7.5 74.5zM102 240q0 -31 3.5 -61t15 -53
t32.5 -37.5t56 -14.5q31 0 66 15t66 39.5t53.5 55t29.5 61.5q0 7 0.5 24.5t1 37t0.5 37v24.5q0 29 -1 62t-6 65.5t-15.5 62.5t-28.5 53t-45.5 36.5t-66.5 13.5q-22 0 -42.5 -25.5t-38 -65.5t-32.5 -89t-25.5 -96t-16.5 -86t-6 -59zM421 908q-19 -5 -48 -21.5t-59.5 -37
t-58.5 -41t-44 -32.5q-5 3 -12.5 8t-14.5 11t-11.5 13.5t-4.5 15.5q0 2 0.5 5.5t1.5 3.5l230 151z" />
    <glyph glyph-name="Ocircumflex" unicode="&#xd4;" horiz-adv-x="538" 
d="M26 241q0 33 7 83t21 105t36 110.5t52 99.5t68.5 71.5t86.5 27.5q41 0 72 -18.5t53.5 -48.5t38 -69t24.5 -80t13 -80.5t4 -70.5q0 -66 -23 -132.5t-65.5 -119.5t-102.5 -86.5t-133 -33.5q-44 0 -73 25.5t-46.5 63t-25 79t-7.5 74.5zM102 240q0 -31 3.5 -61t15 -53
t32.5 -37.5t56 -14.5q31 0 66 15t66 39.5t53.5 55t29.5 61.5q0 7 0.5 24.5t1 37t0.5 37v24.5q0 29 -1 62t-6 65.5t-15.5 62.5t-28.5 53t-45.5 36.5t-66.5 13.5q-22 0 -42.5 -25.5t-38 -65.5t-32.5 -89t-25.5 -96t-16.5 -86t-6 -59zM61 748q0 5 -0.5 9.5t0.5 9.5
q22 40 45.5 71.5t44 61.5t36.5 62.5t24 75.5q9 21 29 21q1 0 -3.5 5.5t-5.5 7.5t5.5 -3t28.5 -26.5t64.5 -63t113.5 -112.5q14 -36 11.5 -53t-15.5 -20.5t-32.5 3.5t-38.5 21q-10 9 -23.5 23t-27.5 29.5t-27.5 30t-22.5 24.5l-131 -196q-10 -8 -22.5 -13.5t-23.5 -5
t-19.5 8.5t-9.5 29z" />
    <glyph glyph-name="Otilde" unicode="&#xd5;" horiz-adv-x="538" 
d="M26 241q0 33 7 83t21 105t36 110.5t52 99.5t68.5 71.5t86.5 27.5q41 0 72 -18.5t53.5 -48.5t38 -69t24.5 -80t13 -80.5t4 -70.5q0 -66 -23 -132.5t-65.5 -119.5t-102.5 -86.5t-133 -33.5q-44 0 -73 25.5t-46.5 63t-25 79t-7.5 74.5zM102 240q0 -31 3.5 -61t15 -53
t32.5 -37.5t56 -14.5q31 0 66 15t66 39.5t53.5 55t29.5 61.5q0 7 0.5 24.5t1 37t0.5 37v24.5q0 29 -1 62t-6 65.5t-15.5 62.5t-28.5 53t-45.5 36.5t-66.5 13.5q-22 0 -42.5 -25.5t-38 -65.5t-32.5 -89t-25.5 -96t-16.5 -86t-6 -59zM78 818q8 22 16 50.5t19 54t28 43.5t43 18
q6 3 21.5 4t41 -9t61.5 -35t83 -72q31 4 39.5 22t9 40.5t0 45.5t12.5 38l15 -2.5t18.5 -4t17.5 -7t11 -11.5q2 -35 -0.5 -73.5t-14 -70t-35 -50.5t-64.5 -14q-42 21 -67.5 40.5t-44.5 34.5t-38 24t-47 9q-27 -11 -37.5 -23.5t-13 -24.5t-1 -22t-1.5 -16q-4 0 -14.5 0.5
t-22 2t-21.5 3.5t-14 5z" />
    <glyph glyph-name="Odieresis" unicode="&#xd6;" horiz-adv-x="538" 
d="M26 241q0 33 7 83t21 105t36 110.5t52 99.5t68.5 71.5t86.5 27.5q41 0 72 -18.5t53.5 -48.5t38 -69t24.5 -80t13 -80.5t4 -70.5q0 -66 -23 -132.5t-65.5 -119.5t-102.5 -86.5t-133 -33.5q-44 0 -73 25.5t-46.5 63t-25 79t-7.5 74.5zM102 240q0 -31 3.5 -61t15 -53
t32.5 -37.5t56 -14.5q31 0 66 15t66 39.5t53.5 55t29.5 61.5q0 7 0.5 24.5t1 37t0.5 37v24.5q0 29 -1 62t-6 65.5t-15.5 62.5t-28.5 53t-45.5 36.5t-66.5 13.5q-22 0 -42.5 -25.5t-38 -65.5t-32.5 -89t-25.5 -96t-16.5 -86t-6 -59zM161 919q7 0 21 0.5t28 -2.5t24.5 -10.5
t10.5 -22.5q0 -7 -1.5 -15.5t-4.5 -16t-8.5 -12.5t-14.5 -5q-15 0 -25 9t-17 22t-10 27.5t-3 25.5zM303 919q7 0 21 0.5t28 -2.5t24.5 -10.5t10.5 -22.5q0 -7 -1.5 -15.5t-4.5 -16t-8.5 -12.5t-14.5 -5q-15 0 -25 9t-17 22t-10 27.5t-3 25.5z" />
    <glyph glyph-name="Ugrave" unicode="&#xd9;" 
d="M396 94q-80 -68 -138.5 -87.5t-99 -3t-65 63t-38.5 111.5t-19 142.5t-6 155.5t0 151.5t0 129.5q3 10 10.5 11t17 -1.5t19.5 -6.5t18 -5q6 -42 6 -103.5t-1 -131t0 -141t9.5 -131.5t26.5 -103t51.5 -57t84 8.5t124.5 92.5q-4 65 -6.5 144t0.5 162.5t13 165t31 150.5
q17 0 33 0.5t24 -19.5q-15 -62 -23.5 -109t-12 -89.5t-4 -87t-0.5 -101.5q0 -52 3.5 -103t8 -102t8.5 -102t4 -103q-19 0 -36 7.5t-28.5 21t-16 31.5t1.5 39zM169 923l207 -151q1 0 1.5 -3.5t0.5 -5.5q0 -17 -14.5 -29t-24.5 -19q-15 12 -39.5 32.5t-52 41t-54 37
t-43.5 21.5z" />
    <glyph glyph-name="Oslash" unicode="&#xd8;" horiz-adv-x="538" 
d="M26 241q0 33 7 83t21 105t36 110.5t52 99.5t68.5 71.5t86.5 27.5q41 0 72 -18.5t53.5 -48.5t38 -69t24.5 -80t13 -80.5t4 -70.5q0 -66 -23 -132.5t-65.5 -119.5t-102.5 -86.5t-133 -33.5q-44 0 -73 25.5t-46.5 63t-25 79t-7.5 74.5zM102 240q0 -31 3.5 -61t15 -53
t32.5 -37.5t56 -14.5q31 0 66 15t66 39.5t53.5 55t29.5 61.5q0 7 0.5 24.5t1 37t0.5 37v24.5q0 29 -1 62t-6 65.5t-15.5 62.5t-28.5 53t-45.5 36.5t-66.5 13.5q-22 0 -42.5 -25.5t-38 -65.5t-32.5 -89t-25.5 -96t-16.5 -86t-6 -59zM-29 -53q0 2 0.5 5.5t0.5 4.5l487 842
q15 -8 29 -19.5t12 -30.5l-471 -830q0 -1 -6.5 -2t-9.5 -1q-15 0 -28.5 7t-13.5 24z" />
    <glyph glyph-name="Udieresis" unicode="&#xdc;" 
d="M396 94q-80 -68 -138.5 -87.5t-99 -3t-65 63t-38.5 111.5t-19 142.5t-6 155.5t0 151.5t0 129.5q3 10 10.5 11t17 -1.5t19.5 -6.5t18 -5q6 -42 6 -103.5t-1 -131t0 -141t9.5 -131.5t26.5 -103t51.5 -57t84 8.5t124.5 92.5q-4 65 -6.5 144t0.5 162.5t13 165t31 150.5
q17 0 33 0.5t24 -19.5q-15 -62 -23.5 -109t-12 -89.5t-4 -87t-0.5 -101.5q0 -52 3.5 -103t8 -102t8.5 -102t4 -103q-19 0 -36 7.5t-28.5 21t-16 31.5t1.5 39zM151 923q7 0 21 0.5t28 -2.5t24.5 -10.5t10.5 -22.5q0 -7 -1.5 -15.5t-4.5 -16t-8.5 -12.5t-14.5 -5q-15 0 -25 9
t-17 22t-10 27.5t-3 25.5zM293 923q7 0 21 0.5t28 -2.5t24.5 -10.5t10.5 -22.5q0 -7 -1.5 -15.5t-4.5 -16t-8.5 -12.5t-14.5 -5q-15 0 -25 9t-17 22t-10 27.5t-3 25.5z" />
    <glyph glyph-name="Ucircumflex" unicode="&#xdb;" 
d="M396 94q-80 -68 -138.5 -87.5t-99 -3t-65 63t-38.5 111.5t-19 142.5t-6 155.5t0 151.5t0 129.5q3 10 10.5 11t17 -1.5t19.5 -6.5t18 -5q6 -42 6 -103.5t-1 -131t0 -141t9.5 -131.5t26.5 -103t51.5 -57t84 8.5t124.5 92.5q-4 65 -6.5 144t0.5 162.5t13 165t31 150.5
q17 0 33 0.5t24 -19.5q-15 -62 -23.5 -109t-12 -89.5t-4 -87t-0.5 -101.5q0 -52 3.5 -103t8 -102t8.5 -102t4 -103q-19 0 -36 7.5t-28.5 21t-16 31.5t1.5 39zM102 912q0 5 -0.5 9.5t0.5 9.5q22 40 45.5 71.5t44 61.5t36.5 62.5t24 75.5q9 21 29 21q1 0 -3.5 5.5t-5.5 7.5
t5.5 -3t28.5 -26.5t64.5 -63t113.5 -112.5q14 -36 11.5 -53t-15.5 -20.5t-32.5 3.5t-38.5 21q-10 9 -23.5 23t-27.5 29.5t-27.5 30t-22.5 24.5l-131 -196q-10 -8 -22.5 -13.5t-23.5 -5t-19.5 8.5t-9.5 29z" />
    <glyph glyph-name="Uacute" unicode="&#xda;" 
d="M396 94q-80 -68 -138.5 -87.5t-99 -3t-65 63t-38.5 111.5t-19 142.5t-6 155.5t0 151.5t0 129.5q3 10 10.5 11t17 -1.5t19.5 -6.5t18 -5q6 -42 6 -103.5t-1 -131t0 -141t9.5 -131.5t26.5 -103t51.5 -57t84 8.5t124.5 92.5q-4 65 -6.5 144t0.5 162.5t13 165t31 150.5
q17 0 33 0.5t24 -19.5q-15 -62 -23.5 -109t-12 -89.5t-4 -87t-0.5 -101.5q0 -52 3.5 -103t8 -102t8.5 -102t4 -103q-19 0 -36 7.5t-28.5 21t-16 31.5t1.5 39zM433 1020q-19 -5 -48 -21.5t-59.5 -37t-58.5 -41t-44 -32.5q-5 3 -12.5 8t-14.5 11t-11.5 13.5t-4.5 15.5
q0 2 0.5 5.5t1.5 3.5l230 151z" />
    <glyph glyph-name="Yacute" unicode="&#xdd;" horiz-adv-x="604" 
d="M280 -33q-23 0 -36.5 18.5t-11.5 40.5q1 9 7.5 31t15 51t18 61t17.5 60t13 50t4 30q-45 58 -84.5 113.5t-75 112t-66 117t-57.5 128.5q3 10 9.5 14.5t14 5.5t16.5 0.5t17 -1.5q24 -52 51.5 -109t59.5 -112t70 -105.5t83 -88.5q42 104 72 175.5t50.5 118t32.5 71.5
t18.5 37t9 14t3.5 2q42 0 42 -41q0 -3 -1 -10t-1 -8l-283 -774q0 -1 -3 -1.5t-5 -0.5zM566 1067q-19 -5 -48 -21.5t-59.5 -37t-58.5 -41t-44 -32.5q-5 3 -12.5 8t-14.5 11t-11.5 13.5t-4.5 15.5q0 2 0.5 5.5t1.5 3.5l230 151z" />
    <glyph glyph-name="agrave" unicode="&#xe0;" horiz-adv-x="522" 
d="M26 263q-2 20 3 54.5t16 74t28 80.5t40 74.5t50.5 54t60.5 20.5q65 6 105.5 -25.5t66.5 -86.5l5 -323q0 -22 14 -37.5t34 -25.5t43.5 -14.5t42.5 -4.5l2 -73q-40 0 -65.5 6t-46 20t-39 36t-45.5 54q-12 -22 -29.5 -48t-40 -48t-48 -37t-53.5 -15q-47 0 -75.5 28.5
t-43.5 69.5t-20 86.5t-5 79.5zM99 255q0 -17 3 -47t11.5 -60t24 -52t41.5 -22q29 -3 49 15.5t36 54.5t31 87t33 114q17 82 7.5 129t-34 63.5t-58.5 4t-65 -50t-54 -97.5t-25 -139zM166 923l207 -151q1 0 1.5 -3.5t0.5 -5.5q0 -17 -14.5 -29t-24.5 -19q-15 12 -39.5 32.5
t-52 41t-54 37t-43.5 21.5z" />
    <glyph glyph-name="aacute" unicode="&#xe1;" horiz-adv-x="522" 
d="M26 263q-2 20 3 54.5t16 74t28 80.5t40 74.5t50.5 54t60.5 20.5q65 6 105.5 -25.5t66.5 -86.5l5 -323q0 -22 14 -37.5t34 -25.5t43.5 -14.5t42.5 -4.5l2 -73q-40 0 -65.5 6t-46 20t-39 36t-45.5 54q-12 -22 -29.5 -48t-40 -48t-48 -37t-53.5 -15q-47 0 -75.5 28.5
t-43.5 69.5t-20 86.5t-5 79.5zM99 255q0 -17 3 -47t11.5 -60t24 -52t41.5 -22q29 -3 49 15.5t36 54.5t31 87t33 114q17 82 7.5 129t-34 63.5t-58.5 4t-65 -50t-54 -97.5t-25 -139zM387 843q-19 -5 -48 -21.5t-59.5 -37t-58.5 -41t-44 -32.5q-5 3 -12.5 8t-14.5 11
t-11.5 13.5t-4.5 15.5q0 2 0.5 5.5t1.5 3.5l230 151z" />
    <glyph glyph-name="acircumflex" unicode="&#xe2;" horiz-adv-x="522" 
d="M26 263q-2 20 3 54.5t16 74t28 80.5t40 74.5t50.5 54t60.5 20.5q65 6 105.5 -25.5t66.5 -86.5l5 -323q0 -22 14 -37.5t34 -25.5t43.5 -14.5t42.5 -4.5l2 -73q-40 0 -65.5 6t-46 20t-39 36t-45.5 54q-12 -22 -29.5 -48t-40 -48t-48 -37t-53.5 -15q-47 0 -75.5 28.5
t-43.5 69.5t-20 86.5t-5 79.5zM99 255q0 -17 3 -47t11.5 -60t24 -52t41.5 -22q29 -3 49 15.5t36 54.5t31 87t33 114q17 82 7.5 129t-34 63.5t-58.5 4t-65 -50t-54 -97.5t-25 -139zM53 748q0 5 -0.5 9.5t0.5 9.5q22 40 45.5 71.5t44 61.5t36.5 62.5t24 75.5q9 21 29 21
q1 0 -3.5 5.5t-5.5 7.5t5.5 -3t28.5 -26.5t64.5 -63t113.5 -112.5q14 -36 11.5 -53t-15.5 -20.5t-32.5 3.5t-38.5 21q-10 9 -23.5 23t-27.5 29.5t-27.5 30t-22.5 24.5l-131 -196q-10 -8 -22.5 -13.5t-23.5 -5t-19.5 8.5t-9.5 29z" />
    <glyph glyph-name="atilde" unicode="&#xe3;" horiz-adv-x="522" 
d="M26 263q-2 20 3 54.5t16 74t28 80.5t40 74.5t50.5 54t60.5 20.5q65 6 105.5 -25.5t66.5 -86.5l5 -323q0 -22 14 -37.5t34 -25.5t43.5 -14.5t42.5 -4.5l2 -73q-40 0 -65.5 6t-46 20t-39 36t-45.5 54q-12 -22 -29.5 -48t-40 -48t-48 -37t-53.5 -15q-47 0 -75.5 28.5
t-43.5 69.5t-20 86.5t-5 79.5zM99 255q0 -17 3 -47t11.5 -60t24 -52t41.5 -22q29 -3 49 15.5t36 54.5t31 87t33 114q17 82 7.5 129t-34 63.5t-58.5 4t-65 -50t-54 -97.5t-25 -139zM23 719q8 22 16 50.5t19 54t28 43.5t43 18q6 3 21.5 4t41 -9t61.5 -35t83 -72q31 4 39.5 22
t9 40.5t0 45.5t12.5 38l15 -2.5t18.5 -4t17.5 -7t11 -11.5q2 -35 -0.5 -73.5t-14 -70t-35 -50.5t-64.5 -14q-42 21 -67.5 40.5t-44.5 34.5t-38 24t-47 9q-27 -11 -37.5 -23.5t-13 -24.5t-1 -22t-1.5 -16q-4 0 -14.5 0.5t-22 2t-21.5 3.5t-14 5z" />
    <glyph glyph-name="adieresis" unicode="&#xe4;" horiz-adv-x="522" 
d="M26 263q-2 20 3 54.5t16 74t28 80.5t40 74.5t50.5 54t60.5 20.5q65 6 105.5 -25.5t66.5 -86.5l5 -323q0 -22 14 -37.5t34 -25.5t43.5 -14.5t42.5 -4.5l2 -73q-40 0 -65.5 6t-46 20t-39 36t-45.5 54q-12 -22 -29.5 -48t-40 -48t-48 -37t-53.5 -15q-47 0 -75.5 28.5
t-43.5 69.5t-20 86.5t-5 79.5zM99 255q0 -17 3 -47t11.5 -60t24 -52t41.5 -22q29 -3 49 15.5t36 54.5t31 87t33 114q17 82 7.5 129t-34 63.5t-58.5 4t-65 -50t-54 -97.5t-25 -139zM148 768q7 0 21 0.5t28 -2.5t24.5 -10.5t10.5 -22.5q0 -7 -1.5 -15.5t-4.5 -16t-8.5 -12.5
t-14.5 -5q-15 0 -25 9t-17 22t-10 27.5t-3 25.5zM290 768q7 0 21 0.5t28 -2.5t24.5 -10.5t10.5 -22.5q0 -7 -1.5 -15.5t-4.5 -16t-8.5 -12.5t-14.5 -5q-15 0 -25 9t-17 22t-10 27.5t-3 25.5z" />
    <glyph glyph-name="aring" unicode="&#xe5;" horiz-adv-x="522" 
d="M26 263q-2 20 3 54.5t16 74t28 80.5t40 74.5t50.5 54t60.5 20.5q65 6 105.5 -25.5t66.5 -86.5l5 -323q0 -22 14 -37.5t34 -25.5t43.5 -14.5t42.5 -4.5l2 -73q-40 0 -65.5 6t-46 20t-39 36t-45.5 54q-12 -22 -29.5 -48t-40 -48t-48 -37t-53.5 -15q-47 0 -75.5 28.5
t-43.5 69.5t-20 86.5t-5 79.5zM99 255q0 -17 3 -47t11.5 -60t24 -52t41.5 -22q29 -3 49 15.5t36 54.5t31 87t33 114q17 82 7.5 129t-34 63.5t-58.5 4t-65 -50t-54 -97.5t-25 -139zM132 717q0 34 22 55.5t55 34.5q20 8 48 -3t54 -30.5t45.5 -43.5t22.5 -43q4 -26 -8.5 -47
t-33 -36t-45 -23t-45.5 -8q-38 0 -60.5 15.5t-34.5 37.5t-16 47t-4 44zM222 751q-32 -36 -34.5 -57t9.5 -33t31 -18.5t30 -13.5q9 0 19.5 1t19.5 4.5t15.5 11.5t9.5 22q3 18 -6 33.5t-25 26.5t-34.5 17t-34.5 6z" />
    <glyph glyph-name="ae" unicode="&#xe6;" horiz-adv-x="738" 
d="M44 272q-2 20 3 54.5t16 74t28 80.5t40 74.5t50.5 54t60.5 20.5q61 5 100 -22.5t65 -76.5q23 36 59.5 55.5t102.5 19.5q46 0 77.5 -21t31.5 -71q0 -55 -21.5 -93t-57 -64.5t-79.5 -43.5t-89 -30q0 -5 -0.5 -19t-0.5 -19q2 -35 9 -61.5t18 -46.5q9 -26 22.5 -42.5t40 -23
t70 -3t112.5 17.5q14 3 11 -10t-22 -30t-54 -31.5t-85 -15.5q-34 0 -58 7l-11 -19q-33 0 -52.5 7t-30.5 19t-15.5 28t-7.5 34.5t-6.5 39t-11.5 41.5q-12 -22 -29.5 -48t-40 -48t-48 -37t-53.5 -15q-47 0 -75.5 28.5t-43.5 69.5t-20 86.5t-5 79.5zM117 264q0 -17 3 -47
t11.5 -60t24 -52t41.5 -22q29 -3 49 15.5t36 54.5t31 87t33 114q17 82 7.5 129t-34 63.5t-58.5 4t-65 -50t-54 -97.5t-25 -139zM430 386q0 -8 3.5 -18t15.5 -10q24 0 51 11.5t49.5 29.5t37.5 41.5t15 47.5q0 25 -5 42.5t-33 17.5q-35 0 -60 -13t-41.5 -35.5t-24.5 -52
t-8 -61.5z" />
    <glyph glyph-name="ccedilla" unicode="&#xe7;" horiz-adv-x="396" 
d="M27 348q0 23 2 53.5t8 63.5t16.5 65t27 57t39.5 40.5t55 15.5q30 0 56.5 -11t46 -31t31 -47t11.5 -58q-28 0 -44 11t-29 24.5t-25.5 24.5t-32.5 11q-24 0 -39.5 -12t-25 -31.5t-14.5 -44t-6.5 -49t-1.5 -46.5v-36q0 -22 2.5 -51t9.5 -59.5t18 -59.5t28 -52t40.5 -37
t54.5 -14q16 0 28 6.5t23.5 15t24 15t28.5 6.5q0 -24 -12.5 -46t-31.5 -38t-43 -25.5t-46 -9.5q-35 0 -63.5 19t-50.5 49t-38 68t-26.5 77t-15.5 74.5t-5 61.5zM74 -149q19 24 28.5 29.5t14.5 0.5t9 -18t11.5 -25.5t21.5 -21.5t40 -7q18 4 32.5 13t14.5 18q0 23 -19 38.5
t-41.5 29.5t-41 29t-18.5 38q0 54 9 77t21 26t25 -10t21 -30.5t8.5 -36t-11.5 -26.5q0 -24 20.5 -39.5t45 -29.5t45 -29.5t20.5 -39.5q0 -19 -15 -34t-39 -25t-53.5 -15.5t-57.5 -5.5q-22 0 -40 9t-30.5 23t-18 30.5t-2.5 31.5z" />
    <glyph glyph-name="egrave" unicode="&#xe8;" horiz-adv-x="489" 
d="M-21 456q0 17 12.5 24t26.5 7q2 0 9.5 -1t9.5 -1q17 -68 30.5 -95t24.5 -32t20 4t18 15q13 53 26 95.5t35.5 72t58 45.5t94.5 16q46 0 77.5 -21t31.5 -71q0 -55 -21.5 -93t-57 -64.5t-79.5 -43.5t-89 -30q0 -5 -0.5 -19t-0.5 -19q6 -71 28 -109.5t51.5 -55t63 -16.5
t62 6.5t47.5 13t20 2.5q5 -13 1 -28t-20.5 -28t-48.5 -21.5t-82 -9.5q-43 0 -73.5 13t-51 35.5t-33 52t-20.5 62.5t-14 66.5t-12 64.5q-29 -22 -52.5 -9.5t-41 41.5t-30 66t-20.5 65zM205 386q0 -8 3.5 -18t15.5 -10q24 0 51 11.5t49.5 29.5t37.5 41.5t15 47.5q0 25 -5 42.5
t-33 17.5q-35 0 -60 -13t-41.5 -35.5t-24.5 -52t-8 -61.5zM149 923l207 -151q1 0 1.5 -3.5t0.5 -5.5q0 -17 -14.5 -29t-24.5 -19q-15 12 -39.5 32.5t-52 41t-54 37t-43.5 21.5z" />
    <glyph glyph-name="eacute" unicode="&#xe9;" horiz-adv-x="489" 
d="M-21 456q0 17 12.5 24t26.5 7q2 0 9.5 -1t9.5 -1q17 -68 30.5 -95t24.5 -32t20 4t18 15q13 53 26 95.5t35.5 72t58 45.5t94.5 16q46 0 77.5 -21t31.5 -71q0 -55 -21.5 -93t-57 -64.5t-79.5 -43.5t-89 -30q0 -5 -0.5 -19t-0.5 -19q6 -71 28 -109.5t51.5 -55t63 -16.5
t62 6.5t47.5 13t20 2.5q5 -13 1 -28t-20.5 -28t-48.5 -21.5t-82 -9.5q-43 0 -73.5 13t-51 35.5t-33 52t-20.5 62.5t-14 66.5t-12 64.5q-29 -22 -52.5 -9.5t-41 41.5t-30 66t-20.5 65zM205 386q0 -8 3.5 -18t15.5 -10q24 0 51 11.5t49.5 29.5t37.5 41.5t15 47.5q0 25 -5 42.5
t-33 17.5q-35 0 -60 -13t-41.5 -35.5t-24.5 -52t-8 -61.5zM371 843q-19 -5 -48 -21.5t-59.5 -37t-58.5 -41t-44 -32.5q-5 3 -12.5 8t-14.5 11t-11.5 13.5t-4.5 15.5q0 2 0.5 5.5t1.5 3.5l230 151z" />
    <glyph glyph-name="edieresis" unicode="&#xeb;" horiz-adv-x="489" 
d="M-21 456q0 17 12.5 24t26.5 7q2 0 9.5 -1t9.5 -1q17 -68 30.5 -95t24.5 -32t20 4t18 15q13 53 26 95.5t35.5 72t58 45.5t94.5 16q46 0 77.5 -21t31.5 -71q0 -55 -21.5 -93t-57 -64.5t-79.5 -43.5t-89 -30q0 -5 -0.5 -19t-0.5 -19q6 -71 28 -109.5t51.5 -55t63 -16.5
t62 6.5t47.5 13t20 2.5q5 -13 1 -28t-20.5 -28t-48.5 -21.5t-82 -9.5q-43 0 -73.5 13t-51 35.5t-33 52t-20.5 62.5t-14 66.5t-12 64.5q-29 -22 -52.5 -9.5t-41 41.5t-30 66t-20.5 65zM205 386q0 -8 3.5 -18t15.5 -10q24 0 51 11.5t49.5 29.5t37.5 41.5t15 47.5q0 25 -5 42.5
t-33 17.5q-35 0 -60 -13t-41.5 -35.5t-24.5 -52t-8 -61.5zM131 768q7 0 21 0.5t28 -2.5t24.5 -10.5t10.5 -22.5q0 -7 -1.5 -15.5t-4.5 -16t-8.5 -12.5t-14.5 -5q-15 0 -25 9t-17 22t-10 27.5t-3 25.5zM273 768q7 0 21 0.5t28 -2.5t24.5 -10.5t10.5 -22.5q0 -7 -1.5 -15.5
t-4.5 -16t-8.5 -12.5t-14.5 -5q-15 0 -25 9t-17 22t-10 27.5t-3 25.5z" />
    <glyph glyph-name="ecircumflex" unicode="&#xea;" horiz-adv-x="489" 
d="M-21 456q0 17 12.5 24t26.5 7q2 0 9.5 -1t9.5 -1q17 -68 30.5 -95t24.5 -32t20 4t18 15q13 53 26 95.5t35.5 72t58 45.5t94.5 16q46 0 77.5 -21t31.5 -71q0 -55 -21.5 -93t-57 -64.5t-79.5 -43.5t-89 -30q0 -5 -0.5 -19t-0.5 -19q6 -71 28 -109.5t51.5 -55t63 -16.5
t62 6.5t47.5 13t20 2.5q5 -13 1 -28t-20.5 -28t-48.5 -21.5t-82 -9.5q-43 0 -73.5 13t-51 35.5t-33 52t-20.5 62.5t-14 66.5t-12 64.5q-29 -22 -52.5 -9.5t-41 41.5t-30 66t-20.5 65zM205 386q0 -8 3.5 -18t15.5 -10q24 0 51 11.5t49.5 29.5t37.5 41.5t15 47.5q0 25 -5 42.5
t-33 17.5q-35 0 -60 -13t-41.5 -35.5t-24.5 -52t-8 -61.5zM37 748q0 5 -0.5 9.5t0.5 9.5q22 40 45.5 71.5t44 61.5t36.5 62.5t24 75.5q9 21 29 21q1 0 -3.5 5.5t-5.5 7.5t5.5 -3t28.5 -26.5t64.5 -63t113.5 -112.5q14 -36 11.5 -53t-15.5 -20.5t-32.5 3.5t-38.5 21
q-10 9 -23.5 23t-27.5 29.5t-27.5 30t-22.5 24.5l-131 -196q-10 -8 -22.5 -13.5t-23.5 -5t-19.5 8.5t-9.5 29z" />
    <glyph glyph-name="igrave" unicode="&#xec;" horiz-adv-x="151" 
d="M19 453q-1 10 5.5 14.5t16 5.5t19.5 0t16 -1q15 -52 26 -109.5t18 -116t10.5 -116t3.5 -111.5h-77zM-19 923l207 -151q1 0 1.5 -3.5t0.5 -5.5q0 -17 -14.5 -29t-24.5 -19q-15 12 -39.5 32.5t-52 41t-54 37t-43.5 21.5z" />
    <glyph glyph-name="iacute" unicode="&#xed;" horiz-adv-x="151" 
d="M19 453l38 -434h77q0 54 -3.5 111.5t-10.5 116t-18 116t-26 109.5q-6 0 -16 1t-19.5 0t-16 -5.5t-5.5 -14.5zM202 843q-19 -5 -48 -21.5t-59.5 -37t-58.5 -41t-44 -32.5q-5 3 -12.5 8t-14.5 11t-11.5 13.5t-4.5 15.5q0 2 0.5 5.5t1.5 3.5l230 151z" />
    <glyph glyph-name="icircumflex" unicode="&#xee;" horiz-adv-x="151" 
d="M19 453q-1 10 5.5 14.5t16 5.5t19.5 0t16 -1q15 -52 26 -109.5t18 -116t10.5 -116t3.5 -111.5h-77zM-133 748q0 5 -0.5 9.5t0.5 9.5q22 40 45.5 71.5t44 61.5t36.5 62.5t24 75.5q9 21 29 21l-4 5.5t-5 7.5t5.5 -3t28.5 -26.5t64.5 -63t113.5 -112.5q14 -36 11.5 -53
t-15.5 -20.5t-32.5 3.5t-38.5 21q-10 9 -23.5 23t-27.5 29.5t-27.5 30t-22.5 24.5l-131 -196q-10 -8 -22.5 -13.5t-23.5 -5t-19.5 8.5t-9.5 29z" />
    <glyph glyph-name="idieresis" unicode="&#xef;" horiz-adv-x="151" 
d="M19 453q-1 10 5.5 14.5t16 5.5t19.5 0t16 -1q15 -52 26 -109.5t18 -116t10.5 -116t3.5 -111.5h-77zM-37 768q7 0 21 0.5t28 -2.5t24.5 -10.5t10.5 -22.5q0 -7 -1.5 -15.5t-4.5 -16t-8.5 -12.5t-14.5 -5q-15 0 -25 9t-17 22t-10 27.5t-3 25.5zM105 768q7 0 21 0.5t28 -2.5
t24.5 -10.5t10.5 -22.5q0 -7 -1.5 -15.5t-4.5 -16t-8.5 -12.5t-14.5 -5q-15 0 -25 9t-17 22t-10 27.5t-3 25.5z" />
    <glyph glyph-name="ntilde" unicode="&#xf1;" 
d="M28 528q-1 11 8 15.5t22 6t25.5 0t19.5 -2.5q3 -10 7 -26.5t7.5 -35t5 -37t-0.5 -33.5q19 16 43 36t51 37t56 29t58 12q33 0 56 -17t39 -43t24.5 -56t12.5 -55q1 -5 3.5 -24.5t6 -47t7.5 -60.5t8 -65t7.5 -59.5t5.5 -44.5v-11q0 -17 -12 -22.5t-26 -5.5q-12 0 -22.5 2
t-15.5 18q-1 12 -3.5 37t-6 56.5t-8 66.5t-8 66.5t-7 56.5t-5.5 37q-2 14 -7 31t-14 31.5t-22 24.5t-31 10q-29 0 -58 -20t-55 -46t-46.5 -51t-30.5 -36q0 -59 9 -118t11 -122q0 -10 -0.5 -19.5t-4 -18t-11.5 -14.5t-23 -10q-8 -2 -22 5t-15 14l-38 509v0zM43 615
q8 22 16 50.5t19 54t28 43.5t43 18q6 3 21.5 4t41 -9t61.5 -35t83 -72q31 4 39.5 22t9 40.5t0 45.5t12.5 38l15 -2.5t18.5 -4t17.5 -7t11 -11.5q2 -35 -0.5 -73.5t-14 -70t-35 -50.5t-64.5 -14q-42 21 -67.5 40.5t-44.5 34.5t-38 24t-47 9q-27 -11 -37.5 -23.5t-13 -24.5
t-1 -22t-1.5 -16q-4 0 -14.5 0.5t-22 2t-21.5 3.5t-14 5z" />
    <glyph glyph-name="ograve" unicode="&#xf2;" horiz-adv-x="415" 
d="M27 169q-4 25 -3.5 65.5t8 86.5t22 92t37.5 81.5t54.5 55t72.5 13.5q61 0 98.5 -18.5t58 -50.5t27.5 -75.5t7 -93.5q5 -33 2 -71.5t-13.5 -76t-28.5 -71t-44.5 -59t-60.5 -39t-76 -9.5q-82 0 -121.5 45.5t-39.5 124.5zM102 206q0 -26 1 -49.5t8.5 -42t24 -29.5t46.5 -11
q40 0 71.5 28t53.5 67.5t34 82.5t12 73q0 49 -11.5 83t-28.5 55t-37.5 30.5t-38.5 11.5q-23 0 -43.5 -19.5t-37 -49t-28.5 -65t-19 -68.5t-9 -59.5t2 -37.5zM112 923l207 -151q1 0 1.5 -3.5t0.5 -5.5q0 -17 -14.5 -29t-24.5 -19q-15 12 -39.5 32.5t-52 41t-54 37t-43.5 21.5
z" />
    <glyph glyph-name="otilde" unicode="&#xf5;" horiz-adv-x="415" 
d="M27 169q-4 25 -3.5 65.5t8 86.5t22 92t37.5 81.5t54.5 55t72.5 13.5q61 0 98.5 -18.5t58 -50.5t27.5 -75.5t7 -93.5q5 -33 2 -71.5t-13.5 -76t-28.5 -71t-44.5 -59t-60.5 -39t-76 -9.5q-82 0 -121.5 45.5t-39.5 124.5zM102 206q0 -26 1 -49.5t8.5 -42t24 -29.5t46.5 -11
q40 0 71.5 28t53.5 67.5t34 82.5t12 73q0 49 -11.5 83t-28.5 55t-37.5 30.5t-38.5 11.5q-23 0 -43.5 -19.5t-37 -49t-28.5 -65t-19 -68.5t-9 -59.5t2 -37.5zM-12 615q8 22 16 50.5t19 54t28 43.5t43 18q6 3 21.5 4t41 -9t61.5 -35t83 -72q31 4 39.5 22t9 40.5t0 45.5
t12.5 38l15 -2.5t18.5 -4t17.5 -7t11 -11.5q2 -35 -0.5 -73.5t-14 -70t-35 -50.5t-64.5 -14q-42 21 -67.5 40.5t-44.5 34.5t-38 24t-47 9q-27 -11 -37.5 -23.5t-13 -24.5t-1 -22t-1.5 -16q-4 0 -14.5 0.5t-22 2t-21.5 3.5t-14 5z" />
    <glyph glyph-name="ocircumflex" unicode="&#xf4;" horiz-adv-x="415" 
d="M27 169q-4 25 -3.5 65.5t8 86.5t22 92t37.5 81.5t54.5 55t72.5 13.5q61 0 98.5 -18.5t58 -50.5t27.5 -75.5t7 -93.5q5 -33 2 -71.5t-13.5 -76t-28.5 -71t-44.5 -59t-60.5 -39t-76 -9.5q-82 0 -121.5 45.5t-39.5 124.5zM102 206q0 -26 1 -49.5t8.5 -42t24 -29.5t46.5 -11
q40 0 71.5 28t53.5 67.5t34 82.5t12 73q0 49 -11.5 83t-28.5 55t-37.5 30.5t-38.5 11.5q-23 0 -43.5 -19.5t-37 -49t-28.5 -65t-19 -68.5t-9 -59.5t2 -37.5zM0 748q0 5 -0.5 9.5t0.5 9.5q22 40 45.5 71.5t44 61.5t36.5 62.5t24 75.5q9 21 29 21q1 0 -3.5 5.5t-5.5 7.5
t5.5 -3t28.5 -26.5t64.5 -63t113.5 -112.5q14 -36 11.5 -53t-15.5 -20.5t-32.5 3.5t-38.5 21q-10 9 -23.5 23t-27.5 29.5t-27.5 30t-22.5 24.5l-131 -196q-10 -8 -22.5 -13.5t-23.5 -5t-19.5 8.5t-9.5 29z" />
    <glyph glyph-name="oacute" unicode="&#xf3;" horiz-adv-x="415" 
d="M27 169q-4 25 -3.5 65.5t8 86.5t22 92t37.5 81.5t54.5 55t72.5 13.5q61 0 98.5 -18.5t58 -50.5t27.5 -75.5t7 -93.5q5 -33 2 -71.5t-13.5 -76t-28.5 -71t-44.5 -59t-60.5 -39t-76 -9.5q-82 0 -121.5 45.5t-39.5 124.5zM102 206q0 -26 1 -49.5t8.5 -42t24 -29.5t46.5 -11
q40 0 71.5 28t53.5 67.5t34 82.5t12 73q0 49 -11.5 83t-28.5 55t-37.5 30.5t-38.5 11.5q-23 0 -43.5 -19.5t-37 -49t-28.5 -65t-19 -68.5t-9 -59.5t2 -37.5zM334 843q-19 -5 -48 -21.5t-59.5 -37t-58.5 -41t-44 -32.5q-5 3 -12.5 8t-14.5 11t-11.5 13.5t-4.5 15.5
q0 2 0.5 5.5t1.5 3.5l230 151z" />
    <glyph glyph-name="odieresis" unicode="&#xf6;" horiz-adv-x="415" 
d="M27 169q-4 25 -3.5 65.5t8 86.5t22 92t37.5 81.5t54.5 55t72.5 13.5q61 0 98.5 -18.5t58 -50.5t27.5 -75.5t7 -93.5q5 -33 2 -71.5t-13.5 -76t-28.5 -71t-44.5 -59t-60.5 -39t-76 -9.5q-82 0 -121.5 45.5t-39.5 124.5zM102 206q0 -26 1 -49.5t8.5 -42t24 -29.5t46.5 -11
q40 0 71.5 28t53.5 67.5t34 82.5t12 73q0 49 -11.5 83t-28.5 55t-37.5 30.5t-38.5 11.5q-23 0 -43.5 -19.5t-37 -49t-28.5 -65t-19 -68.5t-9 -59.5t2 -37.5zM96 768q7 0 21 0.5t28 -2.5t24.5 -10.5t10.5 -22.5q0 -7 -1.5 -15.5t-4.5 -16t-8.5 -12.5t-14.5 -5q-15 0 -25 9
t-17 22t-10 27.5t-3 25.5zM238 768q7 0 21 0.5t28 -2.5t24.5 -10.5t10.5 -22.5q0 -7 -1.5 -15.5t-4.5 -16t-8.5 -12.5t-14.5 -5q-15 0 -25 9t-17 22t-10 27.5t-3 25.5z" />
    <glyph glyph-name="divide" unicode="&#xf7;" horiz-adv-x="380" 
d="M28 281q-15 7 -18 18.5t1.5 22.5t14.5 20.5t21 13.5q10 1 30.5 2.5t46.5 3t54.5 4t55 4t47 3t30.5 2.5h11q17 0 23 -12.5t6 -26.5q0 -12 -5.5 -19t-14 -10.5t-19 -4.5t-20.5 -2t-30.5 -2.5t-47 -3t-55 -4t-54.5 -4t-46.5 -3t-30.5 -2.5zM147 148q11 23 24 31.5t34 8.5
q17 0 26.5 -7.5t9.5 -32.5q0 -39 -27 -39q-19 0 -38 11.5t-29 27.5zM146 478q0 18 15 33t33 15q15 0 22.5 -10t10 -24t2.5 -28v-21h-21.5t-27.5 2.5t-24 10t-10 22.5z" />
    <glyph glyph-name="oslash" unicode="&#xf8;" horiz-adv-x="415" 
d="M27 169q-4 25 -3.5 65.5t8 86.5t22 92t37.5 81.5t54.5 55t72.5 13.5q61 0 98.5 -18.5t58 -50.5t27.5 -75.5t7 -93.5q5 -33 2 -71.5t-13.5 -76t-28.5 -71t-44.5 -59t-60.5 -39t-76 -9.5q-82 0 -121.5 45.5t-39.5 124.5zM102 206q0 -26 1 -49.5t8.5 -42t24 -29.5t46.5 -11
q40 0 71.5 28t53.5 67.5t34 82.5t12 73q0 49 -11.5 83t-28.5 55t-37.5 30.5t-38.5 11.5q-23 0 -43.5 -19.5t-37 -49t-28.5 -65t-19 -68.5t-9 -59.5t2 -37.5zM-22.2676 -108.551q0 1.74609 0.419922 4.80176q0.420898 3.05664 0.420898 3.92969l409.807 735.208
q12.6221 -6.98535 24.4033 -17.0264q11.7812 -10.042 10.0977 -26.6318l-396.343 -724.73q0 -0.873047 -5.46973 -1.74609t-7.99414 -0.873047q-12.6221 0 -23.9824 6.11133q-11.3594 6.1123 -11.3594 20.957z" />
    <glyph glyph-name="ugrave" unicode="&#xf9;" horiz-adv-x="500" 
d="M217 0q-48 17 -82 54.5t-56.5 86.5t-34.5 106t-14.5 112t2 104t15.5 84q2 0 9.5 1t9.5 1q12 0 22 -2.5t15 -18.5q-4 -51 -5 -92.5t3 -80.5t13.5 -79t26.5 -87q15 -49 35 -69t43 -18t46.5 22t45 50.5t39 67.5t28.5 73.5t14 68t-6 50.5q0 2 -3 10.5t-6 18t-6 18t-3 10.5
q0 11 10 15t18 4q40 -17 54 -60t7.5 -98.5t-30 -115.5t-56.5 -111.5t-73.5 -86t-80.5 -38.5zM155 923l207 -151q1 0 1.5 -3.5t0.5 -5.5q0 -17 -14.5 -29t-24.5 -19q-15 12 -39.5 32.5t-52 41t-54 37t-43.5 21.5z" />
    <glyph glyph-name="uacute" unicode="&#xfa;" horiz-adv-x="500" 
d="M217 0q-48 17 -82 54.5t-56.5 86.5t-34.5 106t-14.5 112t2 104t15.5 84q2 0 9.5 1t9.5 1q12 0 22 -2.5t15 -18.5q-4 -51 -5 -92.5t3 -80.5t13.5 -79t26.5 -87q15 -49 35 -69t43 -18t46.5 22t45 50.5t39 67.5t28.5 73.5t14 68t-6 50.5q0 2 -3 10.5t-6 18t-6 18t-3 10.5
q0 11 10 15t18 4q40 -17 54 -60t7.5 -98.5t-30 -115.5t-56.5 -111.5t-73.5 -86t-80.5 -38.5zM376 843q-19 -5 -48 -21.5t-59.5 -37t-58.5 -41t-44 -32.5q-5 3 -12.5 8t-14.5 11t-11.5 13.5t-4.5 15.5q0 2 0.5 5.5t1.5 3.5l230 151z" />
    <glyph glyph-name="ucircumflex" unicode="&#xfb;" horiz-adv-x="500" 
d="M217 0q-48 17 -82 54.5t-56.5 86.5t-34.5 106t-14.5 112t2 104t15.5 84q2 0 9.5 1t9.5 1q12 0 22 -2.5t15 -18.5q-4 -51 -5 -92.5t3 -80.5t13.5 -79t26.5 -87q15 -49 35 -69t43 -18t46.5 22t45 50.5t39 67.5t28.5 73.5t14 68t-6 50.5q0 2 -3 10.5t-6 18t-6 18t-3 10.5
q0 11 10 15t18 4q40 -17 54 -60t7.5 -98.5t-30 -115.5t-56.5 -111.5t-73.5 -86t-80.5 -38.5zM42 748q0 5 -0.5 9.5t0.5 9.5q22 40 45.5 71.5t44 61.5t36.5 62.5t24 75.5q9 21 29 21q1 0 -3.5 5.5t-5.5 7.5t5.5 -3t28.5 -26.5t64.5 -63t113.5 -112.5q14 -36 11.5 -53
t-15.5 -20.5t-32.5 3.5t-38.5 21q-10 9 -23.5 23t-27.5 29.5t-27.5 30t-22.5 24.5l-131 -196q-10 -8 -22.5 -13.5t-23.5 -5t-19.5 8.5t-9.5 29z" />
    <glyph glyph-name="udieresis" unicode="&#xfc;" horiz-adv-x="500" 
d="M217 0q-48 17 -82 54.5t-56.5 86.5t-34.5 106t-14.5 112t2 104t15.5 84q2 0 9.5 1t9.5 1q12 0 22 -2.5t15 -18.5q-4 -51 -5 -92.5t3 -80.5t13.5 -79t26.5 -87q15 -49 35 -69t43 -18t46.5 22t45 50.5t39 67.5t28.5 73.5t14 68t-6 50.5q0 2 -3 10.5t-6 18t-6 18t-3 10.5
q0 11 10 15t18 4q40 -17 54 -60t7.5 -98.5t-30 -115.5t-56.5 -111.5t-73.5 -86t-80.5 -38.5zM137 768q7 0 21 0.5t28 -2.5t24.5 -10.5t10.5 -22.5q0 -7 -1.5 -15.5t-4.5 -16t-8.5 -12.5t-14.5 -5q-15 0 -25 9t-17 22t-10 27.5t-3 25.5zM279 768q7 0 21 0.5t28 -2.5
t24.5 -10.5t10.5 -22.5q0 -7 -1.5 -15.5t-4.5 -16t-8.5 -12.5t-14.5 -5q-15 0 -25 9t-17 22t-10 27.5t-3 25.5z" />
    <glyph glyph-name="yacute" unicode="&#xfd;" horiz-adv-x="574" 
d="M197 -245q18 69 42 134.5t53 138.5q-27 59 -61.5 113t-72 113t-76.5 127.5t-75 157.5q0 16 4 31.5t25 15.5q11 0 16.5 -4.5t11.5 -15.5l265 -415l169 396q5 11 12 15.5t17 4.5q13 -1 20 -9t9.5 -20t2 -24.5t-3.5 -22.5l-283 -736q-2 -5 -9 -12t-10 -7t-11.5 2t-17.5 5
t-16.5 6.5t-10.5 5.5zM413 843q-19 -5 -48 -21.5t-59.5 -37t-58.5 -41t-44 -32.5q-5 3 -12.5 8t-14.5 11t-11.5 13.5t-4.5 15.5q0 2 0.5 5.5t1.5 3.5l230 151z" />
    <glyph glyph-name="ydieresis" unicode="&#xff;" horiz-adv-x="574" 
d="M197 -245q18 69 42 134.5t53 138.5q-27 59 -61.5 113t-72 113t-76.5 127.5t-75 157.5q0 16 4 31.5t25 15.5q11 0 16.5 -4.5t11.5 -15.5l265 -415l169 396q5 11 12 15.5t17 4.5q13 -1 20 -9t9.5 -20t2 -24.5t-3.5 -22.5l-283 -736q-2 -5 -9 -12t-10 -7t-11.5 2t-17.5 5
t-16.5 6.5t-10.5 5.5zM174 768q7 0 21 0.5t28 -2.5t24.5 -10.5t10.5 -22.5q0 -7 -1.5 -15.5t-4.5 -16t-8.5 -12.5t-14.5 -5q-15 0 -25 9t-17 22t-10 27.5t-3 25.5zM316 768q7 0 21 0.5t28 -2.5t24.5 -10.5t10.5 -22.5q0 -7 -1.5 -15.5t-4.5 -16t-8.5 -12.5t-14.5 -5
q-15 0 -25 9t-17 22t-10 27.5t-3 25.5z" />
    <glyph glyph-name="commaaccent" horiz-adv-x="512" 
d="M165 -302q23 20 35.5 52.5t23 62.5t21.5 51t31 20q9 -5 11.5 -22t-0.5 -40t-11 -48.5t-20 -48t-28 -38t-34 -18.5q-12 0 -20.5 8.5t-8.5 20.5z" />
    <glyph glyph-name="macron" unicode="&#xaf;" horiz-adv-x="582" 
d="M101 765q-15 7 -18 18.5t1.5 22.5t14.5 20.5t21 13.5q10 1 30.5 2.5t46.5 3t54.5 4t55 4t47 3t30.5 2.5h11q17 0 23 -12.5t6 -26.5q0 -12 -5.5 -19t-14 -10.5t-19 -4.5t-20.5 -2t-30.5 -2.5t-47 -3t-55 -4t-54.5 -4t-46.5 -3t-30.5 -2.5z" />
    <glyph glyph-name="Abreve" unicode="&#x102;" horiz-adv-x="483" 
d="M340 340q-8 0 -26.5 -2.5t-39.5 -5.5t-40 -6.5t-26 -4.5q-1 0 -3 -3t-6.5 -13.5t-12.5 -31.5t-20 -58.5t-29.5 -94t-41.5 -137.5h-75q3 7 9 27t13.5 47t15.5 57.5t15 57.5t12.5 47t8.5 26t6 15l6 18t5 16t2 8t-6 4t-12.5 5.5t-12.5 5t-6 4.5q-1 1 -1.5 7t-0.5 10
q0 16 7 26t18 16.5t24.5 10t27.5 5.5q32 117 57.5 236.5t55.5 235.5q6 10 14 20.5t18.5 19.5t22 15t25.5 6q3 0 9 -1.5t6 -2.5l56 -491q4 3 14.5 6.5t22.5 6.5t23 5t16 1q3 -1 9 -5.5t12 -10.5t11 -12t5 -10q-8 -12 -22 -21t-29.5 -16t-32 -11.5t-29.5 -8.5
q18 -88 21.5 -184.5t3.5 -184.5q-29 0 -46 19.5t-26 50t-12 69.5t-4.5 78t-3.5 74.5t-8 59.5zM302 755q-20 -85 -39 -170.5t-36 -178.5v-10l113 19v8q-1 13 -4 38.5t-6.5 58t-7.5 68.5t-8 68.5t-7.5 59t-4.5 39.5zM74 1107q1 12 9 16.5t18 4.5t21.5 -3.5t20.5 -7.5
q45 -39 77.5 -57t55.5 -21.5t38.5 3.5t25.5 17.5t16.5 21t12.5 13.5q18 8 36 12.5t29.5 2t14 -12t-10.5 -30.5q-55 -51 -94.5 -73.5t-69 -25.5t-53 10t-45.5 33.5t-46 44t-56 41.5q-1 3 -0.5 5.5t0.5 5.5z" />
    <glyph glyph-name="Amacron" unicode="&#x100;" horiz-adv-x="483" 
d="M340 340q-8 0 -26.5 -2.5t-39.5 -5.5t-40 -6.5t-26 -4.5q-1 0 -3 -3t-6.5 -13.5t-12.5 -31.5t-20 -58.5t-29.5 -94t-41.5 -137.5h-75q3 7 9 27t13.5 47t15.5 57.5t15 57.5t12.5 47t8.5 26t6 15l6 18t5 16t2 8t-6 4t-12.5 5.5t-12.5 5t-6 4.5q-1 1 -1.5 7t-0.5 10
q0 16 7 26t18 16.5t24.5 10t27.5 5.5q32 117 57.5 236.5t55.5 235.5q6 10 14 20.5t18.5 19.5t22 15t25.5 6q3 0 9 -1.5t6 -2.5l56 -491q4 3 14.5 6.5t22.5 6.5t23 5t16 1q3 -1 9 -5.5t12 -10.5t11 -12t5 -10q-8 -12 -22 -21t-29.5 -16t-32 -11.5t-29.5 -8.5
q18 -88 21.5 -184.5t3.5 -184.5q-29 0 -46 19.5t-26 50t-12 69.5t-4.5 78t-3.5 74.5t-8 59.5zM302 755q-20 -85 -39 -170.5t-36 -178.5v-10l113 19v8q-1 13 -4 38.5t-6.5 58t-7.5 68.5t-8 68.5t-7.5 59t-4.5 39.5zM126 968q-15 7 -18 18.5t1.5 22.5t14.5 20.5t21 13.5
q10 1 30.5 2.5t46.5 3t54.5 4t55 4t47 3t30.5 2.5h11q17 0 23 -12.5t6 -26.5q0 -12 -5.5 -19t-14 -10.5t-19 -4.5t-20.5 -2t-30.5 -2.5t-47 -3t-55 -4t-54.5 -4t-46.5 -3t-30.5 -2.5z" />
    <glyph glyph-name="Aogonek" unicode="&#x104;" horiz-adv-x="483" 
d="M340 340q-8 0 -26.5 -2.5t-39.5 -5.5t-40 -6.5t-26 -4.5q-1 0 -3 -3t-6.5 -13.5t-12.5 -31.5t-20 -58.5t-29.5 -94t-41.5 -137.5h-75q3 7 9 27t13.5 47t15.5 57.5t15 57.5t12.5 47t8.5 26t6 15l6 18t5 16t2 8t-6 4t-12.5 5.5t-12.5 5t-6 4.5q-1 1 -1.5 7t-0.5 10
q0 16 7 26t18 16.5t24.5 10t27.5 5.5q32 117 57.5 236.5t55.5 235.5q6 10 14 20.5t18.5 19.5t22 15t25.5 6q3 0 9 -1.5t6 -2.5l56 -491q4 3 14.5 6.5t22.5 6.5t23 5t16 1q3 -1 9 -5.5t12 -10.5t11 -12t5 -10q-8 -12 -22 -21t-29.5 -16t-32 -11.5t-29.5 -8.5
q18 -88 21.5 -184.5t3.5 -184.5q-29 0 -46 19.5t-26 50t-12 69.5t-4.5 78t-3.5 74.5t-8 59.5zM302 755q-20 -85 -39 -170.5t-36 -178.5v-10l113 19v8q-1 13 -4 38.5t-6.5 58t-7.5 68.5t-8 68.5t-7.5 59t-4.5 39.5zM561 -99q0 -24 -14 -36t-35.5 -16.5t-46 -4.5h-43.5
q-38 0 -60.5 15.5t-34.5 37.5t-16 47t-4 44q0 34 22 55.5t55 34.5q11 4 16.5 -0.5t8 -13.5t1.5 -19.5t-3 -18.5t-5 -10t-5 6q-25 -30 -29 -52t5 -37.5t27.5 -24t38.5 -12t38 -2t27 7.5z" />
    <glyph glyph-name="AEacute" unicode="&#x1fc;" horiz-adv-x="889" 
d="M340 340q-8 0 -26.5 -2.5t-39.5 -5.5t-40 -6.5t-26 -4.5q-1 0 -3 -3t-6.5 -13.5t-12.5 -31.5t-20 -58.5t-29.5 -94t-41.5 -137.5h-75q3 7 9 27t13.5 47t15.5 57.5t15 57.5t12.5 47t8.5 26t6 15l6 18t5 16t2 8t-6 4t-12.5 5.5t-12.5 5t-6 4.5q-1 1 -1.5 7t-0.5 10
q0 16 7 26t18 16.5t24.5 10t27.5 5.5q32 117 57.5 236.5t55.5 235.5q6 10 14 20.5t18.5 19.5t22 15t25.5 6q3 0 9 -1.5t6 -2.5l56 -491q4 3 14.5 6.5t22.5 6.5t23 5t16 1q3 -1 9 -5.5t12 -10.5t11 -12t5 -10q-8 -12 -22 -21t-29.5 -16t-32 -11.5t-29.5 -8.5
q18 -88 21.5 -184.5t3.5 -184.5q-29 0 -46 19.5t-26 50t-12 69.5t-4.5 78t-3.5 74.5t-8 59.5zM302 755q-20 -85 -39 -170.5t-36 -178.5v-10l113 19v8q-1 13 -4 38.5t-6.5 58t-7.5 68.5t-8 68.5t-7.5 59t-4.5 39.5zM383 743q2 8 33.5 16t79 14.5t103.5 11.5t107 8.5t89.5 5.5
t51.5 2q10 0 22 -1t21.5 -4.5t16 -11t6.5 -20.5q0 -20 -19 -30.5t-51 -15t-72.5 -4.5t-83.5 0.5t-85 0.5t-76.5 -4.5t-57.5 -14t-28 -28.5q3 -12 1.5 -32.5t-4 -44.5t-3.5 -50t3 -50q27 -2 62.5 -1.5t73.5 1.5t75.5 2.5t67.5 2.5q0 -31 -9.5 -48t-47.5 -28q-14 -3 -45 -4
t-66 -1t-66 -0.5t-45 -1.5q1 -42 2 -88.5t0 -90t-3.5 -80t-7.5 -59.5q22 2 52 1.5t64 -2t70 -2t68.5 0.5t60 5.5t45.5 14.5q39 0 39 -27q1 -5 -1.5 -12.5t-6.5 -15t-7.5 -13.5t-4.5 -7l-377 -38q-8 -1 -18.5 4.5t-19.5 14.5t-15 19t-4 19zM671 1080q-19 -5 -48 -21.5
t-59.5 -37t-58.5 -41t-44 -32.5q-5 3 -12.5 8t-14.5 11t-11.5 13.5t-4.5 15.5q0 2 0.5 5.5t1.5 3.5l230 151z" />
    <glyph glyph-name="Cacute" unicode="&#x106;" horiz-adv-x="531" 
d="M17 444q4 61 21 121.5t43 115t58.5 99.5t67.5 75.5t70 43t65.5 1.5t54.5 -48.5t38 -107.5q-2 0 -9.5 1t-16 2.5t-16 3.5t-9.5 3q-24 43 -49 56t-49.5 5t-47.5 -33.5t-43.5 -61t-37.5 -76.5t-29.5 -80.5t-20 -73.5t-8.5 -54q-1 -24 0.5 -58t7 -72.5t16 -77t28.5 -70.5
t44 -55t62 -29q34 0 62.5 18t54.5 39.5t52.5 39.5t57.5 18q4 0 11 -7.5t7 -11.5q-26 -30 -52 -61t-55.5 -56t-63 -41t-74.5 -16q-44 0 -78.5 22.5t-61.5 59.5t-46 84t-31 97t-17.5 98t-5.5 87zM431 1093q-19 -5 -48 -21.5t-59.5 -37t-58.5 -41t-44 -32.5q-5 3 -12.5 8
t-14.5 11t-11.5 13.5t-4.5 15.5q0 2 0.5 5.5t1.5 3.5l230 151z" />
    <glyph glyph-name="Ccaron" unicode="&#x10c;" horiz-adv-x="531" 
d="M17 444q4 61 21 121.5t43 115t58.5 99.5t67.5 75.5t70 43t65.5 1.5t54.5 -48.5t38 -107.5q-2 0 -9.5 1t-16 2.5t-16 3.5t-9.5 3q-24 43 -49 56t-49.5 5t-47.5 -33.5t-43.5 -61t-37.5 -76.5t-29.5 -80.5t-20 -73.5t-8.5 -54q-1 -24 0.5 -58t7 -72.5t16 -77t28.5 -70.5
t44 -55t62 -29q34 0 62.5 18t54.5 39.5t52.5 39.5t57.5 18q4 0 11 -7.5t7 -11.5q-26 -30 -52 -61t-55.5 -56t-63 -41t-74.5 -16q-44 0 -78.5 22.5t-61.5 59.5t-46 84t-31 97t-17.5 98t-5.5 87zM75 1220q1 12 9 16.5t18 4.5t21.5 -3.5t20.5 -7.5l157 -172q9 6 33.5 22.5
t53 35.5t53.5 35t34 21q18 8 36 12.5t29.5 2t14 -12t-10.5 -30.5q-65 -40 -110 -68t-75 -46t-46.5 -27.5t-24.5 -14t-10 -5.5l-2 -1q-18 0 -27 12q-7 24 -27.5 52t-46 56.5t-53 56t-47.5 50.5q-1 3 -0.5 5.5t0.5 5.5z" />
    <glyph glyph-name="Ccircumflex" unicode="&#x108;" horiz-adv-x="531" 
d="M17 444q4 61 21 121.5t43 115t58.5 99.5t67.5 75.5t70 43t65.5 1.5t54.5 -48.5t38 -107.5q-2 0 -9.5 1t-16 2.5t-16 3.5t-9.5 3q-24 43 -49 56t-49.5 5t-47.5 -33.5t-43.5 -61t-37.5 -76.5t-29.5 -80.5t-20 -73.5t-8.5 -54q-1 -24 0.5 -58t7 -72.5t16 -77t28.5 -70.5
t44 -55t62 -29q34 0 62.5 18t54.5 39.5t52.5 39.5t57.5 18q4 0 11 -7.5t7 -11.5q-26 -30 -52 -61t-55.5 -56t-63 -41t-74.5 -16q-44 0 -78.5 22.5t-61.5 59.5t-46 84t-31 97t-17.5 98t-5.5 87zM58 925q0 5 -0.5 9.5t0.5 9.5q22 40 45.5 71.5t44 61.5t36.5 62.5t24 75.5
q9 21 29 21q1 0 -3.5 5.5t-5.5 7.5t5.5 -3t28.5 -26.5t64.5 -63t113.5 -112.5q14 -36 11.5 -53t-15.5 -20.5t-32.5 3.5t-38.5 21q-10 9 -23.5 23t-27.5 29.5t-27.5 30t-22.5 24.5l-131 -196q-10 -8 -22.5 -13.5t-23.5 -5t-19.5 8.5t-9.5 29z" />
    <glyph glyph-name="Cdotaccent" unicode="&#x10a;" horiz-adv-x="531" 
d="M17 444q4 61 21 121.5t43 115t58.5 99.5t67.5 75.5t70 43t65.5 1.5t54.5 -48.5t38 -107.5q-2 0 -9.5 1t-16 2.5t-16 3.5t-9.5 3q-24 43 -49 56t-49.5 5t-47.5 -33.5t-43.5 -61t-37.5 -76.5t-29.5 -80.5t-20 -73.5t-8.5 -54q-1 -24 0.5 -58t7 -72.5t16 -77t28.5 -70.5
t44 -55t62 -29q34 0 62.5 18t54.5 39.5t52.5 39.5t57.5 18q4 0 11 -7.5t7 -11.5q-26 -30 -52 -61t-55.5 -56t-63 -41t-74.5 -16q-44 0 -78.5 22.5t-61.5 59.5t-46 84t-31 97t-17.5 98t-5.5 87zM231 1044q7 0 21 0.5t28 -2.5t24.5 -10.5t10.5 -22.5q0 -7 -1.5 -15.5t-4.5 -16
t-8.5 -12.5t-14.5 -5q-15 0 -25 9t-17 22t-10 27.5t-3 25.5z" />
    <glyph glyph-name="Dcaron" unicode="&#x10e;" horiz-adv-x="642" 
d="M42 724q-4 6 -5 16.5t-0.5 22t1.5 22t1 17.5q0 17 13.5 25t34 10t44.5 -0.5t46 -6t38.5 -7t21.5 -3.5q78 0 145.5 -33.5t117 -90.5t78 -132.5t28.5 -159.5q-4 -52 -30 -107t-67.5 -105t-95 -91.5t-113.5 -67t-122 -31t-121 16.5zM132 75h19q36 0 79.5 13.5t87.5 37
t85 55.5t73 69t51.5 76.5t19.5 79.5q0 24 -8.5 62.5t-28 81t-52 83.5t-80 71t-112.5 44.5t-150 2.5zM131 1068q1 12 9 16.5t18 4.5t21.5 -3.5t20.5 -7.5l157 -172q9 6 33.5 22.5t53 35.5t53.5 35t34 21q18 8 36 12.5t29.5 2t14 -12t-10.5 -30.5q-65 -40 -110 -68t-75 -46
t-46.5 -27.5t-24.5 -14t-10 -5.5l-2 -1q-18 0 -27 12q-7 24 -27.5 52t-46 56.5t-53 56t-47.5 50.5q-1 3 -0.5 5.5t0.5 5.5z" />
    <glyph glyph-name="Dcroat" unicode="&#x110;" horiz-adv-x="642" 
d="M42 724q-4 6 -5 16.5t-0.5 22t1.5 22t1 17.5q0 17 13.5 25t34 10t44.5 -0.5t46 -6t38.5 -7t21.5 -3.5q78 0 145.5 -33.5t117 -90.5t78 -132.5t28.5 -159.5q-4 -52 -30 -107t-67.5 -105t-95 -91.5t-113.5 -67t-122 -31t-121 16.5zM132 75h19q36 0 79.5 13.5t87.5 37
t85 55.5t73 69t51.5 76.5t19.5 79.5q0 24 -8.5 62.5t-28 81t-52 83.5t-80 71t-112.5 44.5t-150 2.5zM-14 348q-15 7 -18 18.5t1.5 22.5t14.5 20.5t21 13.5q10 1 30.5 2.5t46.5 3t54.5 4t55 4t47 3t30.5 2.5h11q17 0 23 -12.5t6 -26.5q0 -12 -5.5 -19t-14 -10.5t-19 -4.5
t-20.5 -2t-30.5 -2.5t-47 -3t-55 -4t-54.5 -4t-46.5 -3t-30.5 -2.5z" />
    <glyph glyph-name="Ebreve" unicode="&#x114;" horiz-adv-x="539" 
d="M38 743q2 8 33.5 16t79 14.5t103.5 11.5t107 8.5t89.5 5.5t51.5 2q10 0 22 -1t21.5 -4.5t16 -11t6.5 -20.5q0 -20 -19 -30.5t-51 -15t-72.5 -4.5t-83.5 0.5t-85 0.5t-76.5 -4.5t-57.5 -14t-28 -28.5q3 -12 1.5 -32.5t-4 -44.5t-3.5 -50t3 -50q27 -2 62.5 -1.5t73.5 1.5
t75.5 2.5t67.5 2.5q0 -31 -9.5 -48t-47.5 -28q-14 -3 -45 -4t-66 -1t-66 -0.5t-45 -1.5q1 -42 2 -88.5t0 -90t-3.5 -80t-7.5 -59.5q22 2 52 1.5t64 -2t70 -2t68.5 0.5t60 5.5t45.5 14.5q39 0 39 -27q1 -5 -1.5 -12.5t-6.5 -15t-7.5 -13.5t-4.5 -7l-377 -38q-8 -1 -18.5 4.5
t-19.5 14.5t-15 19t-4 19zM98 1003q1 12 9 16.5t18 4.5t21.5 -3.5t20.5 -7.5q45 -39 77.5 -57t55.5 -21.5t38.5 3.5t25.5 17.5t16.5 21t12.5 13.5q18 8 36 12.5t29.5 2t14 -12t-10.5 -30.5q-55 -51 -94.5 -73.5t-69 -25.5t-53 10t-45.5 33.5t-46 44t-56 41.5q-1 3 -0.5 5.5
t0.5 5.5z" />
    <glyph glyph-name="Ecaron" unicode="&#x11a;" horiz-adv-x="539" 
d="M38 743q2 8 33.5 16t79 14.5t103.5 11.5t107 8.5t89.5 5.5t51.5 2q10 0 22 -1t21.5 -4.5t16 -11t6.5 -20.5q0 -20 -19 -30.5t-51 -15t-72.5 -4.5t-83.5 0.5t-85 0.5t-76.5 -4.5t-57.5 -14t-28 -28.5q3 -12 1.5 -32.5t-4 -44.5t-3.5 -50t3 -50q27 -2 62.5 -1.5t73.5 1.5
t75.5 2.5t67.5 2.5q0 -31 -9.5 -48t-47.5 -28q-14 -3 -45 -4t-66 -1t-66 -0.5t-45 -1.5q1 -42 2 -88.5t0 -90t-3.5 -80t-7.5 -59.5q22 2 52 1.5t64 -2t70 -2t68.5 0.5t60 5.5t45.5 14.5q39 0 39 -27q1 -5 -1.5 -12.5t-6.5 -15t-7.5 -13.5t-4.5 -7l-377 -38q-8 -1 -18.5 4.5
t-19.5 14.5t-15 19t-4 19zM20 1176q1 12 9 16.5t18 4.5t21.5 -3.5t20.5 -7.5l157 -172q9 6 33.5 22.5t53 35.5t53.5 35t34 21q18 8 36 12.5t29.5 2t14 -12t-10.5 -30.5q-65 -40 -110 -68t-75 -46t-46.5 -27.5t-24.5 -14t-10 -5.5l-2 -1q-18 0 -27 12q-7 24 -27.5 52
t-46 56.5t-53 56t-47.5 50.5q-1 3 -0.5 5.5t0.5 5.5z" />
    <glyph glyph-name="Edotaccent" unicode="&#x116;" horiz-adv-x="539" 
d="M38 743q2 8 33.5 16t79 14.5t103.5 11.5t107 8.5t89.5 5.5t51.5 2q10 0 22 -1t21.5 -4.5t16 -11t6.5 -20.5q0 -20 -19 -30.5t-51 -15t-72.5 -4.5t-83.5 0.5t-85 0.5t-76.5 -4.5t-57.5 -14t-28 -28.5q3 -12 1.5 -32.5t-4 -44.5t-3.5 -50t3 -50q27 -2 62.5 -1.5t73.5 1.5
t75.5 2.5t67.5 2.5q0 -31 -9.5 -48t-47.5 -28q-14 -3 -45 -4t-66 -1t-66 -0.5t-45 -1.5q1 -42 2 -88.5t0 -90t-3.5 -80t-7.5 -59.5q22 2 52 1.5t64 -2t70 -2t68.5 0.5t60 5.5t45.5 14.5q39 0 39 -27q1 -5 -1.5 -12.5t-6.5 -15t-7.5 -13.5t-4.5 -7l-377 -38q-8 -1 -18.5 4.5
t-19.5 14.5t-15 19t-4 19zM210 953q7 0 21 0.5t28 -2.5t24.5 -10.5t10.5 -22.5q0 -7 -1.5 -15.5t-4.5 -16t-8.5 -12.5t-14.5 -5q-15 0 -25 9t-17 22t-10 27.5t-3 25.5z" />
    <glyph glyph-name="Emacron" unicode="&#x112;" horiz-adv-x="539" 
d="M38 743q2 8 33.5 16t79 14.5t103.5 11.5t107 8.5t89.5 5.5t51.5 2q10 0 22 -1t21.5 -4.5t16 -11t6.5 -20.5q0 -20 -19 -30.5t-51 -15t-72.5 -4.5t-83.5 0.5t-85 0.5t-76.5 -4.5t-57.5 -14t-28 -28.5q3 -12 1.5 -32.5t-4 -44.5t-3.5 -50t3 -50q27 -2 62.5 -1.5t73.5 1.5
t75.5 2.5t67.5 2.5q0 -31 -9.5 -48t-47.5 -28q-14 -3 -45 -4t-66 -1t-66 -0.5t-45 -1.5q1 -42 2 -88.5t0 -90t-3.5 -80t-7.5 -59.5q22 2 52 1.5t64 -2t70 -2t68.5 0.5t60 5.5t45.5 14.5q39 0 39 -27q1 -5 -1.5 -12.5t-6.5 -15t-7.5 -13.5t-4.5 -7l-377 -38q-8 -1 -18.5 4.5
t-19.5 14.5t-15 19t-4 19zM114 842q-15 7 -18 18.5t1.5 22.5t14.5 20.5t21 13.5q10 1 30.5 2.5t46.5 3t54.5 4t55 4t47 3t30.5 2.5h11q17 0 23 -12.5t6 -26.5q0 -12 -5.5 -19t-14 -10.5t-19 -4.5t-20.5 -2t-30.5 -2.5t-47 -3t-55 -4t-54.5 -4t-46.5 -3t-30.5 -2.5z" />
    <glyph glyph-name="Eogonek" unicode="&#x118;" horiz-adv-x="539" 
d="M38 743q2 8 33.5 16t79 14.5t103.5 11.5t107 8.5t89.5 5.5t51.5 2q10 0 22 -1t21.5 -4.5t16 -11t6.5 -20.5q0 -20 -19 -30.5t-51 -15t-72.5 -4.5t-83.5 0.5t-85 0.5t-76.5 -4.5t-57.5 -14t-28 -28.5q3 -12 1.5 -32.5t-4 -44.5t-3.5 -50t3 -50q27 -2 62.5 -1.5t73.5 1.5
t75.5 2.5t67.5 2.5q0 -31 -9.5 -48t-47.5 -28q-14 -3 -45 -4t-66 -1t-66 -0.5t-45 -1.5q1 -42 2 -88.5t0 -90t-3.5 -80t-7.5 -59.5q22 2 52 1.5t64 -2t70 -2t68.5 0.5t60 5.5t45.5 14.5q39 0 39 -27q1 -5 -1.5 -12.5t-6.5 -15t-7.5 -13.5t-4.5 -7l-377 -38q-8 -1 -18.5 4.5
t-19.5 14.5t-15 19t-4 19zM567 -95q0 -24 -14 -36t-35.5 -16.5t-46 -4.5h-43.5q-38 0 -60.5 15.5t-34.5 37.5t-16 47t-4 44q0 34 22 55.5t55 34.5q11 4 16.5 -0.5t8 -13.5t1.5 -19.5t-3 -18.5t-5 -10t-5 6q-25 -30 -29 -52t5 -37.5t27.5 -24t38.5 -12t38 -2t27 7.5z" />
    <glyph glyph-name="Gbreve" unicode="&#x11e;" horiz-adv-x="623" 
d="M496 49q-23 -15 -48 -23t-51 -11.5t-53 -4t-53 -0.5q-53 0 -101.5 18.5t-85.5 52t-58.5 80.5t-21.5 105q-8 48 0.5 109t30 123.5t55 120t77.5 100t96.5 62.5t112.5 8q28 -9 43 -22t17.5 -25.5t-8 -22t-34.5 -11.5q-3 -1 -17.5 -2.5t-36 -5t-47 -10.5t-49.5 -17.5
t-44 -26.5t-30 -38q-26 -26 -43.5 -63.5t-28.5 -79.5t-15.5 -85t-4.5 -79q0 -53 10 -96.5t34 -74t63 -47.5t97 -17q30 0 65 2.5t64 13t48.5 32.5t19.5 61v33t-3.5 33.5t-13.5 26t-31 10.5q-25 0 -49 -6.5t-47 -14t-47 -14t-49 -6.5q-22 0 -35 7.5t-11 31.5q20 6 60.5 18.5
t85.5 25.5t85.5 23t60.5 10q12 0 27.5 -1.5t19.5 -19.5q7 -42 12.5 -90t8.5 -97.5t2.5 -98t-4.5 -91.5q-22 -14 -35.5 -13t-21.5 14t-12 37t-6 56zM160 1008q1 12 9 16.5t18 4.5t21.5 -3.5t20.5 -7.5q45 -39 77.5 -57t55.5 -21.5t38.5 3.5t25.5 17.5t16.5 21t12.5 13.5
q18 8 36 12.5t29.5 2t14 -12t-10.5 -30.5q-55 -51 -94.5 -73.5t-69 -25.5t-53 10t-45.5 33.5t-46 44t-56 41.5q-1 3 -0.5 5.5t0.5 5.5z" />
    <glyph glyph-name="Gcircumflex" unicode="&#x11c;" horiz-adv-x="623" 
d="M496 49q-23 -15 -48 -23t-51 -11.5t-53 -4t-53 -0.5q-53 0 -101.5 18.5t-85.5 52t-58.5 80.5t-21.5 105q-8 48 0.5 109t30 123.5t55 120t77.5 100t96.5 62.5t112.5 8q28 -9 43 -22t17.5 -25.5t-8 -22t-34.5 -11.5q-3 -1 -17.5 -2.5t-36 -5t-47 -10.5t-49.5 -17.5
t-44 -26.5t-30 -38q-26 -26 -43.5 -63.5t-28.5 -79.5t-15.5 -85t-4.5 -79q0 -53 10 -96.5t34 -74t63 -47.5t97 -17q30 0 65 2.5t64 13t48.5 32.5t19.5 61v33t-3.5 33.5t-13.5 26t-31 10.5q-25 0 -49 -6.5t-47 -14t-47 -14t-49 -6.5q-22 0 -35 7.5t-11 31.5q20 6 60.5 18.5
t85.5 25.5t85.5 23t60.5 10q12 0 27.5 -1.5t19.5 -19.5q7 -42 12.5 -90t8.5 -97.5t2.5 -98t-4.5 -91.5q-22 -14 -35.5 -13t-21.5 14t-12 37t-6 56zM102 804q0 5 -0.5 9.5t0.5 9.5q22 40 45.5 71.5t44 61.5t36.5 62.5t24 75.5q9 21 29 21q1 0 -3.5 5.5t-5.5 7.5t5.5 -3
t28.5 -26.5t64.5 -63t113.5 -112.5q14 -36 11.5 -53t-15.5 -20.5t-32.5 3.5t-38.5 21q-10 9 -23.5 23t-27.5 29.5t-27.5 30t-22.5 24.5l-131 -196q-10 -8 -22.5 -13.5t-23.5 -5t-19.5 8.5t-9.5 29z" />
    <glyph glyph-name="Gcommaaccent" unicode="&#x122;" horiz-adv-x="623" 
d="M496 49q-23 -15 -48 -23t-51 -11.5t-53 -4t-53 -0.5q-53 0 -101.5 18.5t-85.5 52t-58.5 80.5t-21.5 105q-8 48 0.5 109t30 123.5t55 120t77.5 100t96.5 62.5t112.5 8q28 -9 43 -22t17.5 -25.5t-8 -22t-34.5 -11.5q-3 -1 -17.5 -2.5t-36 -5t-47 -10.5t-49.5 -17.5
t-44 -26.5t-30 -38q-26 -26 -43.5 -63.5t-28.5 -79.5t-15.5 -85t-4.5 -79q0 -53 10 -96.5t34 -74t63 -47.5t97 -17q30 0 65 2.5t64 13t48.5 32.5t19.5 61v33t-3.5 33.5t-13.5 26t-31 10.5q-25 0 -49 -6.5t-47 -14t-47 -14t-49 -6.5q-22 0 -35 7.5t-11 31.5q20 6 60.5 18.5
t85.5 25.5t85.5 23t60.5 10q12 0 27.5 -1.5t19.5 -19.5q7 -42 12.5 -90t8.5 -97.5t2.5 -98t-4.5 -91.5q-22 -14 -35.5 -13t-21.5 14t-12 37t-6 56zM237 -302q23 20 35.5 52.5t23 62.5t21.5 51t31 20q9 -5 11.5 -22t-0.5 -40t-11 -48.5t-20 -48t-28 -38t-34 -18.5
q-12 0 -20.5 8.5t-8.5 20.5z" />
    <glyph glyph-name="Gdotaccent" unicode="&#x120;" horiz-adv-x="623" 
d="M496 49q-23 -15 -48 -23t-51 -11.5t-53 -4t-53 -0.5q-53 0 -101.5 18.5t-85.5 52t-58.5 80.5t-21.5 105q-8 48 0.5 109t30 123.5t55 120t77.5 100t96.5 62.5t112.5 8q28 -9 43 -22t17.5 -25.5t-8 -22t-34.5 -11.5q-3 -1 -17.5 -2.5t-36 -5t-47 -10.5t-49.5 -17.5
t-44 -26.5t-30 -38q-26 -26 -43.5 -63.5t-28.5 -79.5t-15.5 -85t-4.5 -79q0 -53 10 -96.5t34 -74t63 -47.5t97 -17q30 0 65 2.5t64 13t48.5 32.5t19.5 61v33t-3.5 33.5t-13.5 26t-31 10.5q-25 0 -49 -6.5t-47 -14t-47 -14t-49 -6.5q-22 0 -35 7.5t-11 31.5q20 6 60.5 18.5
t85.5 25.5t85.5 23t60.5 10q12 0 27.5 -1.5t19.5 -19.5q7 -42 12.5 -90t8.5 -97.5t2.5 -98t-4.5 -91.5q-22 -14 -35.5 -13t-21.5 14t-12 37t-6 56zM278 974q7 0 21 0.5t28 -2.5t24.5 -10.5t10.5 -22.5q0 -7 -1.5 -15.5t-4.5 -16t-8.5 -12.5t-14.5 -5q-15 0 -25 9t-17 22
t-10 27.5t-3 25.5z" />
    <glyph glyph-name="Hcircumflex" unicode="&#x124;" horiz-adv-x="538" 
d="M386 104q0 25 1 61.5t2.5 75.5t2.5 76t1 63q-2 0 -7.5 0.5t-7.5 0.5q-7 -1 -34.5 -3.5t-59 -6t-59.5 -6t-35 -3.5h-19q-9 -2 -22 -5t-25 -6t-20.5 -5.5l-8.5 -2.5l8 -249q16 -5 18 -15t2 -22q0 -39 -37 -39q-5 0 -15 0.5t-19.5 3t-16.5 6.5t-7 10l30 739q2 0 9.5 1t9.5 1
q4 0 10.5 -0.5t12.5 -2.5t10 -6t4 -12v-321h227q22 0 36 12t22 30t12 37.5t5 34.5q1 8 2.5 24t3 36.5t4 43t4 43t3 36.5t2.5 24q2 0 9.5 1t9.5 1q39 0 39 -37q0 -79 -6.5 -169t-13 -182.5t-11 -183t-0.5 -169.5q-2 -2 -7 -5.5t-11 -6.5t-11.5 -5t-8.5 -2q-12 0 -19.5 14
t-11.5 32t-5.5 35t-1.5 23zM73 873q0 5 -0.5 9.5t0.5 9.5q22 40 45.5 71.5t44 61.5t36.5 62.5t24 75.5q9 21 29 21q1 0 -3.5 5.5t-5.5 7.5t5.5 -3t28.5 -26.5t64.5 -63t113.5 -112.5q14 -36 11.5 -53t-15.5 -20.5t-32.5 3.5t-38.5 21q-10 9 -23.5 23t-27.5 29.5t-27.5 30
t-22.5 24.5l-131 -196q-10 -8 -22.5 -13.5t-23.5 -5t-19.5 8.5t-9.5 29z" />
    <glyph glyph-name="Ibreve" unicode="&#x12c;" horiz-adv-x="679" 
d="M99 72q0 5 11.5 6t28 0.5t36 -1t35.5 0.5t26.5 4.5t8.5 11.5q16 69 24 138.5t11.5 140.5t3.5 142.5t-1 144.5q-33 -9 -62 -16.5t-57.5 -13t-59 -8t-65.5 -1.5l-1 39q70 20 134.5 40.5t128.5 37t129.5 27t138.5 10.5q11 0 27 -8.5t21 -28.5q-14 -21 -38 -29.5t-51.5 -10.5
t-56 -2t-52 -3.5t-40.5 -14.5t-20 -36q-6 -71 -10.5 -138t-6.5 -133.5t-1.5 -134t3.5 -137.5q13 9 38 13.5t56 5t65 -1t65 -2.5h20t25.5 -2t21.5 -8t9 -18q0 -19 -21 -29q-15 -9 -57.5 -16.5t-97 -14.5t-114.5 -12t-111 -9t-86.5 -6.5t-40.5 -2.5q-30 3 -43.5 10.5t-15.5 17
t4.5 19t15 17t15.5 11t7 1.5zM142 930q1 12 9 16.5t18 4.5t21.5 -3.5t20.5 -7.5q45 -39 77.5 -57t55.5 -21.5t38.5 3.5t25.5 17.5t16.5 21t12.5 13.5q18 8 36 12.5t29.5 2t14 -12t-10.5 -30.5q-55 -51 -94.5 -73.5t-69 -25.5t-53 10t-45.5 33.5t-46 44t-56 41.5
q-1 3 -0.5 5.5t0.5 5.5z" />
    <glyph glyph-name="Idotaccent" unicode="&#x130;" horiz-adv-x="679" 
d="M99 72q0 5 11.5 6t28 0.5t36 -1t35.5 0.5t26.5 4.5t8.5 11.5q16 69 24 138.5t11.5 140.5t3.5 142.5t-1 144.5q-33 -9 -62 -16.5t-57.5 -13t-59 -8t-65.5 -1.5l-1 39q70 20 134.5 40.5t128.5 37t129.5 27t138.5 10.5q11 0 27 -8.5t21 -28.5q-14 -21 -38 -29.5t-51.5 -10.5
t-56 -2t-52 -3.5t-40.5 -14.5t-20 -36q-6 -71 -10.5 -138t-6.5 -133.5t-1.5 -134t3.5 -137.5q13 9 38 13.5t56 5t65 -1t65 -2.5h20t25.5 -2t21.5 -8t9 -18q0 -19 -21 -29q-15 -9 -57.5 -16.5t-97 -14.5t-114.5 -12t-111 -9t-86.5 -6.5t-40.5 -2.5q-30 3 -43.5 10.5t-15.5 17
t4.5 19t15 17t15.5 11t7 1.5zM297 854q7 0 21 0.5t28 -2.5t24.5 -10.5t10.5 -22.5q0 -7 -1.5 -15.5t-4.5 -16t-8.5 -12.5t-14.5 -5q-15 0 -25 9t-17 22t-10 27.5t-3 25.5z" />
    <glyph glyph-name="Iogonek" unicode="&#x12e;" horiz-adv-x="679" 
d="M99 72q0 5 11.5 6t28 0.5t36 -1t35.5 0.5t26.5 4.5t8.5 11.5q16 69 24 138.5t11.5 140.5t3.5 142.5t-1 144.5q-33 -9 -62 -16.5t-57.5 -13t-59 -8t-65.5 -1.5l-1 39q70 20 134.5 40.5t128.5 37t129.5 27t138.5 10.5q11 0 27 -8.5t21 -28.5q-14 -21 -38 -29.5t-51.5 -10.5
t-56 -2t-52 -3.5t-40.5 -14.5t-20 -36q-6 -71 -10.5 -138t-6.5 -133.5t-1.5 -134t3.5 -137.5q13 9 38 13.5t56 5t65 -1t65 -2.5h20t25.5 -2t21.5 -8t9 -18q0 -19 -21 -29q-15 -9 -57.5 -16.5t-97 -14.5t-114.5 -12t-111 -9t-86.5 -6.5t-40.5 -2.5q-30 3 -43.5 10.5t-15.5 17
t4.5 19t15 17t15.5 11t7 1.5zM643 -95q0 -24 -14 -36t-35.5 -16.5t-46 -4.5h-43.5q-38 0 -60.5 15.5t-34.5 37.5t-16 47t-4 44q0 34 22 55.5t55 34.5q11 4 16.5 -0.5t8 -13.5t1.5 -19.5t-3 -18.5t-5 -10t-5 6q-25 -30 -29 -52t5 -37.5t27.5 -24t38.5 -12t38 -2t27 7.5z" />
    <glyph glyph-name="Itilde" unicode="&#x128;" horiz-adv-x="679" 
d="M99 72q0 5 11.5 6t28 0.5t36 -1t35.5 0.5t26.5 4.5t8.5 11.5q16 69 24 138.5t11.5 140.5t3.5 142.5t-1 144.5q-33 -9 -62 -16.5t-57.5 -13t-59 -8t-65.5 -1.5l-1 39q70 20 134.5 40.5t128.5 37t129.5 27t138.5 10.5q11 0 27 -8.5t21 -28.5q-14 -21 -38 -29.5t-51.5 -10.5
t-56 -2t-52 -3.5t-40.5 -14.5t-20 -36q-6 -71 -10.5 -138t-6.5 -133.5t-1.5 -134t3.5 -137.5q13 9 38 13.5t56 5t65 -1t65 -2.5h20t25.5 -2t21.5 -8t9 -18q0 -19 -21 -29q-15 -9 -57.5 -16.5t-97 -14.5t-114.5 -12t-111 -9t-86.5 -6.5t-40.5 -2.5q-30 3 -43.5 10.5t-15.5 17
t4.5 19t15 17t15.5 11t7 1.5zM84 921q8 22 16 50.5t19 54t28 43.5t43 18q6 3 21.5 4t41 -9t61.5 -35t83 -72q31 4 39.5 22t9 40.5t0 45.5t12.5 38l15 -2.5t18.5 -4t17.5 -7t11 -11.5q2 -35 -0.5 -73.5t-14 -70t-35 -50.5t-64.5 -14q-42 21 -67.5 40.5t-44.5 34.5t-38 24
t-47 9q-27 -11 -37.5 -23.5t-13 -24.5t-1 -22t-1.5 -16q-4 0 -14.5 0.5t-22 2t-21.5 3.5t-14 5z" />
    <glyph glyph-name="Jcircumflex" unicode="&#x134;" horiz-adv-x="449" 
d="M179 94q15 21 25 64t16.5 97t10 114.5t5 116.5t1 102t-0.5 72q-8 19 -35 28.5t-58.5 13t-61 3t-41.5 -0.5q0 13 1 25.5t5 22.5t13 16.5t24 6.5q14 -4 49.5 -7.5t82 -6t99 -4.5t101.5 -2.5t90 0.5t64 4q11 -5 15.5 -11.5t4.5 -16.5q0 -5 -2.5 -12t-6 -14t-8.5 -12.5
t-11 -6.5l-250 -7q-13 -46 -15 -114.5t-1.5 -144.5t-1.5 -150.5t-15 -133t-42.5 -92.5t-84.5 -28q-78 2 -116 20t-43.5 36.5t17 29t64.5 -2.5zM133 877q0 5 -0.5 9.5t0.5 9.5q22 40 45.5 71.5t44 61.5t36.5 62.5t24 75.5q9 21 29 21q1 0 -3.5 5.5t-5.5 7.5t5.5 -3
t28.5 -26.5t64.5 -63t113.5 -112.5q14 -36 11.5 -53t-15.5 -20.5t-32.5 3.5t-38.5 21q-10 9 -23.5 23t-27.5 29.5t-27.5 30t-22.5 24.5l-131 -196q-10 -8 -22.5 -13.5t-23.5 -5t-19.5 8.5t-9.5 29z" />
    <glyph glyph-name="Kcommaaccent" unicode="&#x136;" horiz-adv-x="505" 
d="M67 -4q3 6 -5 -3t-18 -15.5t-18.5 0t-8.5 44.5q4 61 9 116t8.5 109.5t6 112t1.5 123t-6 143t-14 172.5q7 14 19.5 17.5t25 1.5t21.5 -8t9 -11l2 -380q26 5 53.5 26.5t55 53.5t54.5 72t50 81.5t42 83t32 76.5q10 0 16 -2t11 -5.5t11 -9.5t16 -13q-4 -41 -23 -88
t-45.5 -93.5t-59 -88.5t-65 -74.5t-62.5 -51.5t-51 -18q37 -33 84.5 -74t94 -86t87 -91.5t63.5 -88.5q0 -1 -0.5 -2t-0.5 -3v-3q-3 -2 -11.5 -5.5t-17.5 -6.5t-17 -5t-11 -2q-30 32 -66.5 74.5t-77 85.5t-82.5 81t-84 61l-28 -306v0zM178 -302q23 20 35.5 52.5t23 62.5
t21.5 51t31 20q9 -5 11.5 -22t-0.5 -40t-11 -48.5t-20 -48t-28 -38t-34 -18.5q-12 0 -20.5 8.5t-8.5 20.5z" />
    <glyph glyph-name="Lacute" unicode="&#x139;" horiz-adv-x="384" 
d="M28 57q3 53 7.5 114.5t9 127.5t8.5 133.5t5.5 131.5t1.5 122.5t-4 107.5q-2 24 9 44t26 26.5t29.5 -4.5t20.5 -49q7 -45 3 -125.5t-12.5 -179t-18 -205.5t-14.5 -206l236 -13q15 1 24.5 -10.5t12 -26t-2.5 -28t-20 -17.5q-28 11 -66 12.5t-78 0t-77 -3.5t-63.5 0.5
t-37.5 13t1 34.5zM447 1003q-19 -5 -48 -21.5t-59.5 -37t-58.5 -41t-44 -32.5q-5 3 -12.5 8t-14.5 11t-11.5 13.5t-4.5 15.5q0 2 0.5 5.5t1.5 3.5l230 151z" />
    <glyph glyph-name="Lcaron" unicode="&#x13d;" horiz-adv-x="384" 
d="M28 57q3 53 7.5 114.5t9 127.5t8.5 133.5t5.5 131.5t1.5 122.5t-4 107.5q-2 24 9 44t26 26.5t29.5 -4.5t20.5 -49q7 -45 3 -125.5t-12.5 -179t-18 -205.5t-14.5 -206l236 -13q15 1 24.5 -10.5t12 -26t-2.5 -28t-20 -17.5q-28 11 -66 12.5t-78 0t-77 -3.5t-63.5 0.5
t-37.5 13t1 34.5zM256 737q0 2 3 10.5t6.5 18t6.5 17.5t3 10q0 1 0.5 12t0.5 16q0 51 -18.5 102.5t-39.5 96.5q11 20 28 20q24 0 40.5 -27t27 -64t15.5 -75.5t5 -62.5q0 -12 -0.5 -28t-5 -30.5t-14.5 -25t-30 -10.5q-8 0 -18 4.5t-10 15.5z" />
    <glyph glyph-name="Lcommaaccent" unicode="&#x13b;" horiz-adv-x="384" 
d="M28 57q3 53 7.5 114.5t9 127.5t8.5 133.5t5.5 131.5t1.5 122.5t-4 107.5q-2 24 9 44t26 26.5t29.5 -4.5t20.5 -49q7 -45 3 -125.5t-12.5 -179t-18 -205.5t-14.5 -206l236 -13q15 1 24.5 -10.5t12 -26t-2.5 -28t-20 -17.5q-28 11 -66 12.5t-78 0t-77 -3.5t-63.5 0.5
t-37.5 13t1 34.5zM119 -302q23 20 35.5 52.5t23 62.5t21.5 51t31 20q9 -5 11.5 -22t-0.5 -40t-11 -48.5t-20 -48t-28 -38t-34 -18.5q-12 0 -20.5 8.5t-8.5 20.5z" />
    <glyph glyph-name="Ldot" unicode="&#x13f;" horiz-adv-x="384" 
d="M28 57q3 53 7.5 114.5t9 127.5t8.5 133.5t5.5 131.5t1.5 122.5t-4 107.5q-2 24 9 44t26 26.5t29.5 -4.5t20.5 -49q7 -45 3 -125.5t-12.5 -179t-18 -205.5t-14.5 -206l236 -13q15 1 24.5 -10.5t12 -26t-2.5 -28t-20 -17.5q-28 11 -66 12.5t-78 0t-77 -3.5t-63.5 0.5
t-37.5 13t1 34.5zM151 333q7 17 22.5 26t31.5 7t27.5 -16t11.5 -44q0 -7 -1.5 -16t-5 -16.5t-9 -13t-14.5 -5.5q-22 1 -36.5 9t-22 20t-8.5 25t4 24z" />
    <glyph glyph-name="Nacute" unicode="&#x143;" horiz-adv-x="632" 
d="M38 0q1 156 -0.5 268.5t-2.5 190.5t-0.5 125.5t4.5 73t12.5 34t24.5 8.5q12 0 22 -2.5t15 -18.5q28 -54 64 -127.5t79 -151t90.5 -150.5t97.5 -125l66 592q13 45 23.5 68.5t18.5 31t14 2.5t10 -16.5t6.5 -26.5l4.5 -27q0 -10 -1 -21.5t-3.5 -36.5t-7.5 -68.5t-13.5 -117
t-21 -183t-30.5 -265.5q-2 -23 -21 -31.5t-36 -8.5q-28 0 -43 15.5t-33 42.5l-273 434v-490q0 -7 -6 -11t-13.5 -6t-15.5 -2.5t-12 -0.5q-2 0 -9.5 0.5t-9.5 0.5zM442 843q-19 -5 -48 -21.5t-59.5 -37t-58.5 -41t-44 -32.5q-5 3 -12.5 8t-14.5 11t-11.5 13.5t-4.5 15.5
q0 2 0.5 5.5t1.5 3.5l230 151z" />
    <glyph glyph-name="Ncaron" unicode="&#x147;" horiz-adv-x="632" 
d="M38 0q1 156 -0.5 268.5t-2.5 190.5t-0.5 125.5t4.5 73t12.5 34t24.5 8.5q12 0 22 -2.5t15 -18.5q28 -54 64 -127.5t79 -151t90.5 -150.5t97.5 -125l66 592q13 45 23.5 68.5t18.5 31t14 2.5t10 -16.5t6.5 -26.5l4.5 -27q0 -10 -1 -21.5t-3.5 -36.5t-7.5 -68.5t-13.5 -117
t-21 -183t-30.5 -265.5q-2 -23 -21 -31.5t-36 -8.5q-28 0 -43 15.5t-33 42.5l-273 434v-490q0 -7 -6 -11t-13.5 -6t-15.5 -2.5t-12 -0.5q-2 0 -9.5 0.5t-9.5 0.5zM65 965q1 12 9 16.5t18 4.5t21.5 -3.5t20.5 -7.5l157 -172q9 6 33.5 22.5t53 35.5t53.5 35t34 21
q18 8 36 12.5t29.5 2t14 -12t-10.5 -30.5q-65 -40 -110 -68t-75 -46t-46.5 -27.5t-24.5 -14t-10 -5.5l-2 -1q-18 0 -27 12q-7 24 -27.5 52t-46 56.5t-53 56t-47.5 50.5q-1 3 -0.5 5.5t0.5 5.5z" />
    <glyph glyph-name="Ncommaaccent" unicode="&#x145;" horiz-adv-x="632" 
d="M38 0q1 156 -0.5 268.5t-2.5 190.5t-0.5 125.5t4.5 73t12.5 34t24.5 8.5q12 0 22 -2.5t15 -18.5q28 -54 64 -127.5t79 -151t90.5 -150.5t97.5 -125l66 592q13 45 23.5 68.5t18.5 31t14 2.5t10 -16.5t6.5 -26.5l4.5 -27q0 -10 -1 -21.5t-3.5 -36.5t-7.5 -68.5t-13.5 -117
t-21 -183t-30.5 -265.5q-2 -23 -21 -31.5t-36 -8.5q-28 0 -43 15.5t-33 42.5l-273 434v-490q0 -7 -6 -11t-13.5 -6t-15.5 -2.5t-12 -0.5q-2 0 -9.5 0.5t-9.5 0.5zM242 -302q23 20 35.5 52.5t23 62.5t21.5 51t31 20q9 -5 11.5 -22t-0.5 -40t-11 -48.5t-20 -48t-28 -38
t-34 -18.5q-12 0 -20.5 8.5t-8.5 20.5z" />
    <glyph glyph-name="Obreve" unicode="&#x14e;" horiz-adv-x="538" 
d="M26 241q0 33 7 83t21 105t36 110.5t52 99.5t68.5 71.5t86.5 27.5q41 0 72 -18.5t53.5 -48.5t38 -69t24.5 -80t13 -80.5t4 -70.5q0 -66 -23 -132.5t-65.5 -119.5t-102.5 -86.5t-133 -33.5q-44 0 -73 25.5t-46.5 63t-25 79t-7.5 74.5zM102 240q0 -31 3.5 -61t15 -53
t32.5 -37.5t56 -14.5q31 0 66 15t66 39.5t53.5 55t29.5 61.5q0 7 0.5 24.5t1 37t0.5 37v24.5q0 29 -1 62t-6 65.5t-15.5 62.5t-28.5 53t-45.5 36.5t-66.5 13.5q-22 0 -42.5 -25.5t-38 -65.5t-32.5 -89t-25.5 -96t-16.5 -86t-6 -59zM72 930q1 12 9 16.5t18 4.5t21.5 -3.5
t20.5 -7.5q45 -39 77.5 -57t55.5 -21.5t38.5 3.5t25.5 17.5t16.5 21t12.5 13.5q18 8 36 12.5t29.5 2t14 -12t-10.5 -30.5q-55 -51 -94.5 -73.5t-69 -25.5t-53 10t-45.5 33.5t-46 44t-56 41.5q-1 3 -0.5 5.5t0.5 5.5z" />
    <glyph glyph-name="Ohungarumlaut" unicode="&#x150;" horiz-adv-x="538" 
d="M26 241q0 33 7 83t21 105t36 110.5t52 99.5t68.5 71.5t86.5 27.5q41 0 72 -18.5t53.5 -48.5t38 -69t24.5 -80t13 -80.5t4 -70.5q0 -66 -23 -132.5t-65.5 -119.5t-102.5 -86.5t-133 -33.5q-44 0 -73 25.5t-46.5 63t-25 79t-7.5 74.5zM102 240q0 -31 3.5 -61t15 -53
t32.5 -37.5t56 -14.5q31 0 66 15t66 39.5t53.5 55t29.5 61.5q0 7 0.5 24.5t1 37t0.5 37v24.5q0 29 -1 62t-6 65.5t-15.5 62.5t-28.5 53t-45.5 36.5t-66.5 13.5q-22 0 -42.5 -25.5t-38 -65.5t-32.5 -89t-25.5 -96t-16.5 -86t-6 -59zM390 981q-19 -5 -48 -21.5t-59.5 -37
t-58.5 -41t-44 -32.5q-5 3 -12.5 8t-14.5 11t-11.5 13.5t-4.5 15.5q0 2 0.5 5.5t1.5 3.5l230 151zM538 921q-19 -5 -48 -21.5t-59.5 -37t-58.5 -41t-44 -32.5q-5 3 -12.5 8t-14.5 11t-11.5 13.5t-4.5 15.5q0 2 0.5 5.5t1.5 3.5l230 151z" />
    <glyph glyph-name="Omacron" unicode="&#x14c;" horiz-adv-x="538" 
d="M26 241q0 33 7 83t21 105t36 110.5t52 99.5t68.5 71.5t86.5 27.5q41 0 72 -18.5t53.5 -48.5t38 -69t24.5 -80t13 -80.5t4 -70.5q0 -66 -23 -132.5t-65.5 -119.5t-102.5 -86.5t-133 -33.5q-44 0 -73 25.5t-46.5 63t-25 79t-7.5 74.5zM102 240q0 -31 3.5 -61t15 -53
t32.5 -37.5t56 -14.5q31 0 66 15t66 39.5t53.5 55t29.5 61.5q0 7 0.5 24.5t1 37t0.5 37v24.5q0 29 -1 62t-6 65.5t-15.5 62.5t-28.5 53t-45.5 36.5t-66.5 13.5q-22 0 -42.5 -25.5t-38 -65.5t-32.5 -89t-25.5 -96t-16.5 -86t-6 -59zM127 765q-15 7 -18 18.5t1.5 22.5
t14.5 20.5t21 13.5q10 1 30.5 2.5t46.5 3t54.5 4t55 4t47 3t30.5 2.5h11q17 0 23 -12.5t6 -26.5q0 -12 -5.5 -19t-14 -10.5t-19 -4.5t-20.5 -2t-30.5 -2.5t-47 -3t-55 -4t-54.5 -4t-46.5 -3t-30.5 -2.5z" />
    <glyph glyph-name="Oslashacute" unicode="&#x1fe;" horiz-adv-x="538" 
d="M26 241q0 33 7 83t21 105t36 110.5t52 99.5t68.5 71.5t86.5 27.5q41 0 72 -18.5t53.5 -48.5t38 -69t24.5 -80t13 -80.5t4 -70.5q0 -66 -23 -132.5t-65.5 -119.5t-102.5 -86.5t-133 -33.5q-44 0 -73 25.5t-46.5 63t-25 79t-7.5 74.5zM102 240q0 -31 3.5 -61t15 -53
t32.5 -37.5t56 -14.5q31 0 66 15t66 39.5t53.5 55t29.5 61.5q0 7 0.5 24.5t1 37t0.5 37v24.5q0 29 -1 62t-6 65.5t-15.5 62.5t-28.5 53t-45.5 36.5t-66.5 13.5q-22 0 -42.5 -25.5t-38 -65.5t-32.5 -89t-25.5 -96t-16.5 -86t-6 -59zM5 28q0 2 0.5 5.5t0.5 4.5l487 842
q15 -8 29 -19.5t12 -30.5l-471 -830q0 -1 -6.5 -2t-9.5 -1q-15 0 -28.5 7t-13.5 24zM439 912q-19 -5 -48 -21.5t-59.5 -37t-58.5 -41t-44 -32.5q-5 3 -12.5 8t-14.5 11t-11.5 13.5t-4.5 15.5q0 2 0.5 5.5t1.5 3.5l230 151z" />
    <glyph glyph-name="Racute" unicode="&#x154;" horiz-adv-x="613" 
d="M105 483q0 16 -0.5 38t-2.5 44.5t-6 43t-11 33.5q-19 -9 -34 -7.5t-23.5 8t-9.5 17t10 19.5q19 30 57 53t85 36t98.5 15.5t98 -7t82.5 -33t53 -61.5q0 -38 -15 -71.5t-40.5 -63t-57.5 -54.5t-65.5 -46t-66.5 -38.5t-59 -31.5q0 -5 22.5 -20t57 -34.5t76 -41.5t80 -42
t68.5 -36t42 -22q40 -19 67 -26t35.5 -12t-4.5 -11.5t-54 -23.5q-57 0 -110.5 17.5t-104 43.5t-99 56.5t-95.5 57.5q-1 -19 1 -47t2 -59t-3 -61.5t-14 -55t-30.5 -39.5t-52.5 -15zM179 453q36 9 79 29t80.5 48.5t62.5 64.5t25 79q-17 28 -48 39.5t-66.5 11.5t-71 -8.5
t-61.5 -18.5v-245zM450 1007q-19 -5 -48 -21.5t-59.5 -37t-58.5 -41t-44 -32.5q-5 3 -12.5 8t-14.5 11t-11.5 13.5t-4.5 15.5q0 2 0.5 5.5t1.5 3.5l230 151z" />
    <glyph glyph-name="Rcaron" unicode="&#x158;" horiz-adv-x="613" 
d="M105 483q0 16 -0.5 38t-2.5 44.5t-6 43t-11 33.5q-19 -9 -34 -7.5t-23.5 8t-9.5 17t10 19.5q19 30 57 53t85 36t98.5 15.5t98 -7t82.5 -33t53 -61.5q0 -38 -15 -71.5t-40.5 -63t-57.5 -54.5t-65.5 -46t-66.5 -38.5t-59 -31.5q0 -5 22.5 -20t57 -34.5t76 -41.5t80 -42
t68.5 -36t42 -22q40 -19 67 -26t35.5 -12t-4.5 -11.5t-54 -23.5q-57 0 -110.5 17.5t-104 43.5t-99 56.5t-95.5 57.5q-1 -19 1 -47t2 -59t-3 -61.5t-14 -55t-30.5 -39.5t-52.5 -15zM179 453q36 9 79 29t80.5 48.5t62.5 64.5t25 79q-17 28 -48 39.5t-66.5 11.5t-71 -8.5
t-61.5 -18.5v-245zM55 1116q1 12 9 16.5t18 4.5t21.5 -3.5t20.5 -7.5l157 -172q9 6 33.5 22.5t53 35.5t53.5 35t34 21q18 8 36 12.5t29.5 2t14 -12t-10.5 -30.5q-65 -40 -110 -68t-75 -46t-46.5 -27.5t-24.5 -14t-10 -5.5l-2 -1q-18 0 -27 12q-7 24 -27.5 52t-46 56.5
t-53 56t-47.5 50.5q-1 3 -0.5 5.5t0.5 5.5z" />
    <glyph glyph-name="Rcommaaccent" unicode="&#x156;" horiz-adv-x="613" 
d="M105 483q0 16 -0.5 38t-2.5 44.5t-6 43t-11 33.5q-19 -9 -34 -7.5t-23.5 8t-9.5 17t10 19.5q19 30 57 53t85 36t98.5 15.5t98 -7t82.5 -33t53 -61.5q0 -38 -15 -71.5t-40.5 -63t-57.5 -54.5t-65.5 -46t-66.5 -38.5t-59 -31.5q0 -5 22.5 -20t57 -34.5t76 -41.5t80 -42
t68.5 -36t42 -22q40 -19 67 -26t35.5 -12t-4.5 -11.5t-54 -23.5q-57 0 -110.5 17.5t-104 43.5t-99 56.5t-95.5 57.5q-1 -19 1 -47t2 -59t-3 -61.5t-14 -55t-30.5 -39.5t-52.5 -15zM179 453q36 9 79 29t80.5 48.5t62.5 64.5t25 79q-17 28 -48 39.5t-66.5 11.5t-71 -8.5
t-61.5 -18.5v-245zM232 -302q23 20 35.5 52.5t23 62.5t21.5 51t31 20q9 -5 11.5 -22t-0.5 -40t-11 -48.5t-20 -48t-28 -38t-34 -18.5q-12 0 -20.5 8.5t-8.5 20.5z" />
    <glyph glyph-name="Sacute" unicode="&#x15a;" horiz-adv-x="475" 
d="M36 212q0 20 3.5 38t12.5 31.5t24 21t39 7.5q0 -15 -3.5 -29t-7.5 -27.5t-7.5 -28t-3.5 -29.5q0 -29 13.5 -52t35.5 -38.5t49 -23.5t53 -8q60 16 85.5 39.5t27 53t-16.5 64t-45.5 73t-60 78.5t-60 81t-45.5 81.5t-16 78.5q0 43 30.5 71t74 44t91 22.5t81.5 6.5
q14 0 25.5 -6t11.5 -23t-17.5 -23.5t-44.5 -9.5t-57.5 -6t-57.5 -12t-44.5 -27.5t-17.5 -53.5q0 -10 4 -24.5t24 -49.5t62 -98.5t118 -169.5q24 -46 25 -92.5t-19.5 -84t-60.5 -62t-97 -25.5q-45 -5 -84.5 13t-68 49.5t-43.5 71.5t-12 78zM389 938q-19 -5 -48 -21.5
t-59.5 -37t-58.5 -41t-44 -32.5q-5 3 -12.5 8t-14.5 11t-11.5 13.5t-4.5 15.5q0 2 0.5 5.5t1.5 3.5l230 151z" />
    <glyph glyph-name="Scedilla" unicode="&#x15e;" horiz-adv-x="475" 
d="M36 212q0 20 3.5 38t12.5 31.5t24 21t39 7.5q0 -15 -3.5 -29t-7.5 -27.5t-7.5 -28t-3.5 -29.5q0 -29 13.5 -52t35.5 -38.5t49 -23.5t53 -8q60 16 85.5 39.5t27 53t-16.5 64t-45.5 73t-60 78.5t-60 81t-45.5 81.5t-16 78.5q0 43 30.5 71t74 44t91 22.5t81.5 6.5
q14 0 25.5 -6t11.5 -23t-17.5 -23.5t-44.5 -9.5t-57.5 -6t-57.5 -12t-44.5 -27.5t-17.5 -53.5q0 -10 4 -24.5t24 -49.5t62 -98.5t118 -169.5q24 -46 25 -92.5t-19.5 -84t-60.5 -62t-97 -25.5q-45 -5 -84.5 13t-68 49.5t-43.5 71.5t-12 78zM114 -149q19 24 28.5 29.5
t14.5 0.5t9 -18t11.5 -25.5t21.5 -21.5t40 -7q18 4 32.5 13t14.5 18q0 23 -19 38.5t-41.5 29.5t-41 29t-18.5 38q0 54 9 77t21 26t25 -10t21 -30.5t8.5 -36t-11.5 -26.5q0 -24 20.5 -39.5t45 -29.5t45 -29.5t20.5 -39.5q0 -19 -15 -34t-39 -25t-53.5 -15.5t-57.5 -5.5
q-22 0 -40 9t-30.5 23t-18 30.5t-2.5 31.5z" />
    <glyph glyph-name="Scircumflex" unicode="&#x15c;" horiz-adv-x="475" 
d="M36 212q0 20 3.5 38t12.5 31.5t24 21t39 7.5q0 -15 -3.5 -29t-7.5 -27.5t-7.5 -28t-3.5 -29.5q0 -29 13.5 -52t35.5 -38.5t49 -23.5t53 -8q60 16 85.5 39.5t27 53t-16.5 64t-45.5 73t-60 78.5t-60 81t-45.5 81.5t-16 78.5q0 43 30.5 71t74 44t91 22.5t81.5 6.5
q14 0 25.5 -6t11.5 -23t-17.5 -23.5t-44.5 -9.5t-57.5 -6t-57.5 -12t-44.5 -27.5t-17.5 -53.5q0 -10 4 -24.5t24 -49.5t62 -98.5t118 -169.5q24 -46 25 -92.5t-19.5 -84t-60.5 -62t-97 -25.5q-45 -5 -84.5 13t-68 49.5t-43.5 71.5t-12 78zM30 748q0 5 -0.5 9.5t0.5 9.5
q22 40 45.5 71.5t44 61.5t36.5 62.5t24 75.5q9 21 29 21q1 0 -3.5 5.5t-5.5 7.5t5.5 -3t28.5 -26.5t64.5 -63t113.5 -112.5q14 -36 11.5 -53t-15.5 -20.5t-32.5 3.5t-38.5 21q-10 9 -23.5 23t-27.5 29.5t-27.5 30t-22.5 24.5l-131 -196q-10 -8 -22.5 -13.5t-23.5 -5
t-19.5 8.5t-9.5 29z" />
    <glyph glyph-name="Scommaaccent" unicode="&#x218;" horiz-adv-x="475" 
d="M36 212q0 20 3.5 38t12.5 31.5t24 21t39 7.5q0 -15 -3.5 -29t-7.5 -27.5t-7.5 -28t-3.5 -29.5q0 -29 13.5 -52t35.5 -38.5t49 -23.5t53 -8q60 16 85.5 39.5t27 53t-16.5 64t-45.5 73t-60 78.5t-60 81t-45.5 81.5t-16 78.5q0 43 30.5 71t74 44t91 22.5t81.5 6.5
q14 0 25.5 -6t11.5 -23t-17.5 -23.5t-44.5 -9.5t-57.5 -6t-57.5 -12t-44.5 -27.5t-17.5 -53.5q0 -10 4 -24.5t24 -49.5t62 -98.5t118 -169.5q24 -46 25 -92.5t-19.5 -84t-60.5 -62t-97 -25.5q-45 -5 -84.5 13t-68 49.5t-43.5 71.5t-12 78zM142 -294q23 20 35.5 52.5t23 62.5
t21.5 51t31 20q9 -5 11.5 -22t-0.5 -40t-11 -48.5t-20 -48t-28 -38t-34 -18.5q-12 0 -20.5 8.5t-8.5 20.5z" />
    <glyph glyph-name="Tcaron" unicode="&#x164;" horiz-adv-x="483" 
d="M170 26q3 83 8 163.5t8.5 161t5 162t-2.5 166.5q-5 1 -19.5 2.5t-33.5 3t-40 4t-38 7.5t-28.5 12t-11.5 18q0 23 17.5 36t37.5 13q51 0 100 -10.5t100 -10.5q50 0 86 1.5t68.5 3.5t67.5 3.5t83 1.5q0 -26 -6.5 -40.5t-19.5 -22t-31 -11t-42 -7.5q-15 -3 -41.5 -3t-56 0.5
t-56.5 0.5t-42 -2q-9 -34 -15.5 -83.5t-10.5 -107t-6.5 -120t-4 -122t-2.5 -112t-2 -91.5q-12 -21 -20.5 -37t-16 -21t-15.5 4t-20 37zM77 1124q1 12 9 16.5t18 4.5t21.5 -3.5t20.5 -7.5l157 -172q9 6 33.5 22.5t53 35.5t53.5 35t34 21q18 8 36 12.5t29.5 2t14 -12
t-10.5 -30.5q-65 -40 -110 -68t-75 -46t-46.5 -27.5t-24.5 -14t-10 -5.5l-2 -1q-18 0 -27 12q-7 24 -27.5 52t-46 56.5t-53 56t-47.5 50.5q-1 3 -0.5 5.5t0.5 5.5z" />
    <glyph glyph-name="Tcommaaccent" unicode="&#x162;" horiz-adv-x="483" 
d="M170 26q3 83 8 163.5t8.5 161t5 162t-2.5 166.5q-5 1 -19.5 2.5t-33.5 3t-40 4t-38 7.5t-28.5 12t-11.5 18q0 23 17.5 36t37.5 13q51 0 100 -10.5t100 -10.5q50 0 86 1.5t68.5 3.5t67.5 3.5t83 1.5q0 -26 -6.5 -40.5t-19.5 -22t-31 -11t-42 -7.5q-15 -3 -41.5 -3t-56 0.5
t-56.5 0.5t-42 -2q-9 -34 -15.5 -83.5t-10.5 -107t-6.5 -120t-4 -122t-2.5 -112t-2 -91.5q-12 -21 -20.5 -37t-16 -21t-15.5 4t-20 37zM167 -302q23 20 35.5 52.5t23 62.5t21.5 51t31 20q9 -5 11.5 -22t-0.5 -40t-11 -48.5t-20 -48t-28 -38t-34 -18.5q-12 0 -20.5 8.5
t-8.5 20.5z" />
    <glyph glyph-name="Ubreve" unicode="&#x16c;" 
d="M396 94q-80 -68 -138.5 -87.5t-99 -3t-65 63t-38.5 111.5t-19 142.5t-6 155.5t0 151.5t0 129.5q3 10 10.5 11t17 -1.5t19.5 -6.5t18 -5q6 -42 6 -103.5t-1 -131t0 -141t9.5 -131.5t26.5 -103t51.5 -57t84 8.5t124.5 92.5q-4 65 -6.5 144t0.5 162.5t13 165t31 150.5
q17 0 33 0.5t24 -19.5q-15 -62 -23.5 -109t-12 -89.5t-4 -87t-0.5 -101.5q0 -52 3.5 -103t8 -102t8.5 -102t4 -103q-19 0 -36 7.5t-28.5 21t-16 31.5t1.5 39zM67 930q1 12 9 16.5t18 4.5t21.5 -3.5t20.5 -7.5q45 -39 77.5 -57t55.5 -21.5t38.5 3.5t25.5 17.5t16.5 21
t12.5 13.5q18 8 36 12.5t29.5 2t14 -12t-10.5 -30.5q-55 -51 -94.5 -73.5t-69 -25.5t-53 10t-45.5 33.5t-46 44t-56 41.5q-1 3 -0.5 5.5t0.5 5.5z" />
    <glyph glyph-name="Uhungarumlaut" unicode="&#x170;" 
d="M396 94q-80 -68 -138.5 -87.5t-99 -3t-65 63t-38.5 111.5t-19 142.5t-6 155.5t0 151.5t0 129.5q3 10 10.5 11t17 -1.5t19.5 -6.5t18 -5q6 -42 6 -103.5t-1 -131t0 -141t9.5 -131.5t26.5 -103t51.5 -57t84 8.5t124.5 92.5q-4 65 -6.5 144t0.5 162.5t13 165t31 150.5
q17 0 33 0.5t24 -19.5q-15 -62 -23.5 -109t-12 -89.5t-4 -87t-0.5 -101.5q0 -52 3.5 -103t8 -102t8.5 -102t4 -103q-19 0 -36 7.5t-28.5 21t-16 31.5t1.5 39zM312 1003q-19 -5 -48 -21.5t-59.5 -37t-58.5 -41t-44 -32.5q-5 3 -12.5 8t-14.5 11t-11.5 13.5t-4.5 15.5
q0 2 0.5 5.5t1.5 3.5l230 151zM460 943q-19 -5 -48 -21.5t-59.5 -37t-58.5 -41t-44 -32.5q-5 3 -12.5 8t-14.5 11t-11.5 13.5t-4.5 15.5q0 2 0.5 5.5t1.5 3.5l230 151z" />
    <glyph glyph-name="Umacron" unicode="&#x16a;" 
d="M396 94q-80 -68 -138.5 -87.5t-99 -3t-65 63t-38.5 111.5t-19 142.5t-6 155.5t0 151.5t0 129.5q3 10 10.5 11t17 -1.5t19.5 -6.5t18 -5q6 -42 6 -103.5t-1 -131t0 -141t9.5 -131.5t26.5 -103t51.5 -57t84 8.5t124.5 92.5q-4 65 -6.5 144t0.5 162.5t13 165t31 150.5
q17 0 33 0.5t24 -19.5q-15 -62 -23.5 -109t-12 -89.5t-4 -87t-0.5 -101.5q0 -52 3.5 -103t8 -102t8.5 -102t4 -103q-19 0 -36 7.5t-28.5 21t-16 31.5t1.5 39zM105 894q-15 7 -18 18.5t1.5 22.5t14.5 20.5t21 13.5q10 1 30.5 2.5t46.5 3t54.5 4t55 4t47 3t30.5 2.5h11
q17 0 23 -12.5t6 -26.5q0 -12 -5.5 -19t-14 -10.5t-19 -4.5t-20.5 -2t-30.5 -2.5t-47 -3t-55 -4t-54.5 -4t-46.5 -3t-30.5 -2.5z" />
    <glyph glyph-name="Uogonek" unicode="&#x172;" 
d="M396 94q-80 -68 -138.5 -87.5t-99 -3t-65 63t-38.5 111.5t-19 142.5t-6 155.5t0 151.5t0 129.5q3 10 10.5 11t17 -1.5t19.5 -6.5t18 -5q6 -42 6 -103.5t-1 -131t0 -141t9.5 -131.5t26.5 -103t51.5 -57t84 8.5t124.5 92.5q-4 65 -6.5 144t0.5 162.5t13 165t31 150.5
q17 0 33 0.5t24 -19.5q-15 -62 -23.5 -109t-12 -89.5t-4 -87t-0.5 -101.5q0 -52 3.5 -103t8 -102t8.5 -102t4 -103q-19 0 -36 7.5t-28.5 21t-16 31.5t1.5 39zM615 -132q0 -24 -14 -36t-35.5 -16.5t-46 -4.5h-43.5q-38 0 -60.5 15.5t-34.5 37.5t-16 47t-4 44q0 34 22 55.5
t55 34.5q11 4 16.5 -0.5t8 -13.5t1.5 -19.5t-3 -18.5t-5 -10t-5 6q-25 -30 -29 -52t5 -37.5t27.5 -24t38.5 -12t38 -2t27 7.5z" />
    <glyph glyph-name="Uring" unicode="&#x16e;" 
d="M396 94q-80 -68 -138.5 -87.5t-99 -3t-65 63t-38.5 111.5t-19 142.5t-6 155.5t0 151.5t0 129.5q3 10 10.5 11t17 -1.5t19.5 -6.5t18 -5q6 -42 6 -103.5t-1 -131t0 -141t9.5 -131.5t26.5 -103t51.5 -57t84 8.5t124.5 92.5q-4 65 -6.5 144t0.5 162.5t13 165t31 150.5
q17 0 33 0.5t24 -19.5q-15 -62 -23.5 -109t-12 -89.5t-4 -87t-0.5 -101.5q0 -52 3.5 -103t8 -102t8.5 -102t4 -103q-19 0 -36 7.5t-28.5 21t-16 31.5t1.5 39zM131 950q0 34 22 55.5t55 34.5q20 8 48 -3t54 -30.5t45.5 -43.5t22.5 -43q4 -26 -8.5 -47t-33 -36t-45 -23
t-45.5 -8q-38 0 -60.5 15.5t-34.5 37.5t-16 47t-4 44zM221 984q-32 -36 -34.5 -57t9.5 -33t31 -18.5t30 -13.5q9 0 19.5 1t19.5 4.5t15.5 11.5t9.5 22q3 18 -6 33.5t-25 26.5t-34.5 17t-34.5 6z" />
    <glyph glyph-name="Utilde" unicode="&#x168;" 
d="M396 94q-80 -68 -138.5 -87.5t-99 -3t-65 63t-38.5 111.5t-19 142.5t-6 155.5t0 151.5t0 129.5q3 10 10.5 11t17 -1.5t19.5 -6.5t18 -5q6 -42 6 -103.5t-1 -131t0 -141t9.5 -131.5t26.5 -103t51.5 -57t84 8.5t124.5 92.5q-4 65 -6.5 144t0.5 162.5t13 165t31 150.5
q17 0 33 0.5t24 -19.5q-15 -62 -23.5 -109t-12 -89.5t-4 -87t-0.5 -101.5q0 -52 3.5 -103t8 -102t8.5 -102t4 -103q-19 0 -36 7.5t-28.5 21t-16 31.5t1.5 39zM48 900q8 22 16 50.5t19 54t28 43.5t43 18q6 3 21.5 4t41 -9t61.5 -35t83 -72q31 4 39.5 22t9 40.5t0 45.5
t12.5 38l15 -2.5t18.5 -4t17.5 -7t11 -11.5q2 -35 -0.5 -73.5t-14 -70t-35 -50.5t-64.5 -14q-42 21 -67.5 40.5t-44.5 34.5t-38 24t-47 9q-27 -11 -37.5 -23.5t-13 -24.5t-1 -22t-1.5 -16q-4 0 -14.5 0.5t-22 2t-21.5 3.5t-14 5z" />
    <glyph glyph-name="Wacute" unicode="&#x1e82;" horiz-adv-x="1057" 
d="M28 660q5 15 16 18t24 3q22 0 37 -33t26.5 -83.5t22 -112t23.5 -118t31.5 -101.5t45.5 -63l227 528q4 10 11 14t15 3t16 -6t14 -11q27 -61 60.5 -129.5t71 -137.5t77 -134t78.5 -120q22 10 35 57.5t27 126.5t33 188t52 243q2 12 9.5 15t16 1.5t17.5 -6.5t14 -10
q0 -73 -11.5 -154t-30 -164.5t-40.5 -165.5t-43 -157q-14 -26 -26.5 -46.5t-26 -28.5t-30 -0.5t-37.5 37.5l-277 468q-41 -120 -73 -207t-57 -147.5t-43.5 -98.5t-33 -60t-25.5 -32.5t-20 -16.5l-37 38q-29 56 -56 131t-51.5 157t-45 164t-36.5 151zM703 976
q-19 -5 -48 -21.5t-59.5 -37t-58.5 -41t-44 -32.5q-5 3 -12.5 8t-14.5 11t-11.5 13.5t-4.5 15.5q0 2 0.5 5.5t1.5 3.5l230 151z" />
    <glyph glyph-name="Wcircumflex" unicode="&#x174;" horiz-adv-x="1057" 
d="M28 660q5 15 16 18t24 3q22 0 37 -33t26.5 -83.5t22 -112t23.5 -118t31.5 -101.5t45.5 -63l227 528q4 10 11 14t15 3t16 -6t14 -11q27 -61 60.5 -129.5t71 -137.5t77 -134t78.5 -120q22 10 35 57.5t27 126.5t33 188t52 243q2 12 9.5 15t16 1.5t17.5 -6.5t14 -10
q0 -73 -11.5 -154t-30 -164.5t-40.5 -165.5t-43 -157q-14 -26 -26.5 -46.5t-26 -28.5t-30 -0.5t-37.5 37.5l-277 468q-41 -120 -73 -207t-57 -147.5t-43.5 -98.5t-33 -60t-25.5 -32.5t-20 -16.5l-37 38q-29 56 -56 131t-51.5 157t-45 164t-36.5 151zM345 873q0 5 -0.5 9.5
t0.5 9.5q22 40 45.5 71.5t44 61.5t36.5 62.5t24 75.5q9 21 29 21q1 0 -3.5 5.5t-5.5 7.5t5.5 -3t28.5 -26.5t64.5 -63t113.5 -112.5q14 -36 11.5 -53t-15.5 -20.5t-32.5 3.5t-38.5 21q-10 9 -23.5 23t-27.5 29.5t-27.5 30t-22.5 24.5l-131 -196q-10 -8 -22.5 -13.5t-23.5 -5
t-19.5 8.5t-9.5 29z" />
    <glyph glyph-name="Wdieresis" unicode="&#x1e84;" horiz-adv-x="1057" 
d="M28 660q5 15 16 18t24 3q22 0 37 -33t26.5 -83.5t22 -112t23.5 -118t31.5 -101.5t45.5 -63l227 528q4 10 11 14t15 3t16 -6t14 -11q27 -61 60.5 -129.5t71 -137.5t77 -134t78.5 -120q22 10 35 57.5t27 126.5t33 188t52 243q2 12 9.5 15t16 1.5t17.5 -6.5t14 -10
q0 -73 -11.5 -154t-30 -164.5t-40.5 -165.5t-43 -157q-14 -26 -26.5 -46.5t-26 -28.5t-30 -0.5t-37.5 37.5l-277 468q-41 -120 -73 -207t-57 -147.5t-43.5 -98.5t-33 -60t-25.5 -32.5t-20 -16.5l-37 38q-29 56 -56 131t-51.5 157t-45 164t-36.5 151zM441 988q7 0 21 0.5
t28 -2.5t24.5 -10.5t10.5 -22.5q0 -7 -1.5 -15.5t-4.5 -16t-8.5 -12.5t-14.5 -5q-15 0 -25 9t-17 22t-10 27.5t-3 25.5zM583 988q7 0 21 0.5t28 -2.5t24.5 -10.5t10.5 -22.5q0 -7 -1.5 -15.5t-4.5 -16t-8.5 -12.5t-14.5 -5q-15 0 -25 9t-17 22t-10 27.5t-3 25.5z" />
    <glyph glyph-name="Wgrave" unicode="&#x1e80;" horiz-adv-x="1057" 
d="M28 660q5 15 16 18t24 3q22 0 37 -33t26.5 -83.5t22 -112t23.5 -118t31.5 -101.5t45.5 -63l227 528q4 10 11 14t15 3t16 -6t14 -11q27 -61 60.5 -129.5t71 -137.5t77 -134t78.5 -120q22 10 35 57.5t27 126.5t33 188t52 243q2 12 9.5 15t16 1.5t17.5 -6.5t14 -10
q0 -73 -11.5 -154t-30 -164.5t-40.5 -165.5t-43 -157q-14 -26 -26.5 -46.5t-26 -28.5t-30 -0.5t-37.5 37.5l-277 468q-41 -120 -73 -207t-57 -147.5t-43.5 -98.5t-33 -60t-25.5 -32.5t-20 -16.5l-37 38q-29 56 -56 131t-51.5 157t-45 164t-36.5 151zM420 1040l207 -151
q1 0 1.5 -3.5t0.5 -5.5q0 -17 -14.5 -29t-24.5 -19q-15 12 -39.5 32.5t-52 41t-54 37t-43.5 21.5z" />
    <glyph glyph-name="Ycircumflex" unicode="&#x176;" horiz-adv-x="604" 
d="M280 -33q-23 0 -36.5 18.5t-11.5 40.5q1 9 7.5 31t15 51t18 61t17.5 60t13 50t4 30q-45 58 -84.5 113.5t-75 112t-66 117t-57.5 128.5q3 10 9.5 14.5t14 5.5t16.5 0.5t17 -1.5q24 -52 51.5 -109t59.5 -112t70 -105.5t83 -88.5q42 104 72 175.5t50.5 118t32.5 71.5
t18.5 37t9 14t3.5 2q42 0 42 -41q0 -3 -1 -10t-1 -8l-283 -774q0 -1 -3 -1.5t-5 -0.5zM110 921q0 5 -0.5 9.5t0.5 9.5q22 40 45.5 71.5t44 61.5t36.5 62.5t24 75.5q9 21 29 21q1 0 -3.5 5.5t-5.5 7.5t5.5 -3t28.5 -26.5t64.5 -63t113.5 -112.5q14 -36 11.5 -53t-15.5 -20.5
t-32.5 3.5t-38.5 21q-10 9 -23.5 23t-27.5 29.5t-27.5 30t-22.5 24.5l-131 -196q-10 -8 -22.5 -13.5t-23.5 -5t-19.5 8.5t-9.5 29z" />
    <glyph glyph-name="Ygrave" unicode="&#x1ef2;" horiz-adv-x="604" 
d="M280 -33q-23 0 -36.5 18.5t-11.5 40.5q1 9 7.5 31t15 51t18 61t17.5 60t13 50t4 30q-45 58 -84.5 113.5t-75 112t-66 117t-57.5 128.5q3 10 9.5 14.5t14 5.5t16.5 0.5t17 -1.5q24 -52 51.5 -109t59.5 -112t70 -105.5t83 -88.5q42 104 72 175.5t50.5 118t32.5 71.5
t18.5 37t9 14t3.5 2q42 0 42 -41q0 -3 -1 -10t-1 -8l-283 -774q0 -1 -3 -1.5t-5 -0.5zM207 1087l207 -151q1 0 1.5 -3.5t0.5 -5.5q0 -17 -14.5 -29t-24.5 -19q-15 12 -39.5 32.5t-52 41t-54 37t-43.5 21.5z" />
    <glyph glyph-name="Zacute" unicode="&#x179;" horiz-adv-x="587" 
d="M38 41q8 10 27 37t40 57t39.5 56.5t25.5 37.5q11 18 33 52.5t48.5 76.5t53.5 88t49 87t35 72.5t11 46.5l-335 -14q-5 1 -11.5 9t-12.5 18t-10 18.5t-4 10.5q0 8 4 12t10 6t12 2h11q38 0 92 1.5t110 2t107.5 -1t83.5 -7.5q25 4 47.5 3t35.5 -8t13 -19.5t-21 -32.5
q-47 -55 -94.5 -124.5t-94 -145t-90.5 -154t-83 -150.5h245q6 12 12 16t17 4q13 0 28 -6.5t28 -17.5t21.5 -24.5t8.5 -27.5q0 -2 -0.5 -9.5t-1.5 -9.5q-16 -1 -50 -2.5t-76.5 -3t-90 -4t-90 -4t-77 -3t-50.5 -2.5h-11q-9 0 -16 6.5t-13 16t-10 19t-6 15.5zM450 968
q-19 -5 -48 -21.5t-59.5 -37t-58.5 -41t-44 -32.5q-5 3 -12.5 8t-14.5 11t-11.5 13.5t-4.5 15.5q0 2 0.5 5.5t1.5 3.5l230 151z" />
    <glyph glyph-name="Zdotaccent" unicode="&#x17b;" horiz-adv-x="587" 
d="M38 41q8 10 27 37t40 57t39.5 56.5t25.5 37.5q11 18 33 52.5t48.5 76.5t53.5 88t49 87t35 72.5t11 46.5l-335 -14q-5 1 -11.5 9t-12.5 18t-10 18.5t-4 10.5q0 8 4 12t10 6t12 2h11q38 0 92 1.5t110 2t107.5 -1t83.5 -7.5q25 4 47.5 3t35.5 -8t13 -19.5t-21 -32.5
q-47 -55 -94.5 -124.5t-94 -145t-90.5 -154t-83 -150.5h245q6 12 12 16t17 4q13 0 28 -6.5t28 -17.5t21.5 -24.5t8.5 -27.5q0 -2 -0.5 -9.5t-1.5 -9.5q-16 -1 -50 -2.5t-76.5 -3t-90 -4t-90 -4t-77 -3t-50.5 -2.5h-11q-9 0 -16 6.5t-13 16t-10 19t-6 15.5zM251 854
q7 0 21 0.5t28 -2.5t24.5 -10.5t10.5 -22.5q0 -7 -1.5 -15.5t-4.5 -16t-8.5 -12.5t-14.5 -5q-15 0 -25 9t-17 22t-10 27.5t-3 25.5z" />
    <glyph glyph-name="abreve" unicode="&#x103;" horiz-adv-x="522" 
d="M26 263q-2 20 3 54.5t16 74t28 80.5t40 74.5t50.5 54t60.5 20.5q65 6 105.5 -25.5t66.5 -86.5l5 -323q0 -22 14 -37.5t34 -25.5t43.5 -14.5t42.5 -4.5l2 -73q-40 0 -65.5 6t-46 20t-39 36t-45.5 54q-12 -22 -29.5 -48t-40 -48t-48 -37t-53.5 -15q-47 0 -75.5 28.5
t-43.5 69.5t-20 86.5t-5 79.5zM99 255q0 -17 3 -47t11.5 -60t24 -52t41.5 -22q29 -3 49 15.5t36 54.5t31 87t33 114q17 82 7.5 129t-34 63.5t-58.5 4t-65 -50t-54 -97.5t-25 -139zM64 930q1 12 9 16.5t18 4.5t21.5 -3.5t20.5 -7.5q45 -39 77.5 -57t55.5 -21.5t38.5 3.5
t25.5 17.5t16.5 21t12.5 13.5q18 8 36 12.5t29.5 2t14 -12t-10.5 -30.5q-55 -51 -94.5 -73.5t-69 -25.5t-53 10t-45.5 33.5t-46 44t-56 41.5q-1 3 -0.5 5.5t0.5 5.5z" />
    <glyph glyph-name="amacron" unicode="&#x101;" horiz-adv-x="522" 
d="M26 263q-2 20 3 54.5t16 74t28 80.5t40 74.5t50.5 54t60.5 20.5q65 6 105.5 -25.5t66.5 -86.5l5 -323q0 -22 14 -37.5t34 -25.5t43.5 -14.5t42.5 -4.5l2 -73q-40 0 -65.5 6t-46 20t-39 36t-45.5 54q-12 -22 -29.5 -48t-40 -48t-48 -37t-53.5 -15q-47 0 -75.5 28.5
t-43.5 69.5t-20 86.5t-5 79.5zM99 255q0 -17 3 -47t11.5 -60t24 -52t41.5 -22q29 -3 49 15.5t36 54.5t31 87t33 114q17 82 7.5 129t-34 63.5t-58.5 4t-65 -50t-54 -97.5t-25 -139zM119 765q-15 7 -18 18.5t1.5 22.5t14.5 20.5t21 13.5q10 1 30.5 2.5t46.5 3t54.5 4t55 4
t47 3t30.5 2.5h11q17 0 23 -12.5t6 -26.5q0 -12 -5.5 -19t-14 -10.5t-19 -4.5t-20.5 -2t-30.5 -2.5t-47 -3t-55 -4t-54.5 -4t-46.5 -3t-30.5 -2.5z" />
    <glyph glyph-name="aogonek" unicode="&#x105;" horiz-adv-x="522" 
d="M26 263q-2 20 3 54.5t16 74t28 80.5t40 74.5t50.5 54t60.5 20.5q65 6 105.5 -25.5t66.5 -86.5l5 -323q0 -22 14 -37.5t34 -25.5t43.5 -14.5t42.5 -4.5l2 -73q-40 0 -65.5 6t-46 20t-39 36t-45.5 54q-12 -22 -29.5 -48t-40 -48t-48 -37t-53.5 -15q-47 0 -75.5 28.5
t-43.5 69.5t-20 86.5t-5 79.5zM99 255q0 -17 3 -47t11.5 -60t24 -52t41.5 -22q29 -3 49 15.5t36 54.5t31 87t33 114q17 82 7.5 129t-34 63.5t-58.5 4t-65 -50t-54 -97.5t-25 -139zM618 -82q0 -24 -14 -36t-35.5 -16.5t-46 -4.5h-43.5q-38 0 -60.5 15.5t-34.5 37.5t-16 47
t-4 44q0 34 22 55.5t55 34.5q11 4 16.5 -0.5t8 -13.5t1.5 -19.5t-3 -18.5t-5 -10t-5 6q-25 -30 -29 -52t5 -37.5t27.5 -24t38.5 -12t38 -2t27 7.5z" />
    <glyph glyph-name="aeacute" unicode="&#x1fd;" horiz-adv-x="738" 
d="M44 272q0 -34 5 -79.5t20 -86.5t43.5 -69.5t75.5 -28.5q28 0 53.5 15t48 37t40 48t29.5 48q8 -21 11.5 -41.5t6.5 -39t7.5 -34.5t15.5 -28t30.5 -19t52.5 -7l11 19q24 -7 58 -7q50 1 85 15.5t54 31.5t22 30t-11 10q-69 -14 -112.5 -17.5t-70 3t-40 23t-22.5 42.5
q-11 20 -18 46.5t-9 61.5q0 5 0.5 19t0.5 19q45 13 89 30t79.5 43.5t57 64.5t21.5 93q0 50 -31.5 71t-77.5 21q-66 0 -102.5 -19.5t-59.5 -55.5q-26 49 -65 76.5t-100 22.5q-33 0 -60.5 -20.5t-50.5 -54t-40 -74.5t-28 -80.5t-16 -74t-3 -54.5zM117 264q2 79 25 139t54 97.5
t65 50t58.5 -4t34 -63.5t-7.5 -129q-18 -63 -33 -114t-31 -87t-36 -54.5t-49 -15.5q-26 0 -41.5 22t-24 52t-11.5 60t-3 47zM430 386q0 32 8 61.5t24.5 52t41.5 35.5t60 13q28 0 33 -17.5t5 -42.5q0 -24 -15 -47.5t-37.5 -41.5t-49.5 -29.5t-51 -11.5q-12 0 -15.5 10
t-3.5 18zM495 843q-19 -5 -48 -21.5t-59.5 -37t-58.5 -41t-44 -32.5q-5 3 -12.5 8t-14.5 11t-11.5 13.5t-4.5 15.5q0 2 0.5 5.5t1.5 3.5l230 151z" />
    <glyph glyph-name="cacute" unicode="&#x107;" horiz-adv-x="396" 
d="M27 348q0 23 2 53.5t8 63.5t16.5 65t27 57t39.5 40.5t55 15.5q30 0 56.5 -11t46 -31t31 -47t11.5 -58q-28 0 -44 11t-29 24.5t-25.5 24.5t-32.5 11q-24 0 -39.5 -12t-25 -31.5t-14.5 -44t-6.5 -49t-1.5 -46.5v-36q0 -22 2.5 -51t9.5 -59.5t18 -59.5t28 -52t40.5 -37
t54.5 -14q16 0 28 6.5t23.5 15t24 15t28.5 6.5q0 -24 -12.5 -46t-31.5 -38t-43 -25.5t-46 -9.5q-35 0 -63.5 19t-50.5 49t-38 68t-26.5 77t-15.5 74.5t-5 61.5zM324 843q-19 -5 -48 -21.5t-59.5 -37t-58.5 -41t-44 -32.5q-5 3 -12.5 8t-14.5 11t-11.5 13.5t-4.5 15.5
q0 2 0.5 5.5t1.5 3.5l230 151z" />
    <glyph glyph-name="ccaron" unicode="&#x10d;" horiz-adv-x="396" 
d="M27 348q0 23 2 53.5t8 63.5t16.5 65t27 57t39.5 40.5t55 15.5q30 0 56.5 -11t46 -31t31 -47t11.5 -58q-28 0 -44 11t-29 24.5t-25.5 24.5t-32.5 11q-24 0 -39.5 -12t-25 -31.5t-14.5 -44t-6.5 -49t-1.5 -46.5v-36q0 -22 2.5 -51t9.5 -59.5t18 -59.5t28 -52t40.5 -37
t54.5 -14q16 0 28 6.5t23.5 15t24 15t28.5 6.5q0 -24 -12.5 -46t-31.5 -38t-43 -25.5t-46 -9.5q-35 0 -63.5 19t-50.5 49t-38 68t-26.5 77t-15.5 74.5t-5 61.5zM-52 965q1 12 9 16.5t18 4.5t21.5 -3.5t20.5 -7.5l157 -172q9 6 33.5 22.5t53 35.5t53.5 35t34 21q18 8 36 12.5
t29.5 2t14 -12t-10.5 -30.5q-65 -40 -110 -68t-75 -46t-46.5 -27.5t-24.5 -14t-10 -5.5l-2 -1q-18 0 -27 12q-7 24 -27.5 52t-46 56.5t-53 56t-47.5 50.5q-1 3 -0.5 5.5t0.5 5.5z" />
    <glyph glyph-name="ccircumflex" unicode="&#x109;" horiz-adv-x="396" 
d="M27 348q0 23 2 53.5t8 63.5t16.5 65t27 57t39.5 40.5t55 15.5q30 0 56.5 -11t46 -31t31 -47t11.5 -58q-28 0 -44 11t-29 24.5t-25.5 24.5t-32.5 11q-24 0 -39.5 -12t-25 -31.5t-14.5 -44t-6.5 -49t-1.5 -46.5v-36q0 -22 2.5 -51t9.5 -59.5t18 -59.5t28 -52t40.5 -37
t54.5 -14q16 0 28 6.5t23.5 15t24 15t28.5 6.5q0 -24 -12.5 -46t-31.5 -38t-43 -25.5t-46 -9.5q-35 0 -63.5 19t-50.5 49t-38 68t-26.5 77t-15.5 74.5t-5 61.5zM-10 748q0 5 -0.5 9.5t0.5 9.5q22 40 45.5 71.5t44 61.5t36.5 62.5t24 75.5q9 21 29 21q1 0 -3.5 5.5t-5.5 7.5
t5.5 -3t28.5 -26.5t64.5 -63t113.5 -112.5q14 -36 11.5 -53t-15.5 -20.5t-32.5 3.5t-38.5 21q-10 9 -23.5 23t-27.5 29.5t-27.5 30t-22.5 24.5l-131 -196q-10 -8 -22.5 -13.5t-23.5 -5t-19.5 8.5t-9.5 29z" />
    <glyph glyph-name="cdotaccent" unicode="&#x10b;" horiz-adv-x="396" 
d="M27 348q0 23 2 53.5t8 63.5t16.5 65t27 57t39.5 40.5t55 15.5q30 0 56.5 -11t46 -31t31 -47t11.5 -58q-28 0 -44 11t-29 24.5t-25.5 24.5t-32.5 11q-24 0 -39.5 -12t-25 -31.5t-14.5 -44t-6.5 -49t-1.5 -46.5v-36q0 -22 2.5 -51t9.5 -59.5t18 -59.5t28 -52t40.5 -37
t54.5 -14q16 0 28 6.5t23.5 15t24 15t28.5 6.5q0 -24 -12.5 -46t-31.5 -38t-43 -25.5t-46 -9.5q-35 0 -63.5 19t-50.5 49t-38 68t-26.5 77t-15.5 74.5t-5 61.5zM156 854q7 0 21 0.5t28 -2.5t24.5 -10.5t10.5 -22.5q0 -7 -1.5 -15.5t-4.5 -16t-8.5 -12.5t-14.5 -5
q-15 0 -25 9t-17 22t-10 27.5t-3 25.5z" />
    <glyph glyph-name="dcaron" unicode="&#x10f;" horiz-adv-x="622" 
d="M18 292q0 39 9.5 90t31 97.5t55.5 78.5t83 32q18 0 32.5 0.5t27 -2.5t24.5 -13t25 -31q5 36 7.5 69t5.5 65.5t7.5 65t13.5 67.5q7 0 18.5 1.5t22.5 0.5t20 -5t13 -14q-7 -16 -11 -56t-6 -95t-2 -119.5t1 -130t3.5 -127t5 -110t5.5 -78.5t5 -33q0 -17 -12.5 -22.5
t-26.5 -5.5q-23 0 -32 12t-4 46q-10 -13 -25.5 -26t-33.5 -24t-37 -18t-36 -7q-51 0 -87.5 30.5t-59 75.5t-33 95.5t-10.5 90.5zM93 298q0 -27 2.5 -65.5t14 -73.5t34.5 -59.5t64 -24.5q51 -3 81.5 27.5t43.5 79t10 105.5t-19 106.5t-43 82.5t-63 34q-38 0 -62 -23.5
t-38 -56.5t-19.5 -69.5t-5.5 -62.5zM519 491q0 2 3 10.5t6.5 18t6.5 17.5t3 10q0 1 0.5 12t0.5 16q0 51 -18.5 102.5t-39.5 96.5q11 20 28 20q24 0 40.5 -27t27 -64t15.5 -75.5t5 -62.5q0 -12 -0.5 -28t-5 -30.5t-14.5 -25t-30 -10.5q-8 0 -18 4.5t-10 15.5z" />
    <glyph glyph-name="dcroat" unicode="&#x111;" horiz-adv-x="462" 
d="M18 292q0 39 9.5 90t31 97.5t55.5 78.5t83 32q18 0 32.5 0.5t27 -2.5t24.5 -13t25 -31q5 36 7.5 69t5.5 65.5t7.5 65t13.5 67.5q7 0 18.5 1.5t22.5 0.5t20 -5t13 -14q-7 -16 -11 -56t-6 -95t-2 -119.5t1 -130t3.5 -127t5 -110t5.5 -78.5t5 -33q0 -17 -12.5 -22.5
t-26.5 -5.5q-23 0 -32 12t-4 46q-10 -13 -25.5 -26t-33.5 -24t-37 -18t-36 -7q-51 0 -87.5 30.5t-59 75.5t-33 95.5t-10.5 90.5zM93 298q0 -27 2.5 -65.5t14 -73.5t34.5 -59.5t64 -24.5q51 -3 81.5 27.5t43.5 79t10 105.5t-19 106.5t-43 82.5t-63 34q-38 0 -62 -23.5
t-38 -56.5t-19.5 -69.5t-5.5 -62.5zM218.481 645.812q-1.25488 1.1123 -3.4502 7.22852q-2.19531 6.11719 -4.07715 12.7891q-1.88184 6.67285 -3.13672 12.79q-1.25391 6.11621 -1.25391 9.45312q0 10.0088 3.44922 14.457q3.4502 4.44824 8.15527 6.11719
q4.7041 1.66797 9.09473 1.66797h6.89941q42.0264 -7.78516 68.0576 -11.1211q26.0312 -3.33691 43.5947 -4.44824q17.5635 -1.1123 31.0498 -1.1123q13.4854 0 30.4219 -2.22461q16.9355 -2.22461 40.7715 -8.89648q23.8359 -6.67285 62.7256 -18.9062
q10.0361 -3.33691 18.1904 -6.67285q8.1543 -3.33691 14.4277 -10.0088q6.27246 -6.67285 9.72168 -18.9062q3.4502 -12.2334 3.4502 -32.252q-48.2988 10.0088 -87.8164 17.2383q-39.5166 7.22852 -78.0938 12.2334q-38.5762 5.00391 -79.6611 9.45312
q-41.0859 4.44824 -92.5205 11.1211z" />
    <glyph glyph-name="ebreve" unicode="&#x115;" horiz-adv-x="489" 
d="M-21 456q0 17 12.5 24t26.5 7q2 0 9.5 -1t9.5 -1q17 -68 30.5 -95t24.5 -32t20 4t18 15q13 53 26 95.5t35.5 72t58 45.5t94.5 16q46 0 77.5 -21t31.5 -71q0 -55 -21.5 -93t-57 -64.5t-79.5 -43.5t-89 -30q0 -5 -0.5 -19t-0.5 -19q6 -71 28 -109.5t51.5 -55t63 -16.5
t62 6.5t47.5 13t20 2.5q5 -13 1 -28t-20.5 -28t-48.5 -21.5t-82 -9.5q-43 0 -73.5 13t-51 35.5t-33 52t-20.5 62.5t-14 66.5t-12 64.5q-29 -22 -52.5 -9.5t-41 41.5t-30 66t-20.5 65zM205 386q0 -8 3.5 -18t15.5 -10q24 0 51 11.5t49.5 29.5t37.5 41.5t15 47.5q0 25 -5 42.5
t-33 17.5q-35 0 -60 -13t-41.5 -35.5t-24.5 -52t-8 -61.5zM47 930q1 12 9 16.5t18 4.5t21.5 -3.5t20.5 -7.5q45 -39 77.5 -57t55.5 -21.5t38.5 3.5t25.5 17.5t16.5 21t12.5 13.5q18 8 36 12.5t29.5 2t14 -12t-10.5 -30.5q-55 -51 -94.5 -73.5t-69 -25.5t-53 10t-45.5 33.5
t-46 44t-56 41.5q-1 3 -0.5 5.5t0.5 5.5z" />
    <glyph glyph-name="ecaron" unicode="&#x11b;" horiz-adv-x="489" 
d="M-21 456q0 17 12.5 24t26.5 7q2 0 9.5 -1t9.5 -1q17 -68 30.5 -95t24.5 -32t20 4t18 15q13 53 26 95.5t35.5 72t58 45.5t94.5 16q46 0 77.5 -21t31.5 -71q0 -55 -21.5 -93t-57 -64.5t-79.5 -43.5t-89 -30q0 -5 -0.5 -19t-0.5 -19q6 -71 28 -109.5t51.5 -55t63 -16.5
t62 6.5t47.5 13t20 2.5q5 -13 1 -28t-20.5 -28t-48.5 -21.5t-82 -9.5q-43 0 -73.5 13t-51 35.5t-33 52t-20.5 62.5t-14 66.5t-12 64.5q-29 -22 -52.5 -9.5t-41 41.5t-30 66t-20.5 65zM205 386q0 -8 3.5 -18t15.5 -10q24 0 51 11.5t49.5 29.5t37.5 41.5t15 47.5q0 25 -5 42.5
t-33 17.5q-35 0 -60 -13t-41.5 -35.5t-24.5 -52t-8 -61.5zM-5 965q1 12 9 16.5t18 4.5t21.5 -3.5t20.5 -7.5l157 -172q9 6 33.5 22.5t53 35.5t53.5 35t34 21q18 8 36 12.5t29.5 2t14 -12t-10.5 -30.5q-65 -40 -110 -68t-75 -46t-46.5 -27.5t-24.5 -14t-10 -5.5l-2 -1
q-18 0 -27 12q-7 24 -27.5 52t-46 56.5t-53 56t-47.5 50.5q-1 3 -0.5 5.5t0.5 5.5z" />
    <glyph glyph-name="edotaccent" unicode="&#x117;" horiz-adv-x="489" 
d="M-21 456q0 17 12.5 24t26.5 7q2 0 9.5 -1t9.5 -1q17 -68 30.5 -95t24.5 -32t20 4t18 15q13 53 26 95.5t35.5 72t58 45.5t94.5 16q46 0 77.5 -21t31.5 -71q0 -55 -21.5 -93t-57 -64.5t-79.5 -43.5t-89 -30q0 -5 -0.5 -19t-0.5 -19q6 -71 28 -109.5t51.5 -55t63 -16.5
t62 6.5t47.5 13t20 2.5q5 -13 1 -28t-20.5 -28t-48.5 -21.5t-82 -9.5q-43 0 -73.5 13t-51 35.5t-33 52t-20.5 62.5t-14 66.5t-12 64.5q-29 -22 -52.5 -9.5t-41 41.5t-30 66t-20.5 65zM205 386q0 -8 3.5 -18t15.5 -10q24 0 51 11.5t49.5 29.5t37.5 41.5t15 47.5q0 25 -5 42.5
t-33 17.5q-35 0 -60 -13t-41.5 -35.5t-24.5 -52t-8 -61.5zM202 854q7 0 21 0.5t28 -2.5t24.5 -10.5t10.5 -22.5q0 -7 -1.5 -15.5t-4.5 -16t-8.5 -12.5t-14.5 -5q-15 0 -25 9t-17 22t-10 27.5t-3 25.5z" />
    <glyph glyph-name="emacron" unicode="&#x113;" horiz-adv-x="489" 
d="M-21 456q0 17 12.5 24t26.5 7q2 0 9.5 -1t9.5 -1q17 -68 30.5 -95t24.5 -32t20 4t18 15q13 53 26 95.5t35.5 72t58 45.5t94.5 16q46 0 77.5 -21t31.5 -71q0 -55 -21.5 -93t-57 -64.5t-79.5 -43.5t-89 -30q0 -5 -0.5 -19t-0.5 -19q6 -71 28 -109.5t51.5 -55t63 -16.5
t62 6.5t47.5 13t20 2.5q5 -13 1 -28t-20.5 -28t-48.5 -21.5t-82 -9.5q-43 0 -73.5 13t-51 35.5t-33 52t-20.5 62.5t-14 66.5t-12 64.5q-29 -22 -52.5 -9.5t-41 41.5t-30 66t-20.5 65zM205 386q0 -8 3.5 -18t15.5 -10q24 0 51 11.5t49.5 29.5t37.5 41.5t15 47.5q0 25 -5 42.5
t-33 17.5q-35 0 -60 -13t-41.5 -35.5t-24.5 -52t-8 -61.5zM102 765q-15 7 -18 18.5t1.5 22.5t14.5 20.5t21 13.5q10 1 30.5 2.5t46.5 3t54.5 4t55 4t47 3t30.5 2.5h11q17 0 23 -12.5t6 -26.5q0 -12 -5.5 -19t-14 -10.5t-19 -4.5t-20.5 -2t-30.5 -2.5t-47 -3t-55 -4t-54.5 -4
t-46.5 -3t-30.5 -2.5z" />
    <glyph glyph-name="eogonek" unicode="&#x119;" horiz-adv-x="489" 
d="M-21 456q0 17 12.5 24t26.5 7q2 0 9.5 -1t9.5 -1q17 -68 30.5 -95t24.5 -32t20 4t18 15q13 53 26 95.5t35.5 72t58 45.5t94.5 16q46 0 77.5 -21t31.5 -71q0 -55 -21.5 -93t-57 -64.5t-79.5 -43.5t-89 -30q0 -5 -0.5 -19t-0.5 -19q6 -71 28 -109.5t51.5 -55t63 -16.5
t62 6.5t47.5 13t20 2.5q5 -13 1 -28t-20.5 -28t-48.5 -21.5t-82 -9.5q-43 0 -73.5 13t-51 35.5t-33 52t-20.5 62.5t-14 66.5t-12 64.5q-29 -22 -52.5 -9.5t-41 41.5t-30 66t-20.5 65zM205 386q0 -8 3.5 -18t15.5 -10q24 0 51 11.5t49.5 29.5t37.5 41.5t15 47.5q0 25 -5 42.5
t-33 17.5q-35 0 -60 -13t-41.5 -35.5t-24.5 -52t-8 -61.5zM490 -133q0 -24 -14 -36t-35.5 -16.5t-46 -4.5h-43.5q-38 0 -60.5 15.5t-34.5 37.5t-16 47t-4 44q0 34 22 55.5t55 34.5q11 4 16.5 -0.5t8 -13.5t1.5 -19.5t-3 -18.5t-5 -10t-5 6q-25 -30 -29 -52t5 -37.5t27.5 -24
t38.5 -12t38 -2t27 7.5z" />
    <glyph glyph-name="gbreve" unicode="&#x11f;" horiz-adv-x="393" 
d="M151 -250q3 6 8.5 16.5t12.5 20.5t14 17.5t12 7.5q28 -38 48 -40.5t32.5 16.5t18.5 53.5t6 72.5t-5.5 72t-14.5 52q-15 -5 -26.5 -14l-23 -18t-23.5 -15t-29 -4q-50 0 -81.5 22.5t-49.5 58t-24.5 80t-6.5 88.5q0 16 3 49.5t10.5 74.5t20 84.5t31 79t44.5 58.5t61 23
q42 6 67 1t42 -16t31 -25.5t33 -29.5q2 -10 7 -61.5t9 -126.5t5 -164.5t-5 -175t-20 -158t-41 -114t-67.5 -42.5t-98.5 57zM93 234q0 -22 1.5 -49.5t9 -52t24.5 -41.5t49 -17q17 0 39 7.5t41 20t32 30t13 38.5v296q-44 56 -77 63.5t-56.5 -14.5t-38.5 -64.5t-23.5 -87
t-11.5 -81.5t-2 -48zM-1 930q1 12 9 16.5t18 4.5t21.5 -3.5t20.5 -7.5q45 -39 77.5 -57t55.5 -21.5t38.5 3.5t25.5 17.5t16.5 21t12.5 13.5q18 8 36 12.5t29.5 2t14 -12t-10.5 -30.5q-55 -51 -94.5 -73.5t-69 -25.5t-53 10t-45.5 33.5t-46 44t-56 41.5q-1 3 -0.5 5.5
t0.5 5.5z" />
    <glyph glyph-name="gcommaaccent" unicode="&#x123;" horiz-adv-x="393" 
d="M151 -250q3 6 8.5 16.5t12.5 20.5t14 17.5t12 7.5q28 -38 48 -40.5t32.5 16.5t18.5 53.5t6 72.5t-5.5 72t-14.5 52q-15 -5 -26.5 -14l-23 -18t-23.5 -15t-29 -4q-50 0 -81.5 22.5t-49.5 58t-24.5 80t-6.5 88.5q0 16 3 49.5t10.5 74.5t20 84.5t31 79t44.5 58.5t61 23
q42 6 67 1t42 -16t31 -25.5t33 -29.5q2 -10 7 -61.5t9 -126.5t5 -164.5t-5 -175t-20 -158t-41 -114t-67.5 -42.5t-98.5 57zM93 234q0 -22 1.5 -49.5t9 -52t24.5 -41.5t49 -17q17 0 39 7.5t41 20t32 30t13 38.5v296q-44 56 -77 63.5t-56.5 -14.5t-38.5 -64.5t-23.5 -87
t-11.5 -81.5t-2 -48zM209 732q0 2 3 10.5t6.5 18t6.5 17.5t3 10q0 1 0.5 12t0.5 16q0 51 -18.5 102.5t-39.5 96.5q11 20 28 20q24 0 40.5 -27t27 -64t15.5 -75.5t5 -62.5q0 -12 -0.5 -28t-5 -30.5t-14.5 -25t-30 -10.5q-8 0 -18 4.5t-10 15.5z" />
    <glyph glyph-name="gdotaccent" unicode="&#x121;" horiz-adv-x="393" 
d="M151 -250q3 6 8.5 16.5t12.5 20.5t14 17.5t12 7.5q28 -38 48 -40.5t32.5 16.5t18.5 53.5t6 72.5t-5.5 72t-14.5 52q-15 -5 -26.5 -14l-23 -18t-23.5 -15t-29 -4q-50 0 -81.5 22.5t-49.5 58t-24.5 80t-6.5 88.5q0 16 3 49.5t10.5 74.5t20 84.5t31 79t44.5 58.5t61 23
q42 6 67 1t42 -16t31 -25.5t33 -29.5q2 -10 7 -61.5t9 -126.5t5 -164.5t-5 -175t-20 -158t-41 -114t-67.5 -42.5t-98.5 57zM93 234q0 -22 1.5 -49.5t9 -52t24.5 -41.5t49 -17q17 0 39 7.5t41 20t32 30t13 38.5v296q-44 56 -77 63.5t-56.5 -14.5t-38.5 -64.5t-23.5 -87
t-11.5 -81.5t-2 -48zM154 854q7 0 21 0.5t28 -2.5t24.5 -10.5t10.5 -22.5q0 -7 -1.5 -15.5t-4.5 -16t-8.5 -12.5t-14.5 -5q-15 0 -25 9t-17 22t-10 27.5t-3 25.5z" />
    <glyph glyph-name="hcircumflex" unicode="&#x125;" horiz-adv-x="496" 
d="M378 38q1 16 1 56v85v85.5t-1 56.5q-9 75 -35.5 109t-65 39.5t-84.5 -11.5t-94 -44l2 -388q-6 -8 -14 -15.5t-17.5 -9.5t-19.5 2t-20 19l8 789q0 11 8 15t18 3t19 -6t12 -12l-4 -323q7 10 34 25.5t64 26t79.5 12t80.5 -16.5q35 -18 56.5 -53t33.5 -78.5t16.5 -91.5
t4.5 -93t-2.5 -83t-4.5 -61l38 -37q-4 -17 -20.5 -26.5t-35 -10.5t-35.5 8t-22 29zM147 715q0 5 -0.5 9.5t0.5 9.5q22 40 45.5 71.5t44 61.5t36.5 62.5t24 75.5q9 21 29 21q1 0 -3.5 5.5t-5.5 7.5t5.5 -3t28.5 -26.5t64.5 -63t113.5 -112.5q14 -36 11.5 -53t-15.5 -20.5
t-32.5 3.5t-38.5 21q-10 9 -23.5 23t-27.5 29.5t-27.5 30t-22.5 24.5l-131 -196q-10 -8 -22.5 -13.5t-23.5 -5t-19.5 8.5t-9.5 29z" />
    <glyph glyph-name="imacron" unicode="&#x12b;" horiz-adv-x="151" 
d="M19 453q-1 10 5.5 14.5t16 5.5t19.5 0t16 -1q15 -52 26 -109.5t18 -116t10.5 -116t3.5 -111.5h-77zM-66 765q-15 7 -18 18.5t1.5 22.5t14.5 20.5t21 13.5q10 1 30.5 2.5t46.5 3t54.5 4t55 4t47 3t30.5 2.5h11q17 0 23 -12.5t6 -26.5q0 -12 -5.5 -19t-14 -10.5t-19 -4.5
t-20.5 -2t-30.5 -2.5t-47 -3t-55 -4t-54.5 -4t-46.5 -3t-30.5 -2.5z" />
    <glyph glyph-name="iogonek" unicode="&#x12f;" horiz-adv-x="151" 
d="M19 453q-1 10 5.5 14.5t16 5.5t19.5 0t16 -1q15 -52 26 -109.5t18 -116t10.5 -116t3.5 -111.5h-77zM73 764q21 0 30 -10t9 -29q0 -15 -10.5 -24t-24.5 -13.5t-28 -6t-21 -1.5q0 15 0.5 30t4.5 27t13 19.5t27 7.5zM264 -107q0 -24 -14 -36t-35.5 -16.5t-46 -4.5h-43.5
q-38 0 -60.5 15.5t-34.5 37.5t-16 47t-4 44q0 34 22 55.5t55 34.5q11 4 16.5 -0.5t8 -13.5t1.5 -19.5t-3 -18.5t-5 -10t-5 6q-25 -30 -29 -52t5 -37.5t27.5 -24t38.5 -12t38 -2t27 7.5z" />
    <glyph glyph-name="itilde" unicode="&#x129;" horiz-adv-x="151" 
d="M19 453q-1 10 5.5 14.5t16 5.5t19.5 0t16 -1q15 -52 26 -109.5t18 -116t10.5 -116t3.5 -111.5h-77zM-145 615q8 22 16 50.5t19 54t28 43.5t43 18q6 3 21.5 4t41 -9t61.5 -35t83 -72q31 4 39.5 22t9 40.5t0 45.5t12.5 38l15 -2.5t18.5 -4t17.5 -7t11 -11.5
q2 -35 -0.5 -73.5t-14 -70t-35 -50.5t-64.5 -14q-42 21 -67.5 40.5t-44.5 34.5t-38 24t-47 9q-27 -11 -37.5 -23.5t-13 -24.5t-1 -22t-1.5 -16q-4 0 -14.5 0.5t-22 2t-21.5 3.5t-14 5z" />
    <glyph glyph-name="jcircumflex" unicode="&#x135;" horiz-adv-x="190" 
d="M-47 -198q42 -6 69 -4t42.5 15.5t20 39.5t1.5 68q0 69 -9 136.5t-20 135t-20 134.5t-9 135q0 3 1 9.5t6 12.5t17 8.5t33 -1.5q25 -70 39.5 -145.5t22 -152.5t10 -154.5t4.5 -152.5q0 -36 -3 -64.5t-14 -47.5t-34.5 -29t-63.5 -10q-17 0 -33 2.5t-29 9.5t-21.5 20t-9.5 35
zM-114 748q0 5 -0.5 9.5t0.5 9.5q22 40 45.5 71.5t44 61.5t36.5 62.5t24 75.5q9 21 29 21q1 0 -3.5 5.5t-5.5 7.5t5.5 -3t28.5 -26.5t64.5 -63t113.5 -112.5q14 -36 11.5 -53t-15.5 -20.5t-32.5 3.5t-38.5 21q-10 9 -23.5 23t-27.5 29.5t-27.5 30t-22.5 24.5l-131 -196
q-10 -8 -22.5 -13.5t-23.5 -5t-19.5 8.5t-9.5 29z" />
    <glyph glyph-name="kcommaaccent" unicode="&#x137;" horiz-adv-x="496" 
d="M61 39q3 83 0 163.5t-7 160.5l-8 160t-4 162q-7 9 -4 26.5t11.5 30t22 14.5t27.5 -20q9 -85 16 -143.5t12 -97t8.5 -59t5.5 -30.5t2.5 -11.5t1.5 -1.5q22 24 35 38t24 25t23.5 24t34 35t54.5 56t86 89l21 -65l-250 -289q5 -20 25.5 -41t49.5 -40.5t63 -38t66.5 -33.5
t59.5 -27.5t42 -19.5q36 -1 48 -11t9 -22.5t-17.5 -23.5t-30.5 -14q-44 0 -96 18.5t-101.5 47.5t-92 66t-68.5 75q1 -6 5.5 -37.5t6.5 -70t-2 -74.5t-19 -51q-21 -21 -35 -10.5t-25 40.5zM174 -302q23 20 35.5 52.5t23 62.5t21.5 51t31 20q9 -5 11.5 -22t-0.5 -40t-11 -48.5
t-20 -48t-28 -38t-34 -18.5q-12 0 -20.5 8.5t-8.5 20.5z" />
    <glyph glyph-name="lacute" unicode="&#x13a;" horiz-adv-x="189" 
d="M76 19q5 84 -0.5 167t-14 165.5t-16.5 165.5t-8 167q-2 19 -1 35q1 14 5.5 25t15.5 11q4 0 10 -2t12 -5t10.5 -6.5t4.5 -5.5q18 -164 28.5 -282t16 -199t6.5 -129.5t-0.5 -74.5t-4.5 -34.5t-6 -7.5q-2 0 -11 0.5t-19.5 2t-19 3.5t-8.5 4zM252 950q-19 -5 -48 -21.5
t-59.5 -37t-58.5 -41t-44 -32.5q-5 3 -12.5 8t-14.5 11t-11.5 13.5t-4.5 15.5q0 2 0.5 5.5t1.5 3.5l230 151z" />
    <glyph glyph-name="lcaron" unicode="&#x13e;" horiz-adv-x="349" 
d="M76 19q5 84 -0.5 167t-14 165.5t-16.5 165.5t-8 167q-2 19 -1 35q1 14 5.5 25t15.5 11q4 0 10 -2t12 -5t10.5 -6.5t4.5 -5.5q18 -164 28.5 -282t16 -199t6.5 -129.5t-0.5 -74.5t-4.5 -34.5t-6 -7.5q-2 0 -11 0.5t-19.5 2t-19 3.5t-8.5 4zM246 491q0 2 3 10.5t6.5 18
t6.5 17.5t3 10q0 1 0.5 12t0.5 16q0 51 -18.5 102.5t-39.5 96.5q11 20 28 20q24 0 40.5 -27t27 -64t15.5 -75.5t5 -62.5q0 -12 -0.5 -28t-5 -30.5t-14.5 -25t-30 -10.5q-8 0 -18 4.5t-10 15.5z" />
    <glyph glyph-name="lcommaaccent" unicode="&#x13c;" horiz-adv-x="189" 
d="M76 19q5 84 -0.5 167t-14 165.5t-16.5 165.5t-8 167q-2 19 -1 35q1 14 5.5 25t15.5 11q4 0 10 -2t12 -5t10.5 -6.5t4.5 -5.5q18 -164 28.5 -282t16 -199t6.5 -129.5t-0.5 -74.5t-4.5 -34.5t-6 -7.5q-2 0 -11 0.5t-19.5 2t-19 3.5t-8.5 4zM22 -302q23 20 35.5 52.5
t23 62.5t21.5 51t31 20q9 -5 11.5 -22t-0.5 -40t-11 -48.5t-20 -48t-28 -38t-34 -18.5q-12 0 -20.5 8.5t-8.5 20.5z" />
    <glyph glyph-name="ldot" unicode="&#x140;" horiz-adv-x="353" 
d="M76 19q5 84 -0.5 167t-14 165.5t-16.5 165.5t-8 167q-2 19 -1 35q1 14 5.5 25t15.5 11q4 0 10 -2t12 -5t10.5 -6.5t4.5 -5.5q18 -164 28.5 -282t16 -199t6.5 -129.5t-0.5 -74.5t-4.5 -34.5t-6 -7.5q-2 0 -11 0.5t-19.5 2t-19 3.5t-8.5 4zM234 333q7 17 22.5 26t31.5 7
t27.5 -16t11.5 -44q0 -7 -1.5 -16t-5 -16.5t-9 -13t-14.5 -5.5q-22 1 -36.5 9t-22 20t-8.5 25t4 24z" />
    <glyph glyph-name="nacute" unicode="&#x144;" 
d="M28 528q-1 11 8 15.5t22 6t25.5 0t19.5 -2.5q3 -10 7 -26.5t7.5 -35t5 -37t-0.5 -33.5q19 16 43 36t51 37t56 29t58 12q33 0 56 -17t39 -43t24.5 -56t12.5 -55q1 -5 3.5 -24.5t6 -47t7.5 -60.5t8 -65t7.5 -59.5t5.5 -44.5v-11q0 -17 -12 -22.5t-26 -5.5q-12 0 -22.5 2
t-15.5 18q-1 12 -3.5 37t-6 56.5t-8 66.5t-8 66.5t-7 56.5t-5.5 37q-2 14 -7 31t-14 31.5t-22 24.5t-31 10q-29 0 -58 -20t-55 -46t-46.5 -51t-30.5 -36q0 -59 9 -118t11 -122q0 -10 -0.5 -19.5t-4 -18t-11.5 -14.5t-23 -10q-8 -2 -22 5t-15 14l-38 509v0zM390 843
q-19 -5 -48 -21.5t-59.5 -37t-58.5 -41t-44 -32.5q-5 3 -12.5 8t-14.5 11t-11.5 13.5t-4.5 15.5q0 2 0.5 5.5t1.5 3.5l230 151z" />
    <glyph glyph-name="napostrophe" unicode="&#x149;" 
d="M28 528q-1 11 8 15.5t22 6t25.5 0t19.5 -2.5q3 -10 7 -26.5t7.5 -35t5 -37t-0.5 -33.5q19 16 43 36t51 37t56 29t58 12q33 0 56 -17t39 -43t24.5 -56t12.5 -55q1 -5 3.5 -24.5t6 -47t7.5 -60.5t8 -65t7.5 -59.5t5.5 -44.5v-11q0 -17 -12 -22.5t-26 -5.5q-12 0 -22.5 2
t-15.5 18q-1 12 -3.5 37t-6 56.5t-8 66.5t-8 66.5t-7 56.5t-5.5 37q-2 14 -7 31t-14 31.5t-22 24.5t-31 10q-29 0 -58 -20t-55 -46t-46.5 -51t-30.5 -36q0 -59 9 -118t11 -122q0 -10 -0.5 -19.5t-4 -18t-11.5 -14.5t-23 -10q-8 -2 -22 5t-15 14l-38 509v0zM27 -302
q23 20 35.5 52.5t23 62.5t21.5 51t31 20q9 -5 11.5 -22t-0.5 -40t-11 -48.5t-20 -48t-28 -38t-34 -18.5q-12 0 -20.5 8.5t-8.5 20.5z" />
    <glyph glyph-name="ncaron" unicode="&#x148;" 
d="M28 528q-1 11 8 15.5t22 6t25.5 0t19.5 -2.5q3 -10 7 -26.5t7.5 -35t5 -37t-0.5 -33.5q19 16 43 36t51 37t56 29t58 12q33 0 56 -17t39 -43t24.5 -56t12.5 -55q1 -5 3.5 -24.5t6 -47t7.5 -60.5t8 -65t7.5 -59.5t5.5 -44.5v-11q0 -17 -12 -22.5t-26 -5.5q-12 0 -22.5 2
t-15.5 18q-1 12 -3.5 37t-6 56.5t-8 66.5t-8 66.5t-7 56.5t-5.5 37q-2 14 -7 31t-14 31.5t-22 24.5t-31 10q-29 0 -58 -20t-55 -46t-46.5 -51t-30.5 -36q0 -59 9 -118t11 -122q0 -10 -0.5 -19.5t-4 -18t-11.5 -14.5t-23 -10q-8 -2 -22 5t-15 14l-38 509v0zM14 965
q1 12 9 16.5t18 4.5t21.5 -3.5t20.5 -7.5l157 -172q9 6 33.5 22.5t53 35.5t53.5 35t34 21q18 8 36 12.5t29.5 2t14 -12t-10.5 -30.5q-65 -40 -110 -68t-75 -46t-46.5 -27.5t-24.5 -14t-10 -5.5l-2 -1q-18 0 -27 12q-7 24 -27.5 52t-46 56.5t-53 56t-47.5 50.5q-1 3 -0.5 5.5
t0.5 5.5z" />
    <glyph glyph-name="ncommaaccent" unicode="&#x146;" 
d="M28 528q-1 11 8 15.5t22 6t25.5 0t19.5 -2.5q3 -10 7 -26.5t7.5 -35t5 -37t-0.5 -33.5q19 16 43 36t51 37t56 29t58 12q33 0 56 -17t39 -43t24.5 -56t12.5 -55q1 -5 3.5 -24.5t6 -47t7.5 -60.5t8 -65t7.5 -59.5t5.5 -44.5v-11q0 -17 -12 -22.5t-26 -5.5q-12 0 -22.5 2
t-15.5 18q-1 12 -3.5 37t-6 56.5t-8 66.5t-8 66.5t-7 56.5t-5.5 37q-2 14 -7 31t-14 31.5t-22 24.5t-31 10q-29 0 -58 -20t-55 -46t-46.5 -51t-30.5 -36q0 -59 9 -118t11 -122q0 -10 -0.5 -19.5t-4 -18t-11.5 -14.5t-23 -10q-8 -2 -22 5t-15 14l-38 509v0zM190 -302
q23 20 35.5 52.5t23 62.5t21.5 51t31 20q9 -5 11.5 -22t-0.5 -40t-11 -48.5t-20 -48t-28 -38t-34 -18.5q-12 0 -20.5 8.5t-8.5 20.5z" />
    <glyph glyph-name="obreve" unicode="&#x14f;" horiz-adv-x="415" 
d="M27 169q-4 25 -3.5 65.5t8 86.5t22 92t37.5 81.5t54.5 55t72.5 13.5q61 0 98.5 -18.5t58 -50.5t27.5 -75.5t7 -93.5q5 -33 2 -71.5t-13.5 -76t-28.5 -71t-44.5 -59t-60.5 -39t-76 -9.5q-82 0 -121.5 45.5t-39.5 124.5zM102 206q0 -26 1 -49.5t8.5 -42t24 -29.5t46.5 -11
q40 0 71.5 28t53.5 67.5t34 82.5t12 73q0 49 -11.5 83t-28.5 55t-37.5 30.5t-38.5 11.5q-23 0 -43.5 -19.5t-37 -49t-28.5 -65t-19 -68.5t-9 -59.5t2 -37.5zM10 930q1 12 9 16.5t18 4.5t21.5 -3.5t20.5 -7.5q45 -39 77.5 -57t55.5 -21.5t38.5 3.5t25.5 17.5t16.5 21
t12.5 13.5q18 8 36 12.5t29.5 2t14 -12t-10.5 -30.5q-55 -51 -94.5 -73.5t-69 -25.5t-53 10t-45.5 33.5t-46 44t-56 41.5q-1 3 -0.5 5.5t0.5 5.5z" />
    <glyph glyph-name="ohungarumlaut" unicode="&#x151;" horiz-adv-x="415" 
d="M27 169q-4 25 -3.5 65.5t8 86.5t22 92t37.5 81.5t54.5 55t72.5 13.5q61 0 98.5 -18.5t58 -50.5t27.5 -75.5t7 -93.5q5 -33 2 -71.5t-13.5 -76t-28.5 -71t-44.5 -59t-60.5 -39t-76 -9.5q-82 0 -121.5 45.5t-39.5 124.5zM102 206q0 -26 1 -49.5t8.5 -42t24 -29.5t46.5 -11
q40 0 71.5 28t53.5 67.5t34 82.5t12 73q0 49 -11.5 83t-28.5 55t-37.5 30.5t-38.5 11.5q-23 0 -43.5 -19.5t-37 -49t-28.5 -65t-19 -68.5t-9 -59.5t2 -37.5zM261 903q-19 -5 -48 -21.5t-59.5 -37t-58.5 -41t-44 -32.5q-5 3 -12.5 8t-14.5 11t-11.5 13.5t-4.5 15.5
q0 2 0.5 5.5t1.5 3.5l230 151zM409 843q-19 -5 -48 -21.5t-59.5 -37t-58.5 -41t-44 -32.5q-5 3 -12.5 8t-14.5 11t-11.5 13.5t-4.5 15.5q0 2 0.5 5.5t1.5 3.5l230 151z" />
    <glyph glyph-name="omacron" unicode="&#x14d;" horiz-adv-x="415" 
d="M27 169q-4 25 -3.5 65.5t8 86.5t22 92t37.5 81.5t54.5 55t72.5 13.5q61 0 98.5 -18.5t58 -50.5t27.5 -75.5t7 -93.5q5 -33 2 -71.5t-13.5 -76t-28.5 -71t-44.5 -59t-60.5 -39t-76 -9.5q-82 0 -121.5 45.5t-39.5 124.5zM102 206q0 -26 1 -49.5t8.5 -42t24 -29.5t46.5 -11
q40 0 71.5 28t53.5 67.5t34 82.5t12 73q0 49 -11.5 83t-28.5 55t-37.5 30.5t-38.5 11.5q-23 0 -43.5 -19.5t-37 -49t-28.5 -65t-19 -68.5t-9 -59.5t2 -37.5zM67 765q-15 7 -18 18.5t1.5 22.5t14.5 20.5t21 13.5q10 1 30.5 2.5t46.5 3t54.5 4t55 4t47 3t30.5 2.5h11
q17 0 23 -12.5t6 -26.5q0 -12 -5.5 -19t-14 -10.5t-19 -4.5t-20.5 -2t-30.5 -2.5t-47 -3t-55 -4t-54.5 -4t-46.5 -3t-30.5 -2.5z" />
    <glyph glyph-name="oslashacute" unicode="&#x1ff;" horiz-adv-x="415" 
d="M27 169q-4 25 -3.5 65.5t8 86.5t22 92t37.5 81.5t54.5 55t72.5 13.5q61 0 98.5 -18.5t58 -50.5t27.5 -75.5t7 -93.5q5 -33 2 -71.5t-13.5 -76t-28.5 -71t-44.5 -59t-60.5 -39t-76 -9.5q-82 0 -121.5 45.5t-39.5 124.5zM102 206q0 -26 1 -49.5t8.5 -42t24 -29.5t46.5 -11
q40 0 71.5 28t53.5 67.5t34 82.5t12 73q0 49 -11.5 83t-28.5 55t-37.5 30.5t-38.5 11.5q-23 0 -43.5 -19.5t-37 -49t-28.5 -65t-19 -68.5t-9 -59.5t2 -37.5zM7.33984 14.2656q0 1.30469 0.396484 3.58789t0.396484 2.93555l385.938 549.273
q11.8867 -5.21875 22.9824 -12.7207q11.0938 -7.50195 9.50977 -19.8965l-373.259 -541.445q0 -0.652344 -5.15137 -1.30469q-5.15039 -0.652344 -7.52832 -0.652344q-11.8877 0 -22.5859 4.56641t-10.6982 15.6562zM334 843q-19 -5 -48 -21.5t-59.5 -37t-58.5 -41
t-44 -32.5q-5 3 -12.5 8t-14.5 11t-11.5 13.5t-4.5 15.5q0 2 0.5 5.5t1.5 3.5l230 151z" />
    <glyph glyph-name="racute" unicode="&#x155;" horiz-adv-x="380" 
d="M47 19q2 51 3.5 106.5t0.5 112.5t-4.5 113t-10.5 108q0 17 12.5 23.5t26.5 6.5q10 0 17 -4.5t12.5 -10.5t11 -13t14.5 -12q15 17 39.5 27.5t53 15t58.5 4t55.5 -6t43.5 -15.5t24 -23q-12 -27 -24.5 -33.5t-28.5 -4.5t-38 6.5t-54 -1.5q-38 -10 -63.5 -35.5t-40.5 -60.5
t-23 -76.5t-11 -83t-4.5 -79t-3.5 -64.5q-7 0 -17 -3.5t-20 -6t-18 -1.5t-11 11zM316 843q-19 -5 -48 -21.5t-59.5 -37t-58.5 -41t-44 -32.5q-5 3 -12.5 8t-14.5 11t-11.5 13.5t-4.5 15.5q0 2 0.5 5.5t1.5 3.5l230 151z" />
    <glyph glyph-name="rcaron" unicode="&#x159;" horiz-adv-x="380" 
d="M47 19q2 51 3.5 106.5t0.5 112.5t-4.5 113t-10.5 108q0 17 12.5 23.5t26.5 6.5q10 0 17 -4.5t12.5 -10.5t11 -13t14.5 -12q15 17 39.5 27.5t53 15t58.5 4t55.5 -6t43.5 -15.5t24 -23q-12 -27 -24.5 -33.5t-28.5 -4.5t-38 6.5t-54 -1.5q-38 -10 -63.5 -35.5t-40.5 -60.5
t-23 -76.5t-11 -83t-4.5 -79t-3.5 -64.5q-7 0 -17 -3.5t-20 -6t-18 -1.5t-11 11zM-60 965q1 12 9 16.5t18 4.5t21.5 -3.5t20.5 -7.5l157 -172q9 6 33.5 22.5t53 35.5t53.5 35t34 21q18 8 36 12.5t29.5 2t14 -12t-10.5 -30.5q-65 -40 -110 -68t-75 -46t-46.5 -27.5t-24.5 -14
t-10 -5.5l-2 -1q-18 0 -27 12q-7 24 -27.5 52t-46 56.5t-53 56t-47.5 50.5q-1 3 -0.5 5.5t0.5 5.5z" />
    <glyph glyph-name="rcommaaccent" unicode="&#x157;" horiz-adv-x="380" 
d="M47 19q2 51 3.5 106.5t0.5 112.5t-4.5 113t-10.5 108q0 17 12.5 23.5t26.5 6.5q10 0 17 -4.5t12.5 -10.5t11 -13t14.5 -12q15 17 39.5 27.5t53 15t58.5 4t55.5 -6t43.5 -15.5t24 -23q-12 -27 -24.5 -33.5t-28.5 -4.5t-38 6.5t-54 -1.5q-38 -10 -63.5 -35.5t-40.5 -60.5
t-23 -76.5t-11 -83t-4.5 -79t-3.5 -64.5q-7 0 -17 -3.5t-20 -6t-18 -1.5t-11 11zM117 -302q23 20 35.5 52.5t23 62.5t21.5 51t31 20q9 -5 11.5 -22t-0.5 -40t-11 -48.5t-20 -48t-28 -38t-34 -18.5q-12 0 -20.5 8.5t-8.5 20.5z" />
    <glyph glyph-name="sacute" unicode="&#x15b;" horiz-adv-x="340" 
d="M19 132q19 34 29 41.5t15.5 0.5t9 -25t11.5 -35.5t22.5 -30.5t40.5 -10q18 5 32.5 17.5t14.5 25.5q0 32 -15.5 63.5t-34.5 63t-34.5 62.5t-15.5 63q0 23 9.5 57.5t27 66t41.5 54t53 22.5q45 -9 76 -23t46 -29.5t13 -31t-23 -27.5q-37 12 -67.5 18.5t-53 -1t-35 -32
t-12.5 -75.5q0 -33 17.5 -64.5t38 -62.5t38 -63t17.5 -65q0 -27 -15.5 -48t-40 -35.5t-54.5 -22t-58 -7.5q-22 0 -40.5 13t-31.5 32.5t-18.5 43t-2.5 44.5zM296 843q-19 -5 -48 -21.5t-59.5 -37t-58.5 -41t-44 -32.5q-5 3 -12.5 8t-14.5 11t-11.5 13.5t-4.5 15.5
q0 2 0.5 5.5t1.5 3.5l230 151z" />
    <glyph glyph-name="scedilla" unicode="&#x15f;" horiz-adv-x="340" 
d="M19 132q19 34 29 41.5t15.5 0.5t9 -25t11.5 -35.5t22.5 -30.5t40.5 -10q18 5 32.5 17.5t14.5 25.5q0 32 -15.5 63.5t-34.5 63t-34.5 62.5t-15.5 63q0 23 9.5 57.5t27 66t41.5 54t53 22.5q45 -9 76 -23t46 -29.5t13 -31t-23 -27.5q-37 12 -67.5 18.5t-53 -1t-35 -32
t-12.5 -75.5q0 -33 17.5 -64.5t38 -62.5t38 -63t17.5 -65q0 -27 -15.5 -48t-40 -35.5t-54.5 -22t-58 -7.5q-22 0 -40.5 13t-31.5 32.5t-18.5 43t-2.5 44.5zM52 -191q19 24 28.5 29.5t14.5 0.5t9 -18t11.5 -25.5t21.5 -21.5t40 -7q18 4 32.5 13t14.5 18q0 23 -19 38.5
t-41.5 29.5t-41 29t-18.5 38q0 54 9 77t21 26t25 -10t21 -30.5t8.5 -36t-11.5 -26.5q0 -24 20.5 -39.5t45 -29.5t45 -29.5t20.5 -39.5q0 -19 -15 -34t-39 -25t-53.5 -15.5t-57.5 -5.5q-22 0 -40 9t-30.5 23t-18 30.5t-2.5 31.5z" />
    <glyph glyph-name="scircumflex" unicode="&#x15d;" horiz-adv-x="340" 
d="M19 132q19 34 29 41.5t15.5 0.5t9 -25t11.5 -35.5t22.5 -30.5t40.5 -10q18 5 32.5 17.5t14.5 25.5q0 32 -15.5 63.5t-34.5 63t-34.5 62.5t-15.5 63q0 23 9.5 57.5t27 66t41.5 54t53 22.5q45 -9 76 -23t46 -29.5t13 -31t-23 -27.5q-37 12 -67.5 18.5t-53 -1t-35 -32
t-12.5 -75.5q0 -33 17.5 -64.5t38 -62.5t38 -63t17.5 -65q0 -27 -15.5 -48t-40 -35.5t-54.5 -22t-58 -7.5q-22 0 -40.5 13t-31.5 32.5t-18.5 43t-2.5 44.5zM-38 748q0 5 -0.5 9.5t0.5 9.5q22 40 45.5 71.5t44 61.5t36.5 62.5t24 75.5q9 21 29 21q1 0 -3.5 5.5t-5.5 7.5
t5.5 -3t28.5 -26.5t64.5 -63t113.5 -112.5q14 -36 11.5 -53t-15.5 -20.5t-32.5 3.5t-38.5 21q-10 9 -23.5 23t-27.5 29.5t-27.5 30t-22.5 24.5l-131 -196q-10 -8 -22.5 -13.5t-23.5 -5t-19.5 8.5t-9.5 29z" />
    <glyph glyph-name="scommaaccent" unicode="&#x219;" horiz-adv-x="340" 
d="M19 132q19 34 29 41.5t15.5 0.5t9 -25t11.5 -35.5t22.5 -30.5t40.5 -10q18 5 32.5 17.5t14.5 25.5q0 32 -15.5 63.5t-34.5 63t-34.5 62.5t-15.5 63q0 23 9.5 57.5t27 66t41.5 54t53 22.5q45 -9 76 -23t46 -29.5t13 -31t-23 -27.5q-37 12 -67.5 18.5t-53 -1t-35 -32
t-12.5 -75.5q0 -33 17.5 -64.5t38 -62.5t38 -63t17.5 -65q0 -27 -15.5 -48t-40 -35.5t-54.5 -22t-58 -7.5q-22 0 -40.5 13t-31.5 32.5t-18.5 43t-2.5 44.5zM97 -302q23 20 35.5 52.5t23 62.5t21.5 51t31 20q9 -5 11.5 -22t-0.5 -40t-11 -48.5t-20 -48t-28 -38t-34 -18.5
q-12 0 -20.5 8.5t-8.5 20.5z" />
    <glyph glyph-name="tcaron" unicode="&#x165;" horiz-adv-x="707" 
d="M19 377q0 2 -1 9.5t-1 9.5q0 24 12.5 31.5t34.5 7.5t45.5 -6t42.5 -5.5t29.5 14t7.5 53.5q1 9 1 28v43v51v51t-0.5 43.5t-0.5 28.5q3 9 11.5 14.5t18.5 7.5t20 2.5t16 0.5v-343q30 0 58.5 5.5t56.5 12.5t55.5 12.5t56.5 5.5q16 0 31.5 -4t15.5 -25q0 -18 -17 -31.5
t-43 -22.5t-58 -14.5t-62.5 -8.5t-56 -4t-37.5 -1v-324q-2 -11 -13.5 -15.5t-26 -2t-28 11.5t-17.5 25q0 108 -2 168t-5 89.5t-6.5 36.5t-5.5 8q-8 3 -26.5 8.5t-39.5 11.5t-40 11t-26 6zM604 491q0 2 3 10.5t6.5 18t6.5 17.5t3 10q0 1 0.5 12t0.5 16q0 51 -18.5 102.5
t-39.5 96.5q11 20 28 20q24 0 40.5 -27t27 -64t15.5 -75.5t5 -62.5q0 -12 -0.5 -28t-5 -30.5t-14.5 -25t-30 -10.5q-8 0 -18 4.5t-10 15.5z" />
    <glyph glyph-name="tcommaaccent" unicode="&#x163;" horiz-adv-x="547" 
d="M19 377q0 2 -1 9.5t-1 9.5q0 24 12.5 31.5t34.5 7.5t45.5 -6t42.5 -5.5t29.5 14t7.5 53.5q1 9 1 28v43v51v51t-0.5 43.5t-0.5 28.5q3 9 11.5 14.5t18.5 7.5t20 2.5t16 0.5v-343q30 0 58.5 5.5t56.5 12.5t55.5 12.5t56.5 5.5q16 0 31.5 -4t15.5 -25q0 -18 -17 -31.5
t-43 -22.5t-58 -14.5t-62.5 -8.5t-56 -4t-37.5 -1v-324q-2 -11 -13.5 -15.5t-26 -2t-28 11.5t-17.5 25q0 108 -2 168t-5 89.5t-6.5 36.5t-5.5 8q-8 3 -26.5 8.5t-39.5 11.5t-40 11t-26 6zM199 -302q23 20 35.5 52.5t23 62.5t21.5 51t31 20q9 -5 11.5 -22t-0.5 -40t-11 -48.5
t-20 -48t-28 -38t-34 -18.5q-12 0 -20.5 8.5t-8.5 20.5z" />
    <glyph glyph-name="ubreve" unicode="&#x16d;" horiz-adv-x="500" 
d="M217 0q-48 17 -82 54.5t-56.5 86.5t-34.5 106t-14.5 112t2 104t15.5 84q2 0 9.5 1t9.5 1q12 0 22 -2.5t15 -18.5q-4 -51 -5 -92.5t3 -80.5t13.5 -79t26.5 -87q15 -49 35 -69t43 -18t46.5 22t45 50.5t39 67.5t28.5 73.5t14 68t-6 50.5q0 2 -3 10.5t-6 18t-6 18t-3 10.5
q0 11 10 15t18 4q40 -17 54 -60t7.5 -98.5t-30 -115.5t-56.5 -111.5t-73.5 -86t-80.5 -38.5zM53 930q1 12 9 16.5t18 4.5t21.5 -3.5t20.5 -7.5q45 -39 77.5 -57t55.5 -21.5t38.5 3.5t25.5 17.5t16.5 21t12.5 13.5q18 8 36 12.5t29.5 2t14 -12t-10.5 -30.5
q-55 -51 -94.5 -73.5t-69 -25.5t-53 10t-45.5 33.5t-46 44t-56 41.5q-1 3 -0.5 5.5t0.5 5.5z" />
    <glyph glyph-name="uhungarumlaut" unicode="&#x171;" horiz-adv-x="500" 
d="M217 0q-48 17 -82 54.5t-56.5 86.5t-34.5 106t-14.5 112t2 104t15.5 84q2 0 9.5 1t9.5 1q12 0 22 -2.5t15 -18.5q-4 -51 -5 -92.5t3 -80.5t13.5 -79t26.5 -87q15 -49 35 -69t43 -18t46.5 22t45 50.5t39 67.5t28.5 73.5t14 68t-6 50.5q0 2 -3 10.5t-6 18t-6 18t-3 10.5
q0 11 10 15t18 4q40 -17 54 -60t7.5 -98.5t-30 -115.5t-56.5 -111.5t-73.5 -86t-80.5 -38.5zM302 903q-19 -5 -48 -21.5t-59.5 -37t-58.5 -41t-44 -32.5q-5 3 -12.5 8t-14.5 11t-11.5 13.5t-4.5 15.5q0 2 0.5 5.5t1.5 3.5l230 151zM450 843q-19 -5 -48 -21.5t-59.5 -37
t-58.5 -41t-44 -32.5q-5 3 -12.5 8t-14.5 11t-11.5 13.5t-4.5 15.5q0 2 0.5 5.5t1.5 3.5l230 151z" />
    <glyph glyph-name="umacron" unicode="&#x16b;" horiz-adv-x="500" 
d="M217 0q-48 17 -82 54.5t-56.5 86.5t-34.5 106t-14.5 112t2 104t15.5 84q2 0 9.5 1t9.5 1q12 0 22 -2.5t15 -18.5q-4 -51 -5 -92.5t3 -80.5t13.5 -79t26.5 -87q15 -49 35 -69t43 -18t46.5 22t45 50.5t39 67.5t28.5 73.5t14 68t-6 50.5q0 2 -3 10.5t-6 18t-6 18t-3 10.5
q0 11 10 15t18 4q40 -17 54 -60t7.5 -98.5t-30 -115.5t-56.5 -111.5t-73.5 -86t-80.5 -38.5zM108 765q-15 7 -18 18.5t1.5 22.5t14.5 20.5t21 13.5q10 1 30.5 2.5t46.5 3t54.5 4t55 4t47 3t30.5 2.5h11q17 0 23 -12.5t6 -26.5q0 -12 -5.5 -19t-14 -10.5t-19 -4.5t-20.5 -2
t-30.5 -2.5t-47 -3t-55 -4t-54.5 -4t-46.5 -3t-30.5 -2.5z" />
    <glyph glyph-name="uogonek" unicode="&#x173;" horiz-adv-x="500" 
d="M217 0q-48 17 -82 54.5t-56.5 86.5t-34.5 106t-14.5 112t2 104t15.5 84q2 0 9.5 1t9.5 1q12 0 22 -2.5t15 -18.5q-4 -51 -5 -92.5t3 -80.5t13.5 -79t26.5 -87q15 -49 35 -69t43 -18t46.5 22t45 50.5t39 67.5t28.5 73.5t14 68t-6 50.5q0 2 -3 10.5t-6 18t-6 18t-3 10.5
q0 11 10 15t18 4q40 -17 54 -60t7.5 -98.5t-30 -115.5t-56.5 -111.5t-73.5 -86t-80.5 -38.5zM466 -91q0 -24 -14 -36t-35.5 -16.5t-46 -4.5h-43.5q-38 0 -60.5 15.5t-34.5 37.5t-16 47t-4 44q0 34 22 55.5t55 34.5q11 4 16.5 -0.5t8 -13.5t1.5 -19.5t-3 -18.5t-5 -10t-5 6
q-25 -30 -29 -52t5 -37.5t27.5 -24t38.5 -12t38 -2t27 7.5z" />
    <glyph glyph-name="uring" unicode="&#x16f;" horiz-adv-x="500" 
d="M217 0q-48 17 -82 54.5t-56.5 86.5t-34.5 106t-14.5 112t2 104t15.5 84q2 0 9.5 1t9.5 1q12 0 22 -2.5t15 -18.5q-4 -51 -5 -92.5t3 -80.5t13.5 -79t26.5 -87q15 -49 35 -69t43 -18t46.5 22t45 50.5t39 67.5t28.5 73.5t14 68t-6 50.5q0 2 -3 10.5t-6 18t-6 18t-3 10.5
q0 11 10 15t18 4q40 -17 54 -60t7.5 -98.5t-30 -115.5t-56.5 -111.5t-73.5 -86t-80.5 -38.5zM121 717q0 34 22 55.5t55 34.5q20 8 48 -3t54 -30.5t45.5 -43.5t22.5 -43q4 -26 -8.5 -47t-33 -36t-45 -23t-45.5 -8q-38 0 -60.5 15.5t-34.5 37.5t-16 47t-4 44zM211 751
q-32 -36 -34.5 -57t9.5 -33t31 -18.5t30 -13.5q9 0 19.5 1t19.5 4.5t15.5 11.5t9.5 22q3 18 -6 33.5t-25 26.5t-34.5 17t-34.5 6z" />
    <glyph glyph-name="utilde" unicode="&#x169;" horiz-adv-x="500" 
d="M217 0q-48 17 -82 54.5t-56.5 86.5t-34.5 106t-14.5 112t2 104t15.5 84q2 0 9.5 1t9.5 1q12 0 22 -2.5t15 -18.5q-4 -51 -5 -92.5t3 -80.5t13.5 -79t26.5 -87q15 -49 35 -69t43 -18t46.5 22t45 50.5t39 67.5t28.5 73.5t14 68t-6 50.5q0 2 -3 10.5t-6 18t-6 18t-3 10.5
q0 11 10 15t18 4q40 -17 54 -60t7.5 -98.5t-30 -115.5t-56.5 -111.5t-73.5 -86t-80.5 -38.5zM29 615q8 22 16 50.5t19 54t28 43.5t43 18q6 3 21.5 4t41 -9t61.5 -35t83 -72q31 4 39.5 22t9 40.5t0 45.5t12.5 38l15 -2.5t18.5 -4t17.5 -7t11 -11.5q2 -35 -0.5 -73.5t-14 -70
t-35 -50.5t-64.5 -14q-42 21 -67.5 40.5t-44.5 34.5t-38 24t-47 9q-27 -11 -37.5 -23.5t-13 -24.5t-1 -22t-1.5 -16q-4 0 -14.5 0.5t-22 2t-21.5 3.5t-14 5z" />
    <glyph glyph-name="wacute" unicode="&#x1e83;" horiz-adv-x="830" 
d="M28 509l19 38q17 -1 29.5 -11.5t21.5 -25.5t15 -31t9 -26q4 -11 11.5 -34.5t17 -53.5t20 -62.5t19.5 -62.5t16.5 -54t10.5 -35q6 12 18 37t27 56.5t31.5 66.5t31.5 66.5t26.5 57t16.5 37.5q7 17 9 34t6.5 30.5t15.5 22t35 8.5q15 0 23.5 -11t13 -26t6.5 -31.5t4 -26.5
q3 -16 10.5 -56.5t16.5 -85.5t17.5 -85t11.5 -56q56 83 100 163t70 176q3 0 14 0.5t15 0.5q20 0 34.5 -2.5t31.5 -17.5l-246 -434q-6 -11 -11.5 -15t-16.5 -4q-21 0 -35 21.5t-23.5 53.5t-16 70t-13 71.5t-15 57.5t-20.5 28l-19 -18l-150 -321q-2 -5 -9.5 -12t-9.5 -7
q-14 0 -26.5 7t-20.5 18t-11 24.5t1 25.5zM541 843q-19 -5 -48 -21.5t-59.5 -37t-58.5 -41t-44 -32.5q-5 3 -12.5 8t-14.5 11t-11.5 13.5t-4.5 15.5q0 2 0.5 5.5t1.5 3.5l230 151z" />
    <glyph glyph-name="wcircumflex" unicode="&#x175;" horiz-adv-x="830" 
d="M28 509l19 38q17 -1 29.5 -11.5t21.5 -25.5t15 -31t9 -26q4 -11 11.5 -34.5t17 -53.5t20 -62.5t19.5 -62.5t16.5 -54t10.5 -35q6 12 18 37t27 56.5t31.5 66.5t31.5 66.5t26.5 57t16.5 37.5q7 17 9 34t6.5 30.5t15.5 22t35 8.5q15 0 23.5 -11t13 -26t6.5 -31.5t4 -26.5
q3 -16 10.5 -56.5t16.5 -85.5t17.5 -85t11.5 -56q56 83 100 163t70 176q3 0 14 0.5t15 0.5q20 0 34.5 -2.5t31.5 -17.5l-246 -434q-6 -11 -11.5 -15t-16.5 -4q-21 0 -35 21.5t-23.5 53.5t-16 70t-13 71.5t-15 57.5t-20.5 28l-19 -18l-150 -321q-2 -5 -9.5 -12t-9.5 -7
q-14 0 -26.5 7t-20.5 18t-11 24.5t1 25.5zM206 748q0 5 -0.5 9.5t0.5 9.5q22 40 45.5 71.5t44 61.5t36.5 62.5t24 75.5q9 21 29 21q1 0 -3.5 5.5t-5.5 7.5t5.5 -3t28.5 -26.5t64.5 -63t113.5 -112.5q14 -36 11.5 -53t-15.5 -20.5t-32.5 3.5t-38.5 21q-10 9 -23.5 23
t-27.5 29.5t-27.5 30t-22.5 24.5l-131 -196q-10 -8 -22.5 -13.5t-23.5 -5t-19.5 8.5t-9.5 29z" />
    <glyph glyph-name="wdieresis" unicode="&#x1e85;" horiz-adv-x="830" 
d="M28 509l19 38q17 -1 29.5 -11.5t21.5 -25.5t15 -31t9 -26q4 -11 11.5 -34.5t17 -53.5t20 -62.5t19.5 -62.5t16.5 -54t10.5 -35q6 12 18 37t27 56.5t31.5 66.5t31.5 66.5t26.5 57t16.5 37.5q7 17 9 34t6.5 30.5t15.5 22t35 8.5q15 0 23.5 -11t13 -26t6.5 -31.5t4 -26.5
q3 -16 10.5 -56.5t16.5 -85.5t17.5 -85t11.5 -56q56 83 100 163t70 176q3 0 14 0.5t15 0.5q20 0 34.5 -2.5t31.5 -17.5l-246 -434q-6 -11 -11.5 -15t-16.5 -4q-21 0 -35 21.5t-23.5 53.5t-16 70t-13 71.5t-15 57.5t-20.5 28l-19 -18l-150 -321q-2 -5 -9.5 -12t-9.5 -7
q-14 0 -26.5 7t-20.5 18t-11 24.5t1 25.5zM302 768q7 0 21 0.5t28 -2.5t24.5 -10.5t10.5 -22.5q0 -7 -1.5 -15.5t-4.5 -16t-8.5 -12.5t-14.5 -5q-15 0 -25 9t-17 22t-10 27.5t-3 25.5zM444 768q7 0 21 0.5t28 -2.5t24.5 -10.5t10.5 -22.5q0 -7 -1.5 -15.5t-4.5 -16
t-8.5 -12.5t-14.5 -5q-15 0 -25 9t-17 22t-10 27.5t-3 25.5z" />
    <glyph glyph-name="wgrave" unicode="&#x1e81;" horiz-adv-x="830" 
d="M28 509l19 38q17 -1 29.5 -11.5t21.5 -25.5t15 -31t9 -26q4 -11 11.5 -34.5t17 -53.5t20 -62.5t19.5 -62.5t16.5 -54t10.5 -35q6 12 18 37t27 56.5t31.5 66.5t31.5 66.5t26.5 57t16.5 37.5q7 17 9 34t6.5 30.5t15.5 22t35 8.5q15 0 23.5 -11t13 -26t6.5 -31.5t4 -26.5
q3 -16 10.5 -56.5t16.5 -85.5t17.5 -85t11.5 -56q56 83 100 163t70 176q3 0 14 0.5t15 0.5q20 0 34.5 -2.5t31.5 -17.5l-246 -434q-6 -11 -11.5 -15t-16.5 -4q-21 0 -35 21.5t-23.5 53.5t-16 70t-13 71.5t-15 57.5t-20.5 28l-19 -18l-150 -321q-2 -5 -9.5 -12t-9.5 -7
q-14 0 -26.5 7t-20.5 18t-11 24.5t1 25.5zM320 923l207 -151q1 0 1.5 -3.5t0.5 -5.5q0 -17 -14.5 -29t-24.5 -19q-15 12 -39.5 32.5t-52 41t-54 37t-43.5 21.5z" />
    <glyph glyph-name="ycircumflex" unicode="&#x177;" horiz-adv-x="574" 
d="M197 -245q18 69 42 134.5t53 138.5q-27 59 -61.5 113t-72 113t-76.5 127.5t-75 157.5q0 16 4 31.5t25 15.5q11 0 16.5 -4.5t11.5 -15.5l265 -415l169 396q5 11 12 15.5t17 4.5q13 -1 20 -9t9.5 -20t2 -24.5t-3.5 -22.5l-283 -736q-2 -5 -9 -12t-10 -7t-11.5 2t-17.5 5
t-16.5 6.5t-10.5 5.5zM78 748q0 5 -0.5 9.5t0.5 9.5q22 40 45.5 71.5t44 61.5t36.5 62.5t24 75.5q9 21 29 21q1 0 -3.5 5.5t-5.5 7.5t5.5 -3t28.5 -26.5t64.5 -63t113.5 -112.5q14 -36 11.5 -53t-15.5 -20.5t-32.5 3.5t-38.5 21q-10 9 -23.5 23t-27.5 29.5t-27.5 30
t-22.5 24.5l-131 -196q-10 -8 -22.5 -13.5t-23.5 -5t-19.5 8.5t-9.5 29z" />
    <glyph glyph-name="ygrave" unicode="&#x1ef3;" horiz-adv-x="574" 
d="M197 -245q18 69 42 134.5t53 138.5q-27 59 -61.5 113t-72 113t-76.5 127.5t-75 157.5q0 16 4 31.5t25 15.5q11 0 16.5 -4.5t11.5 -15.5l265 -415l169 396q5 11 12 15.5t17 4.5q13 -1 20 -9t9.5 -20t2 -24.5t-3.5 -22.5l-283 -736q-2 -5 -9 -12t-10 -7t-11.5 2t-17.5 5
t-16.5 6.5t-10.5 5.5zM192 923l207 -151q1 0 1.5 -3.5t0.5 -5.5q0 -17 -14.5 -29t-24.5 -19q-15 12 -39.5 32.5t-52 41t-54 37t-43.5 21.5z" />
    <glyph glyph-name="zacute" unicode="&#x17a;" horiz-adv-x="538" 
d="M75 -1q-26 0 -40.5 16t-6.5 42l358 434h-226q-23 0 -32 11.5t-9.5 25.5t6.5 25.5t16 12.5h321q31 -5 38 -22t-0.5 -37t-24 -40.5t-32.5 -32.5q-92 -83 -167 -172t-147 -193q30 0 69 4.5t80 10t81 10.5t72 5h24.5t20.5 -3.5t14 -11.5t5 -24q0 -10 -5 -20t-13.5 -18
t-19 -13t-21.5 -5q-44 11 -91 9.5t-93.5 -7t-91.5 -9.5t-85 2zM395 843q-19 -5 -48 -21.5t-59.5 -37t-58.5 -41t-44 -32.5q-5 3 -12.5 8t-14.5 11t-11.5 13.5t-4.5 15.5q0 2 0.5 5.5t1.5 3.5l230 151z" />
    <glyph glyph-name="zdotaccent" unicode="&#x17c;" horiz-adv-x="538" 
d="M75 -1q-26 0 -40.5 16t-6.5 42l358 434h-226q-23 0 -32 11.5t-9.5 25.5t6.5 25.5t16 12.5h321q31 -5 38 -22t-0.5 -37t-24 -40.5t-32.5 -32.5q-92 -83 -167 -172t-147 -193q30 0 69 4.5t80 10t81 10.5t72 5h24.5t20.5 -3.5t14 -11.5t5 -24q0 -10 -5 -20t-13.5 -18
t-19 -13t-21.5 -5q-44 11 -91 9.5t-93.5 -7t-91.5 -9.5t-85 2zM227 854q7 0 21 0.5t28 -2.5t24.5 -10.5t10.5 -22.5q0 -7 -1.5 -15.5t-4.5 -16t-8.5 -12.5t-14.5 -5q-15 0 -25 9t-17 22t-10 27.5t-3 25.5z" />
    </font>
</defs>
</svg>
